{"glyphs":{"0":{"ha":484,"x_min":50,"x_max":433,"o":"m 351 294 q 363 323 351 311 q 392 335 376 335 q 421 323 409 335 q 433 294 433 311 l 433 192 q 407 96 433 140 q 338 26 382 52 q 242 1 294 1 q 146 26 190 1 q 76 96 102 52 q 50 192 50 140 q 63 221 50 209 q 92 233 75 233 q 120 221 108 233 q 132 192 132 209 q 147 137 132 162 q 187 97 162 112 q 242 82 212 82 q 297 97 272 82 q 336 137 322 112 q 351 192 351 162 l 351 294 m 288 437 q 309 443 298 443 q 338 431 326 443 q 350 402 350 419 q 345 382 350 391 q 331 368 340 373 l 196 283 q 174 277 187 277 q 146 289 157 277 q 134 318 134 301 q 139 338 134 329 q 153 352 144 347 l 288 437 m 132 426 q 120 398 132 409 q 92 386 108 386 q 63 398 75 386 q 50 426 50 409 l 50 528 q 76 624 50 580 q 146 694 102 668 q 242 720 190 720 q 338 694 294 720 q 407 624 382 668 q 433 528 433 580 q 421 499 433 511 q 392 488 409 488 q 363 499 376 488 q 351 528 351 511 q 336 583 351 558 q 297 623 322 609 q 242 638 272 638 q 187 623 212 638 q 147 583 162 609 q 132 528 132 558 l 132 426 z "},"1":{"ha":484,"x_min":88,"x_max":323,"o":"m 323 41 q 310 12 323 24 q 281 0 298 0 q 253 12 264 0 q 241 41 241 24 l 241 223 q 253 252 241 240 q 281 264 264 264 q 310 252 298 264 q 323 223 323 240 l 323 41 m 258 714 q 281 721 270 721 q 310 709 298 721 q 323 680 323 697 q 318 661 323 670 q 305 646 313 652 l 152 542 q 129 535 141 535 q 100 547 112 535 q 88 576 88 559 q 93 595 88 586 q 105 610 97 604 l 258 714 m 323 433 q 310 404 323 416 q 281 392 298 392 q 253 404 264 392 q 241 433 241 416 l 241 679 q 253 708 241 696 q 281 720 264 720 q 310 708 298 720 q 323 679 323 696 l 323 433 z "},"2":{"ha":484,"x_min":49,"x_max":435,"o":"m 92 0 q 63 12 75 0 q 50 41 50 24 q 63 70 50 58 q 92 82 75 82 l 394 82 q 423 70 411 82 q 435 41 435 58 q 423 12 435 24 q 394 0 411 0 l 92 0 m 121 18 q 108 7 116 11 q 90 3 99 3 q 61 15 73 3 q 49 44 49 27 q 58 70 49 58 l 230 283 q 262 299 243 299 q 291 287 279 299 q 303 258 303 275 q 294 232 303 244 l 121 18 m 132 529 q 120 501 132 512 q 91 489 108 489 q 62 501 74 489 q 50 529 50 512 q 76 626 50 581 q 146 695 101 670 q 242 721 190 721 q 338 695 294 721 q 408 626 382 670 q 434 529 434 581 q 422 501 434 512 q 394 489 410 489 q 364 501 377 489 q 352 529 352 512 q 337 584 352 559 q 297 624 323 610 q 242 639 272 639 q 187 624 212 639 q 147 584 162 610 q 132 529 132 559 z "},"3":{"ha":484,"x_min":53,"x_max":431,"o":"m 348 187 q 360 216 348 204 q 389 228 372 228 q 417 216 405 228 q 430 187 430 204 q 404 93 430 136 q 336 24 379 49 q 242 -1 293 -1 q 148 24 191 -1 q 79 93 104 49 q 53 187 53 136 q 66 216 53 204 q 95 228 78 228 q 123 216 111 228 q 135 187 135 204 q 150 133 135 158 q 189 95 164 109 q 242 81 213 81 q 295 95 271 81 q 334 133 319 109 q 348 187 348 158 m 136 533 q 124 505 136 516 q 96 493 112 493 q 67 505 79 493 q 55 533 55 516 q 80 628 55 584 q 148 696 105 671 q 243 721 191 721 q 337 696 294 721 q 405 628 380 671 q 431 533 431 584 q 405 439 431 483 q 337 371 380 396 q 243 345 294 345 q 214 357 226 345 q 202 386 202 369 q 214 415 202 403 q 243 427 226 427 q 296 441 272 427 q 335 480 320 456 q 349 533 349 505 q 335 587 349 562 q 296 625 320 611 q 243 639 272 639 q 189 625 213 639 q 150 587 165 611 q 136 533 136 562 z "},"4":{"ha":484,"x_min":33,"x_max":435,"o":"m 249 247 q 278 235 266 247 q 290 206 290 223 q 278 177 290 189 q 249 165 266 165 l 81 165 q 52 177 64 165 q 40 206 40 189 q 52 235 40 223 q 81 247 64 247 l 249 247 m 353 514 q 365 543 353 531 q 394 556 377 556 q 423 543 411 556 q 435 514 435 531 l 435 41 q 423 12 435 24 q 394 0 411 0 q 365 12 377 0 q 353 41 353 24 l 353 514 m 111 189 q 96 172 106 178 q 74 165 86 165 q 45 177 57 165 q 33 206 33 189 q 36 222 33 215 l 245 697 q 260 714 251 707 q 282 720 270 720 q 311 708 299 720 q 324 680 324 696 q 319 662 324 670 l 111 189 z "},"5":{"ha":484,"x_min":50,"x_max":440,"o":"m 242 345 q 213 357 225 345 q 201 386 201 369 q 213 415 201 403 q 242 427 225 427 q 338 401 294 427 q 408 331 382 376 q 434 235 434 287 l 434 191 q 408 95 434 139 q 338 25 382 50 q 242 -1 294 -1 q 146 25 190 -1 q 76 95 101 50 q 50 191 50 139 q 62 220 50 208 q 91 232 74 232 q 120 220 108 232 q 132 191 132 208 q 147 136 132 161 q 187 96 162 111 q 242 81 212 81 q 297 96 272 81 q 337 136 323 111 q 352 191 352 161 l 352 235 q 337 290 352 264 q 297 330 323 315 q 242 345 272 345 m 133 478 q 121 450 133 461 q 92 438 109 438 q 63 450 75 438 q 51 478 51 461 l 51 677 l 133 677 l 133 478 m 92 638 q 63 650 75 638 q 51 680 51 663 q 63 708 51 696 q 92 720 75 720 l 399 720 q 428 708 416 720 q 440 679 440 696 q 428 650 440 663 q 399 638 416 638 l 92 638 z "},"6":{"ha":484,"x_min":48,"x_max":433,"o":"m 240 81 q 296 96 271 81 q 336 136 321 111 q 351 191 351 161 q 336 247 351 221 q 296 287 321 272 q 240 302 270 302 q 185 287 210 302 q 145 247 159 272 q 130 191 130 221 q 145 136 130 161 q 185 96 159 111 q 240 81 210 81 m 240 -1 q 144 25 188 -1 q 74 95 99 50 q 48 191 48 139 q 74 288 48 243 q 144 358 99 332 q 240 384 188 384 q 337 358 293 384 q 407 288 381 332 q 433 191 433 243 q 407 95 433 139 q 337 25 381 50 q 240 -1 293 -1 m 277 699 q 292 714 282 708 q 312 719 301 719 q 341 707 329 719 q 353 678 353 695 q 348 658 353 667 l 242 470 q 228 455 237 460 q 207 449 218 449 q 178 461 190 449 q 166 490 166 473 q 171 510 166 501 l 277 699 z "},"7":{"ha":484,"x_min":51,"x_max":439,"o":"m 159 0 q 130 12 141 0 q 118 41 118 25 q 121 56 118 48 l 360 695 q 374 713 364 706 q 398 720 385 720 q 427 708 416 720 q 439 679 439 695 q 436 664 439 671 l 197 25 q 182 7 192 14 q 159 0 172 0 m 225 720 q 254 708 242 720 q 266 680 266 696 q 254 650 266 663 q 225 638 242 638 l 92 638 q 63 650 75 638 q 51 679 51 663 q 63 708 51 696 q 92 720 75 720 l 225 720 z "},"8":{"ha":484,"x_min":50,"x_max":433,"o":"m 351 191 q 363 220 351 208 q 392 232 375 232 q 421 220 408 232 q 433 191 433 208 q 407 94 433 138 q 337 25 381 50 q 241 -1 293 -1 q 212 11 224 -1 q 200 40 200 23 q 212 69 200 57 q 241 81 224 81 q 296 95 271 81 q 336 136 321 110 q 351 191 351 161 m 350 510 q 362 539 350 527 q 390 551 373 551 q 419 539 407 551 q 432 510 432 527 q 406 414 432 458 q 336 345 380 370 q 241 319 292 319 q 162 289 192 319 q 132 210 132 260 q 120 181 132 193 q 91 169 108 169 q 62 181 74 169 q 50 210 50 193 q 76 306 50 262 q 146 375 102 349 q 241 401 189 401 q 298 414 273 401 q 336 452 323 427 q 350 510 350 477 m 132 529 q 120 501 132 512 q 92 489 108 489 q 63 501 75 489 q 50 529 50 512 q 76 626 50 582 q 147 695 102 670 q 243 721 191 721 q 272 709 260 721 q 284 681 284 697 q 272 651 284 664 q 243 639 260 639 q 188 625 213 639 q 147 585 162 610 q 132 529 132 559 z "},"9":{"ha":484,"x_min":51,"x_max":436,"o":"m 243 419 q 299 434 273 419 q 339 474 324 449 q 354 529 354 499 q 339 584 354 559 q 299 624 324 610 q 243 639 273 639 q 188 624 213 639 q 148 584 163 610 q 133 529 133 559 q 148 474 133 499 q 188 434 163 449 q 243 419 213 419 m 243 337 q 147 363 191 337 q 77 433 102 388 q 51 529 51 477 q 77 626 51 581 q 147 695 102 670 q 243 721 191 721 q 340 695 295 721 q 410 626 384 670 q 436 529 436 581 q 410 433 436 477 q 340 363 384 388 q 243 337 295 337 m 207 21 q 192 6 201 12 q 171 1 182 1 q 142 13 154 1 q 130 42 130 25 q 136 62 130 53 l 241 251 q 256 266 246 260 q 277 272 265 272 q 306 260 294 272 q 318 230 318 247 q 312 210 318 220 l 207 21 z "}," ":{"ha":281,"x_min":0,"x_max":0,"o":""},"A":{"ha":740,"x_min":38,"x_max":703,"o":"m 116 24 q 101 7 111 13 q 78 0 91 0 q 49 12 61 0 q 38 41 38 24 q 41 58 38 51 l 167 349 q 182 366 172 360 q 204 373 192 373 q 233 361 221 373 q 245 332 245 349 q 241 315 245 322 l 116 24 m 699 58 q 703 41 703 49 q 691 12 703 24 q 662 0 678 0 q 639 6 649 0 q 624 24 630 13 l 346 662 q 342 679 342 671 q 354 708 342 696 q 383 720 366 720 q 405 714 396 720 q 420 697 415 707 l 699 58 z "},"a":{"ha":740,"x_min":38,"x_max":703,"o":"m 116 24 q 101 7 111 13 q 78 0 91 0 q 49 12 61 0 q 38 41 38 24 q 41 58 38 51 l 167 349 q 182 366 172 360 q 204 373 192 373 q 233 361 221 373 q 245 332 245 349 q 241 315 245 322 l 116 24 m 699 58 q 703 41 703 49 q 691 12 703 24 q 662 0 678 0 q 639 6 649 0 q 624 24 630 13 l 346 662 q 342 679 342 671 q 354 708 342 696 q 383 720 366 720 q 405 714 396 720 q 420 697 415 707 l 699 58 z "},"Á":{"ha":740,"x_min":38,"x_max":703,"o":"m 116 24 q 101 7 111 13 q 78 0 91 0 q 49 12 61 0 q 38 41 38 24 q 41 58 38 51 l 167 349 q 182 366 172 360 q 204 373 192 373 q 233 361 221 373 q 245 332 245 349 q 241 315 245 322 l 116 24 m 699 58 q 703 41 703 49 q 691 12 703 24 q 662 0 678 0 q 639 6 649 0 q 624 24 630 13 l 346 662 q 342 679 342 671 q 354 708 342 696 q 383 720 366 720 q 405 714 396 720 q 420 697 415 707 l 699 58 m 392 802 q 374 796 384 796 q 352 805 362 796 q 343 827 343 814 q 356 853 343 844 l 497 951 q 515 957 506 957 q 538 948 528 957 q 547 925 547 938 q 533 900 547 909 l 392 802 z "},"á":{"ha":740,"x_min":38,"x_max":703,"o":"m 116 24 q 101 7 111 13 q 78 0 91 0 q 49 12 61 0 q 38 41 38 24 q 41 58 38 51 l 167 349 q 182 366 172 360 q 204 373 192 373 q 233 361 221 373 q 245 332 245 349 q 241 315 245 322 l 116 24 m 699 58 q 703 41 703 49 q 691 12 703 24 q 662 0 678 0 q 639 6 649 0 q 624 24 630 13 l 346 662 q 342 679 342 671 q 354 708 342 696 q 383 720 366 720 q 405 714 396 720 q 420 697 415 707 l 699 58 m 392 802 q 374 796 384 796 q 352 805 362 796 q 343 827 343 814 q 356 853 343 844 l 497 951 q 515 957 506 957 q 538 948 528 957 q 547 925 547 938 q 533 900 547 909 l 392 802 z "},"Ă":{"ha":740,"x_min":38,"x_max":703,"o":"m 116 24 q 101 7 111 13 q 78 0 91 0 q 49 12 61 0 q 38 41 38 24 q 41 58 38 51 l 167 349 q 182 366 172 360 q 204 373 192 373 q 233 361 221 373 q 245 332 245 349 q 241 315 245 322 l 116 24 m 699 58 q 703 41 703 49 q 691 12 703 24 q 662 0 678 0 q 639 6 649 0 q 624 24 630 13 l 346 662 q 342 679 342 671 q 354 708 342 696 q 383 720 366 720 q 405 714 396 720 q 420 697 415 707 l 699 58 m 370 783 q 301 799 333 783 q 247 843 269 815 q 217 906 225 871 q 216 913 216 911 q 225 935 216 925 q 247 944 234 944 q 266 937 258 944 q 277 919 275 930 q 308 866 283 886 q 370 846 333 846 q 432 866 407 846 q 462 919 457 886 q 473 937 465 930 q 493 944 481 944 q 515 935 506 944 q 524 913 524 925 q 523 906 524 911 q 493 843 515 871 q 439 799 471 815 q 370 783 407 783 z "},"ă":{"ha":740,"x_min":38,"x_max":703,"o":"m 116 24 q 101 7 111 13 q 78 0 91 0 q 49 12 61 0 q 38 41 38 24 q 41 58 38 51 l 167 349 q 182 366 172 360 q 204 373 192 373 q 233 361 221 373 q 245 332 245 349 q 241 315 245 322 l 116 24 m 699 58 q 703 41 703 49 q 691 12 703 24 q 662 0 678 0 q 639 6 649 0 q 624 24 630 13 l 346 662 q 342 679 342 671 q 354 708 342 696 q 383 720 366 720 q 405 714 396 720 q 420 697 415 707 l 699 58 m 370 783 q 301 799 333 783 q 247 843 269 815 q 217 906 225 871 q 216 913 216 911 q 225 935 216 925 q 247 944 234 944 q 266 937 258 944 q 277 919 275 930 q 308 866 283 886 q 370 846 333 846 q 432 866 407 846 q 462 919 457 886 q 473 937 465 930 q 493 944 481 944 q 515 935 506 944 q 524 913 524 925 q 523 906 524 911 q 493 843 515 871 q 439 799 471 815 q 370 783 407 783 z "},"Ắ":{"ha":740,"x_min":38,"x_max":703,"o":"m 116 24 q 101 7 111 13 q 78 0 91 0 q 49 12 61 0 q 38 41 38 24 q 41 58 38 51 l 167 349 q 182 366 172 360 q 204 373 192 373 q 233 361 221 373 q 245 332 245 349 q 241 315 245 322 l 116 24 m 699 58 q 703 41 703 49 q 691 12 703 24 q 662 0 678 0 q 639 6 649 0 q 624 24 630 13 l 346 662 q 342 679 342 671 q 354 708 342 696 q 383 720 366 720 q 405 714 396 720 q 420 697 415 707 l 699 58 z "},"ắ":{"ha":740,"x_min":38,"x_max":703,"o":"m 116 24 q 101 7 111 13 q 78 0 91 0 q 49 12 61 0 q 38 41 38 24 q 41 58 38 51 l 167 349 q 182 366 172 360 q 204 373 192 373 q 233 361 221 373 q 245 332 245 349 q 241 315 245 322 l 116 24 m 699 58 q 703 41 703 49 q 691 12 703 24 q 662 0 678 0 q 639 6 649 0 q 624 24 630 13 l 346 662 q 342 679 342 671 q 354 708 342 696 q 383 720 366 720 q 405 714 396 720 q 420 697 415 707 l 699 58 z "},"Ặ":{"ha":740,"x_min":38,"x_max":703,"o":"m 116 24 q 101 7 111 13 q 78 0 91 0 q 49 12 61 0 q 38 41 38 24 q 41 58 38 51 l 167 349 q 182 366 172 360 q 204 373 192 373 q 233 361 221 373 q 245 332 245 349 q 241 315 245 322 l 116 24 m 699 58 q 703 41 703 49 q 691 12 703 24 q 662 0 678 0 q 639 6 649 0 q 624 24 630 13 l 346 662 q 342 679 342 671 q 354 708 342 696 q 383 720 366 720 q 405 714 396 720 q 420 697 415 707 l 699 58 m 370 783 q 301 799 333 783 q 247 843 269 815 q 217 906 225 871 q 216 913 216 911 q 225 935 216 925 q 247 944 234 944 q 266 937 258 944 q 277 919 275 930 q 308 866 283 886 q 370 846 333 846 q 432 866 407 846 q 462 919 457 886 q 473 937 465 930 q 493 944 481 944 q 515 935 506 944 q 524 913 524 925 q 523 906 524 911 q 493 843 515 871 q 439 799 471 815 q 370 783 407 783 m 370 -156 q 339 -144 352 -156 q 326 -113 326 -131 q 339 -82 326 -95 q 370 -69 352 -69 q 401 -82 388 -69 q 414 -113 414 -95 q 401 -144 414 -131 q 370 -156 388 -156 z "},"ặ":{"ha":740,"x_min":38,"x_max":703,"o":"m 116 24 q 101 7 111 13 q 78 0 91 0 q 49 12 61 0 q 38 41 38 24 q 41 58 38 51 l 167 349 q 182 366 172 360 q 204 373 192 373 q 233 361 221 373 q 245 332 245 349 q 241 315 245 322 l 116 24 m 699 58 q 703 41 703 49 q 691 12 703 24 q 662 0 678 0 q 639 6 649 0 q 624 24 630 13 l 346 662 q 342 679 342 671 q 354 708 342 696 q 383 720 366 720 q 405 714 396 720 q 420 697 415 707 l 699 58 m 370 783 q 301 799 333 783 q 247 843 269 815 q 217 906 225 871 q 216 913 216 911 q 225 935 216 925 q 247 944 234 944 q 266 937 258 944 q 277 919 275 930 q 308 866 283 886 q 370 846 333 846 q 432 866 407 846 q 462 919 457 886 q 473 937 465 930 q 493 944 481 944 q 515 935 506 944 q 524 913 524 925 q 523 906 524 911 q 493 843 515 871 q 439 799 471 815 q 370 783 407 783 m 370 -156 q 339 -144 352 -156 q 326 -113 326 -131 q 339 -82 326 -95 q 370 -69 352 -69 q 401 -82 388 -69 q 414 -113 414 -95 q 401 -144 414 -131 q 370 -156 388 -156 z "},"Ằ":{"ha":740,"x_min":38,"x_max":703,"o":"m 116 24 q 101 7 111 13 q 78 0 91 0 q 49 12 61 0 q 38 41 38 24 q 41 58 38 51 l 167 349 q 182 366 172 360 q 204 373 192 373 q 233 361 221 373 q 245 332 245 349 q 241 315 245 322 l 116 24 m 699 58 q 703 41 703 49 q 691 12 703 24 q 662 0 678 0 q 639 6 649 0 q 624 24 630 13 l 346 662 q 342 679 342 671 q 354 708 342 696 q 383 720 366 720 q 405 714 396 720 q 420 697 415 707 l 699 58 z "},"ằ":{"ha":740,"x_min":38,"x_max":703,"o":"m 116 24 q 101 7 111 13 q 78 0 91 0 q 49 12 61 0 q 38 41 38 24 q 41 58 38 51 l 167 349 q 182 366 172 360 q 204 373 192 373 q 233 361 221 373 q 245 332 245 349 q 241 315 245 322 l 116 24 m 699 58 q 703 41 703 49 q 691 12 703 24 q 662 0 678 0 q 639 6 649 0 q 624 24 630 13 l 346 662 q 342 679 342 671 q 354 708 342 696 q 383 720 366 720 q 405 714 396 720 q 420 697 415 707 l 699 58 z "},"Ẳ":{"ha":740,"x_min":38,"x_max":703,"o":"m 116 24 q 101 7 111 13 q 78 0 91 0 q 49 12 61 0 q 38 41 38 24 q 41 58 38 51 l 167 349 q 182 366 172 360 q 204 373 192 373 q 233 361 221 373 q 245 332 245 349 q 241 315 245 322 l 116 24 m 699 58 q 703 41 703 49 q 691 12 703 24 q 662 0 678 0 q 639 6 649 0 q 624 24 630 13 l 346 662 q 342 679 342 671 q 354 708 342 696 q 383 720 366 720 q 405 714 396 720 q 420 697 415 707 l 699 58 z "},"ẳ":{"ha":740,"x_min":38,"x_max":703,"o":"m 116 24 q 101 7 111 13 q 78 0 91 0 q 49 12 61 0 q 38 41 38 24 q 41 58 38 51 l 167 349 q 182 366 172 360 q 204 373 192 373 q 233 361 221 373 q 245 332 245 349 q 241 315 245 322 l 116 24 m 699 58 q 703 41 703 49 q 691 12 703 24 q 662 0 678 0 q 639 6 649 0 q 624 24 630 13 l 346 662 q 342 679 342 671 q 354 708 342 696 q 383 720 366 720 q 405 714 396 720 q 420 697 415 707 l 699 58 z "},"Ẵ":{"ha":740,"x_min":38,"x_max":703,"o":"m 116 24 q 101 7 111 13 q 78 0 91 0 q 49 12 61 0 q 38 41 38 24 q 41 58 38 51 l 167 349 q 182 366 172 360 q 204 373 192 373 q 233 361 221 373 q 245 332 245 349 q 241 315 245 322 l 116 24 m 699 58 q 703 41 703 49 q 691 12 703 24 q 662 0 678 0 q 639 6 649 0 q 624 24 630 13 l 346 662 q 342 679 342 671 q 354 708 342 696 q 383 720 366 720 q 405 714 396 720 q 420 697 415 707 l 699 58 z "},"ẵ":{"ha":740,"x_min":38,"x_max":703,"o":"m 116 24 q 101 7 111 13 q 78 0 91 0 q 49 12 61 0 q 38 41 38 24 q 41 58 38 51 l 167 349 q 182 366 172 360 q 204 373 192 373 q 233 361 221 373 q 245 332 245 349 q 241 315 245 322 l 116 24 m 699 58 q 703 41 703 49 q 691 12 703 24 q 662 0 678 0 q 639 6 649 0 q 624 24 630 13 l 346 662 q 342 679 342 671 q 354 708 342 696 q 383 720 366 720 q 405 714 396 720 q 420 697 415 707 l 699 58 z "},"Ǎ":{"ha":740,"x_min":38,"x_max":703,"o":"m 116 24 q 101 7 111 13 q 78 0 91 0 q 49 12 61 0 q 38 41 38 24 q 41 58 38 51 l 167 349 q 182 366 172 360 q 204 373 192 373 q 233 361 221 373 q 245 332 245 349 q 241 315 245 322 l 116 24 m 699 58 q 703 41 703 49 q 691 12 703 24 q 662 0 678 0 q 639 6 649 0 q 624 24 630 13 l 346 662 q 342 679 342 671 q 354 708 342 696 q 383 720 366 720 q 405 714 396 720 q 420 697 415 707 l 699 58 m 242 899 q 231 923 231 909 q 240 945 231 936 q 262 954 249 954 q 283 947 274 954 l 390 853 q 401 830 401 844 q 392 808 401 817 q 370 798 383 798 q 349 806 358 798 l 242 899 m 457 947 q 477 954 466 954 q 499 945 490 954 q 509 923 509 936 q 498 899 509 909 l 391 806 l 350 853 l 457 947 z "},"ǎ":{"ha":740,"x_min":38,"x_max":703,"o":"m 116 24 q 101 7 111 13 q 78 0 91 0 q 49 12 61 0 q 38 41 38 24 q 41 58 38 51 l 167 349 q 182 366 172 360 q 204 373 192 373 q 233 361 221 373 q 245 332 245 349 q 241 315 245 322 l 116 24 m 699 58 q 703 41 703 49 q 691 12 703 24 q 662 0 678 0 q 639 6 649 0 q 624 24 630 13 l 346 662 q 342 679 342 671 q 354 708 342 696 q 383 720 366 720 q 405 714 396 720 q 420 697 415 707 l 699 58 m 242 899 q 231 923 231 909 q 240 945 231 936 q 262 954 249 954 q 283 947 274 954 l 390 853 q 401 830 401 844 q 392 808 401 817 q 370 798 383 798 q 349 806 358 798 l 242 899 m 457 947 q 477 954 466 954 q 499 945 490 954 q 509 923 509 936 q 498 899 509 909 l 391 806 l 350 853 l 457 947 z "},"Â":{"ha":740,"x_min":38,"x_max":703,"o":"m 116 24 q 101 7 111 13 q 78 0 91 0 q 49 12 61 0 q 38 41 38 24 q 41 58 38 51 l 167 349 q 182 366 172 360 q 204 373 192 373 q 233 361 221 373 q 245 332 245 349 q 241 315 245 322 l 116 24 m 699 58 q 703 41 703 49 q 691 12 703 24 q 662 0 678 0 q 639 6 649 0 q 624 24 630 13 l 346 662 q 342 679 342 671 q 354 708 342 696 q 383 720 366 720 q 405 714 396 720 q 420 697 415 707 l 699 58 m 349 947 q 370 954 358 954 q 392 945 383 954 q 401 923 401 936 q 390 899 401 909 l 283 806 q 262 798 274 798 q 240 808 249 798 q 231 830 231 817 q 242 853 231 844 l 349 947 m 391 947 l 498 853 q 509 830 509 844 q 499 808 509 817 q 477 798 490 798 q 457 806 466 798 l 350 899 l 391 947 z "},"â":{"ha":740,"x_min":38,"x_max":703,"o":"m 116 24 q 101 7 111 13 q 78 0 91 0 q 49 12 61 0 q 38 41 38 24 q 41 58 38 51 l 167 349 q 182 366 172 360 q 204 373 192 373 q 233 361 221 373 q 245 332 245 349 q 241 315 245 322 l 116 24 m 699 58 q 703 41 703 49 q 691 12 703 24 q 662 0 678 0 q 639 6 649 0 q 624 24 630 13 l 346 662 q 342 679 342 671 q 354 708 342 696 q 383 720 366 720 q 405 714 396 720 q 420 697 415 707 l 699 58 m 349 947 q 370 954 358 954 q 392 945 383 954 q 401 923 401 936 q 390 899 401 909 l 283 806 q 262 798 274 798 q 240 808 249 798 q 231 830 231 817 q 242 853 231 844 l 349 947 m 391 947 l 498 853 q 509 830 509 844 q 499 808 509 817 q 477 798 490 798 q 457 806 466 798 l 350 899 l 391 947 z "},"Ấ":{"ha":740,"x_min":38,"x_max":703,"o":"m 116 24 q 101 7 111 13 q 78 0 91 0 q 49 12 61 0 q 38 41 38 24 q 41 58 38 51 l 167 349 q 182 366 172 360 q 204 373 192 373 q 233 361 221 373 q 245 332 245 349 q 241 315 245 322 l 116 24 m 699 58 q 703 41 703 49 q 691 12 703 24 q 662 0 678 0 q 639 6 649 0 q 624 24 630 13 l 346 662 q 342 679 342 671 q 354 708 342 696 q 383 720 366 720 q 405 714 396 720 q 420 697 415 707 l 699 58 z "},"ấ":{"ha":740,"x_min":38,"x_max":703,"o":"m 116 24 q 101 7 111 13 q 78 0 91 0 q 49 12 61 0 q 38 41 38 24 q 41 58 38 51 l 167 349 q 182 366 172 360 q 204 373 192 373 q 233 361 221 373 q 245 332 245 349 q 241 315 245 322 l 116 24 m 699 58 q 703 41 703 49 q 691 12 703 24 q 662 0 678 0 q 639 6 649 0 q 624 24 630 13 l 346 662 q 342 679 342 671 q 354 708 342 696 q 383 720 366 720 q 405 714 396 720 q 420 697 415 707 l 699 58 z "},"Ậ":{"ha":740,"x_min":38,"x_max":703,"o":"m 116 24 q 101 7 111 13 q 78 0 91 0 q 49 12 61 0 q 38 41 38 24 q 41 58 38 51 l 167 349 q 182 366 172 360 q 204 373 192 373 q 233 361 221 373 q 245 332 245 349 q 241 315 245 322 l 116 24 m 699 58 q 703 41 703 49 q 691 12 703 24 q 662 0 678 0 q 639 6 649 0 q 624 24 630 13 l 346 662 q 342 679 342 671 q 354 708 342 696 q 383 720 366 720 q 405 714 396 720 q 420 697 415 707 l 699 58 m 370 -156 q 339 -144 352 -156 q 326 -113 326 -131 q 339 -82 326 -95 q 370 -69 352 -69 q 401 -82 388 -69 q 414 -113 414 -95 q 401 -144 414 -131 q 370 -156 388 -156 m 349 947 q 370 954 358 954 q 392 945 383 954 q 401 923 401 936 q 390 899 401 909 l 283 806 q 262 798 274 798 q 240 808 249 798 q 231 830 231 817 q 242 853 231 844 l 349 947 m 391 947 l 498 853 q 509 830 509 844 q 499 808 509 817 q 477 798 490 798 q 457 806 466 798 l 350 899 l 391 947 z "},"ậ":{"ha":740,"x_min":38,"x_max":703,"o":"m 116 24 q 101 7 111 13 q 78 0 91 0 q 49 12 61 0 q 38 41 38 24 q 41 58 38 51 l 167 349 q 182 366 172 360 q 204 373 192 373 q 233 361 221 373 q 245 332 245 349 q 241 315 245 322 l 116 24 m 699 58 q 703 41 703 49 q 691 12 703 24 q 662 0 678 0 q 639 6 649 0 q 624 24 630 13 l 346 662 q 342 679 342 671 q 354 708 342 696 q 383 720 366 720 q 405 714 396 720 q 420 697 415 707 l 699 58 m 370 -156 q 339 -144 352 -156 q 326 -113 326 -131 q 339 -82 326 -95 q 370 -69 352 -69 q 401 -82 388 -69 q 414 -113 414 -95 q 401 -144 414 -131 q 370 -156 388 -156 m 349 947 q 370 954 358 954 q 392 945 383 954 q 401 923 401 936 q 390 899 401 909 l 283 806 q 262 798 274 798 q 240 808 249 798 q 231 830 231 817 q 242 853 231 844 l 349 947 m 391 947 l 498 853 q 509 830 509 844 q 499 808 509 817 q 477 798 490 798 q 457 806 466 798 l 350 899 l 391 947 z "},"Ầ":{"ha":740,"x_min":38,"x_max":703,"o":"m 116 24 q 101 7 111 13 q 78 0 91 0 q 49 12 61 0 q 38 41 38 24 q 41 58 38 51 l 167 349 q 182 366 172 360 q 204 373 192 373 q 233 361 221 373 q 245 332 245 349 q 241 315 245 322 l 116 24 m 699 58 q 703 41 703 49 q 691 12 703 24 q 662 0 678 0 q 639 6 649 0 q 624 24 630 13 l 346 662 q 342 679 342 671 q 354 708 342 696 q 383 720 366 720 q 405 714 396 720 q 420 697 415 707 l 699 58 z "},"ầ":{"ha":740,"x_min":38,"x_max":703,"o":"m 116 24 q 101 7 111 13 q 78 0 91 0 q 49 12 61 0 q 38 41 38 24 q 41 58 38 51 l 167 349 q 182 366 172 360 q 204 373 192 373 q 233 361 221 373 q 245 332 245 349 q 241 315 245 322 l 116 24 m 699 58 q 703 41 703 49 q 691 12 703 24 q 662 0 678 0 q 639 6 649 0 q 624 24 630 13 l 346 662 q 342 679 342 671 q 354 708 342 696 q 383 720 366 720 q 405 714 396 720 q 420 697 415 707 l 699 58 z "},"Ẩ":{"ha":740,"x_min":38,"x_max":703,"o":"m 116 24 q 101 7 111 13 q 78 0 91 0 q 49 12 61 0 q 38 41 38 24 q 41 58 38 51 l 167 349 q 182 366 172 360 q 204 373 192 373 q 233 361 221 373 q 245 332 245 349 q 241 315 245 322 l 116 24 m 699 58 q 703 41 703 49 q 691 12 703 24 q 662 0 678 0 q 639 6 649 0 q 624 24 630 13 l 346 662 q 342 679 342 671 q 354 708 342 696 q 383 720 366 720 q 405 714 396 720 q 420 697 415 707 l 699 58 z "},"ẩ":{"ha":740,"x_min":38,"x_max":703,"o":"m 116 24 q 101 7 111 13 q 78 0 91 0 q 49 12 61 0 q 38 41 38 24 q 41 58 38 51 l 167 349 q 182 366 172 360 q 204 373 192 373 q 233 361 221 373 q 245 332 245 349 q 241 315 245 322 l 116 24 m 699 58 q 703 41 703 49 q 691 12 703 24 q 662 0 678 0 q 639 6 649 0 q 624 24 630 13 l 346 662 q 342 679 342 671 q 354 708 342 696 q 383 720 366 720 q 405 714 396 720 q 420 697 415 707 l 699 58 z "},"Ẫ":{"ha":740,"x_min":38,"x_max":703,"o":"m 116 24 q 101 7 111 13 q 78 0 91 0 q 49 12 61 0 q 38 41 38 24 q 41 58 38 51 l 167 349 q 182 366 172 360 q 204 373 192 373 q 233 361 221 373 q 245 332 245 349 q 241 315 245 322 l 116 24 m 699 58 q 703 41 703 49 q 691 12 703 24 q 662 0 678 0 q 639 6 649 0 q 624 24 630 13 l 346 662 q 342 679 342 671 q 354 708 342 696 q 383 720 366 720 q 405 714 396 720 q 420 697 415 707 l 699 58 z "},"ẫ":{"ha":740,"x_min":38,"x_max":703,"o":"m 116 24 q 101 7 111 13 q 78 0 91 0 q 49 12 61 0 q 38 41 38 24 q 41 58 38 51 l 167 349 q 182 366 172 360 q 204 373 192 373 q 233 361 221 373 q 245 332 245 349 q 241 315 245 322 l 116 24 m 699 58 q 703 41 703 49 q 691 12 703 24 q 662 0 678 0 q 639 6 649 0 q 624 24 630 13 l 346 662 q 342 679 342 671 q 354 708 342 696 q 383 720 366 720 q 405 714 396 720 q 420 697 415 707 l 699 58 z "},"Ä":{"ha":740,"x_min":38,"x_max":703,"o":"m 116 24 q 101 7 111 13 q 78 0 91 0 q 49 12 61 0 q 38 41 38 24 q 41 58 38 51 l 167 349 q 182 366 172 360 q 204 373 192 373 q 233 361 221 373 q 245 332 245 349 q 241 315 245 322 l 116 24 m 699 58 q 703 41 703 49 q 691 12 703 24 q 662 0 678 0 q 639 6 649 0 q 624 24 630 13 l 346 662 q 342 679 342 671 q 354 708 342 696 q 383 720 366 720 q 405 714 396 720 q 420 697 415 707 l 699 58 m 464 813 q 433 826 446 813 q 420 857 420 839 q 433 888 420 875 q 464 901 446 901 q 495 888 482 901 q 508 857 508 875 q 495 826 508 840 q 464 813 482 813 m 276 813 q 245 826 258 813 q 232 857 232 839 q 245 888 232 875 q 276 901 258 901 q 307 888 294 901 q 320 857 320 875 q 307 826 320 840 q 276 813 294 813 z "},"ä":{"ha":740,"x_min":38,"x_max":703,"o":"m 116 24 q 101 7 111 13 q 78 0 91 0 q 49 12 61 0 q 38 41 38 24 q 41 58 38 51 l 167 349 q 182 366 172 360 q 204 373 192 373 q 233 361 221 373 q 245 332 245 349 q 241 315 245 322 l 116 24 m 699 58 q 703 41 703 49 q 691 12 703 24 q 662 0 678 0 q 639 6 649 0 q 624 24 630 13 l 346 662 q 342 679 342 671 q 354 708 342 696 q 383 720 366 720 q 405 714 396 720 q 420 697 415 707 l 699 58 m 464 813 q 433 826 446 813 q 420 857 420 839 q 433 888 420 875 q 464 901 446 901 q 495 888 482 901 q 508 857 508 875 q 495 826 508 840 q 464 813 482 813 m 276 813 q 245 826 258 813 q 232 857 232 839 q 245 888 232 875 q 276 901 258 901 q 307 888 294 901 q 320 857 320 875 q 307 826 320 840 q 276 813 294 813 z "},"Ạ":{"ha":740,"x_min":38,"x_max":703,"o":"m 116 24 q 101 7 111 13 q 78 0 91 0 q 49 12 61 0 q 38 41 38 24 q 41 58 38 51 l 167 349 q 182 366 172 360 q 204 373 192 373 q 233 361 221 373 q 245 332 245 349 q 241 315 245 322 l 116 24 m 699 58 q 703 41 703 49 q 691 12 703 24 q 662 0 678 0 q 639 6 649 0 q 624 24 630 13 l 346 662 q 342 679 342 671 q 354 708 342 696 q 383 720 366 720 q 405 714 396 720 q 420 697 415 707 l 699 58 m 370 -156 q 339 -144 352 -156 q 326 -113 326 -131 q 339 -82 326 -95 q 370 -69 352 -69 q 401 -82 388 -69 q 414 -113 414 -95 q 401 -144 414 -131 q 370 -156 388 -156 z "},"ạ":{"ha":740,"x_min":38,"x_max":703,"o":"m 116 24 q 101 7 111 13 q 78 0 91 0 q 49 12 61 0 q 38 41 38 24 q 41 58 38 51 l 167 349 q 182 366 172 360 q 204 373 192 373 q 233 361 221 373 q 245 332 245 349 q 241 315 245 322 l 116 24 m 699 58 q 703 41 703 49 q 691 12 703 24 q 662 0 678 0 q 639 6 649 0 q 624 24 630 13 l 346 662 q 342 679 342 671 q 354 708 342 696 q 383 720 366 720 q 405 714 396 720 q 420 697 415 707 l 699 58 m 370 -156 q 339 -144 352 -156 q 326 -113 326 -131 q 339 -82 326 -95 q 370 -69 352 -69 q 401 -82 388 -69 q 414 -113 414 -95 q 401 -144 414 -131 q 370 -156 388 -156 z "},"À":{"ha":740,"x_min":38,"x_max":703,"o":"m 116 24 q 101 7 111 13 q 78 0 91 0 q 49 12 61 0 q 38 41 38 24 q 41 58 38 51 l 167 349 q 182 366 172 360 q 204 373 192 373 q 233 361 221 373 q 245 332 245 349 q 241 315 245 322 l 116 24 m 699 58 q 703 41 703 49 q 691 12 703 24 q 662 0 678 0 q 639 6 649 0 q 624 24 630 13 l 346 662 q 342 679 342 671 q 354 708 342 696 q 383 720 366 720 q 405 714 396 720 q 420 697 415 707 l 699 58 m 206 900 q 193 925 193 909 q 202 948 193 938 q 224 957 211 957 q 242 951 234 957 l 383 853 q 397 827 397 844 q 387 805 397 814 q 365 796 378 796 q 347 802 356 796 l 206 900 z "},"à":{"ha":740,"x_min":38,"x_max":703,"o":"m 116 24 q 101 7 111 13 q 78 0 91 0 q 49 12 61 0 q 38 41 38 24 q 41 58 38 51 l 167 349 q 182 366 172 360 q 204 373 192 373 q 233 361 221 373 q 245 332 245 349 q 241 315 245 322 l 116 24 m 699 58 q 703 41 703 49 q 691 12 703 24 q 662 0 678 0 q 639 6 649 0 q 624 24 630 13 l 346 662 q 342 679 342 671 q 354 708 342 696 q 383 720 366 720 q 405 714 396 720 q 420 697 415 707 l 699 58 m 206 900 q 193 925 193 909 q 202 948 193 938 q 224 957 211 957 q 242 951 234 957 l 383 853 q 397 827 397 844 q 387 805 397 814 q 365 796 378 796 q 347 802 356 796 l 206 900 z "},"Ả":{"ha":740,"x_min":38,"x_max":703,"o":"m 116 24 q 101 7 111 13 q 78 0 91 0 q 49 12 61 0 q 38 41 38 24 q 41 58 38 51 l 167 349 q 182 366 172 360 q 204 373 192 373 q 233 361 221 373 q 245 332 245 349 q 241 315 245 322 l 116 24 m 699 58 q 703 41 703 49 q 691 12 703 24 q 662 0 678 0 q 639 6 649 0 q 624 24 630 13 l 346 662 q 342 679 342 671 q 354 708 342 696 q 383 720 366 720 q 405 714 396 720 q 420 697 415 707 l 699 58 m 343 917 q 323 925 331 917 q 315 944 315 933 q 323 965 315 956 q 343 973 331 973 q 392 960 369 973 q 427 924 414 947 q 440 876 440 902 q 427 826 440 849 q 392 791 414 804 q 343 778 369 778 q 323 786 331 778 q 315 806 315 794 q 323 826 315 818 q 343 834 331 834 q 372 846 360 834 q 384 876 384 858 q 372 905 384 892 q 343 917 360 917 z "},"ả":{"ha":740,"x_min":38,"x_max":703,"o":"m 116 24 q 101 7 111 13 q 78 0 91 0 q 49 12 61 0 q 38 41 38 24 q 41 58 38 51 l 167 349 q 182 366 172 360 q 204 373 192 373 q 233 361 221 373 q 245 332 245 349 q 241 315 245 322 l 116 24 m 699 58 q 703 41 703 49 q 691 12 703 24 q 662 0 678 0 q 639 6 649 0 q 624 24 630 13 l 346 662 q 342 679 342 671 q 354 708 342 696 q 383 720 366 720 q 405 714 396 720 q 420 697 415 707 l 699 58 m 343 917 q 323 925 331 917 q 315 944 315 933 q 323 965 315 956 q 343 973 331 973 q 392 960 369 973 q 427 924 414 947 q 440 876 440 902 q 427 826 440 849 q 392 791 414 804 q 343 778 369 778 q 323 786 331 778 q 315 806 315 794 q 323 826 315 818 q 343 834 331 834 q 372 846 360 834 q 384 876 384 858 q 372 905 384 892 q 343 917 360 917 z "},"Ā":{"ha":740,"x_min":38,"x_max":703,"o":"m 116 24 q 101 7 111 13 q 78 0 91 0 q 49 12 61 0 q 38 41 38 24 q 41 58 38 51 l 167 349 q 182 366 172 360 q 204 373 192 373 q 233 361 221 373 q 245 332 245 349 q 241 315 245 322 l 116 24 m 699 58 q 703 41 703 49 q 691 12 703 24 q 662 0 678 0 q 639 6 649 0 q 624 24 630 13 l 346 662 q 342 679 342 671 q 354 708 342 696 q 383 720 366 720 q 405 714 396 720 q 420 697 415 707 l 699 58 m 256 829 q 233 838 242 829 q 224 860 224 847 q 233 882 224 873 q 256 891 242 891 l 484 891 q 506 882 497 891 q 515 860 515 873 q 506 838 515 847 q 484 829 497 829 l 256 829 z "},"ā":{"ha":740,"x_min":38,"x_max":703,"o":"m 116 24 q 101 7 111 13 q 78 0 91 0 q 49 12 61 0 q 38 41 38 24 q 41 58 38 51 l 167 349 q 182 366 172 360 q 204 373 192 373 q 233 361 221 373 q 245 332 245 349 q 241 315 245 322 l 116 24 m 699 58 q 703 41 703 49 q 691 12 703 24 q 662 0 678 0 q 639 6 649 0 q 624 24 630 13 l 346 662 q 342 679 342 671 q 354 708 342 696 q 383 720 366 720 q 405 714 396 720 q 420 697 415 707 l 699 58 m 256 829 q 233 838 242 829 q 224 860 224 847 q 233 882 224 873 q 256 891 242 891 l 484 891 q 506 882 497 891 q 515 860 515 873 q 506 838 515 847 q 484 829 497 829 l 256 829 z "},"Ą":{"ha":740,"x_min":38,"x_max":703,"o":"m 116 24 q 101 7 111 13 q 78 0 91 0 q 49 12 61 0 q 38 41 38 24 q 41 58 38 51 l 167 349 q 182 366 172 360 q 204 373 192 373 q 233 361 221 373 q 245 332 245 349 q 241 315 245 322 l 116 24 m 699 58 q 703 41 703 49 q 691 12 703 24 q 662 0 678 0 q 639 6 649 0 q 624 24 630 13 l 346 662 q 342 679 342 671 q 354 708 342 696 q 383 720 366 720 q 405 714 396 720 q 420 697 415 707 l 699 58 m 600 -156 q 575 -145 584 -156 q 565 -120 565 -134 q 568 -106 565 -113 l 635 54 q 648 69 639 63 q 667 75 656 75 q 693 64 684 75 q 702 39 702 53 q 700 25 702 32 l 633 -135 q 620 -150 629 -145 q 600 -156 611 -156 z "},"ą":{"ha":740,"x_min":38,"x_max":703,"o":"m 116 24 q 101 7 111 13 q 78 0 91 0 q 49 12 61 0 q 38 41 38 24 q 41 58 38 51 l 167 349 q 182 366 172 360 q 204 373 192 373 q 233 361 221 373 q 245 332 245 349 q 241 315 245 322 l 116 24 m 699 58 q 703 41 703 49 q 691 12 703 24 q 662 0 678 0 q 639 6 649 0 q 624 24 630 13 l 346 662 q 342 679 342 671 q 354 708 342 696 q 383 720 366 720 q 405 714 396 720 q 420 697 415 707 l 699 58 m 600 -156 q 575 -145 584 -156 q 565 -120 565 -134 q 568 -106 565 -113 l 635 54 q 648 69 639 63 q 667 75 656 75 q 693 64 684 75 q 702 39 702 53 q 700 25 702 32 l 633 -135 q 620 -150 629 -145 q 600 -156 611 -156 z "},"Å":{"ha":740,"x_min":38,"x_max":703,"o":"m 116 24 q 101 7 111 13 q 78 0 91 0 q 49 12 61 0 q 38 41 38 24 q 41 58 38 51 l 167 349 q 182 366 172 360 q 204 373 192 373 q 233 361 221 373 q 245 332 245 349 q 241 315 245 322 l 116 24 m 699 58 q 703 41 703 49 q 691 12 703 24 q 662 0 678 0 q 639 6 649 0 q 624 24 630 13 l 346 662 q 342 679 342 671 q 354 708 342 696 q 383 720 366 720 q 405 714 396 720 q 420 697 415 707 l 699 58 m 370 834 q 399 846 387 834 q 412 876 412 858 q 399 905 412 892 q 370 917 387 917 q 340 905 352 917 q 328 876 328 892 q 340 846 328 858 q 370 834 352 834 m 370 778 q 321 791 343 778 q 285 826 298 804 q 272 876 272 849 q 285 924 272 902 q 321 960 298 947 q 370 973 343 973 q 419 960 397 973 q 454 924 441 947 q 468 876 468 902 q 454 826 468 849 q 419 791 441 804 q 370 778 397 778 z "},"å":{"ha":740,"x_min":38,"x_max":703,"o":"m 116 24 q 101 7 111 13 q 78 0 91 0 q 49 12 61 0 q 38 41 38 24 q 41 58 38 51 l 167 349 q 182 366 172 360 q 204 373 192 373 q 233 361 221 373 q 245 332 245 349 q 241 315 245 322 l 116 24 m 699 58 q 703 41 703 49 q 691 12 703 24 q 662 0 678 0 q 639 6 649 0 q 624 24 630 13 l 346 662 q 342 679 342 671 q 354 708 342 696 q 383 720 366 720 q 405 714 396 720 q 420 697 415 707 l 699 58 m 370 834 q 399 846 387 834 q 412 876 412 858 q 399 905 412 892 q 370 917 387 917 q 340 905 352 917 q 328 876 328 892 q 340 846 328 858 q 370 834 352 834 m 370 778 q 321 791 343 778 q 285 826 298 804 q 272 876 272 849 q 285 924 272 902 q 321 960 298 947 q 370 973 343 973 q 419 960 397 973 q 454 924 441 947 q 468 876 468 902 q 454 826 468 849 q 419 791 441 804 q 370 778 397 778 z "},"Ã":{"ha":740,"x_min":38,"x_max":703,"o":"m 116 24 q 101 7 111 13 q 78 0 91 0 q 49 12 61 0 q 38 41 38 24 q 41 58 38 51 l 167 349 q 182 366 172 360 q 204 373 192 373 q 233 361 221 373 q 245 332 245 349 q 241 315 245 322 l 116 24 m 699 58 q 703 41 703 49 q 691 12 703 24 q 662 0 678 0 q 639 6 649 0 q 624 24 630 13 l 346 662 q 342 679 342 671 q 354 708 342 696 q 383 720 366 720 q 405 714 396 720 q 420 697 415 707 l 699 58 m 462 894 q 474 908 466 903 q 491 914 481 914 q 514 905 505 914 q 523 882 523 896 q 520 870 523 877 q 484 824 508 841 q 431 808 460 808 q 349 841 388 808 q 308 862 325 862 q 277 834 289 862 q 266 820 274 826 q 248 815 258 815 q 226 824 235 815 q 217 846 217 833 q 220 858 217 852 q 256 904 232 888 q 309 921 280 921 q 390 888 352 921 q 432 867 416 867 q 462 894 451 867 z "},"ã":{"ha":740,"x_min":38,"x_max":703,"o":"m 116 24 q 101 7 111 13 q 78 0 91 0 q 49 12 61 0 q 38 41 38 24 q 41 58 38 51 l 167 349 q 182 366 172 360 q 204 373 192 373 q 233 361 221 373 q 245 332 245 349 q 241 315 245 322 l 116 24 m 699 58 q 703 41 703 49 q 691 12 703 24 q 662 0 678 0 q 639 6 649 0 q 624 24 630 13 l 346 662 q 342 679 342 671 q 354 708 342 696 q 383 720 366 720 q 405 714 396 720 q 420 697 415 707 l 699 58 m 462 894 q 474 908 466 903 q 491 914 481 914 q 514 905 505 914 q 523 882 523 896 q 520 870 523 877 q 484 824 508 841 q 431 808 460 808 q 349 841 388 808 q 308 862 325 862 q 277 834 289 862 q 266 820 274 826 q 248 815 258 815 q 226 824 235 815 q 217 846 217 833 q 220 858 217 852 q 256 904 232 888 q 309 921 280 921 q 390 888 352 921 q 432 867 416 867 q 462 894 451 867 z "},"Æ":{"ha":893,"x_min":38,"x_max":849,"o":"m 116 25 q 101 8 111 14 q 79 1 91 1 q 50 13 62 1 q 38 42 38 25 q 42 59 38 52 l 316 695 q 332 712 322 706 q 354 719 342 719 q 383 707 371 719 q 395 678 395 695 q 391 661 395 668 l 116 25 m 808 82 q 837 70 825 82 q 849 41 849 58 q 837 12 849 24 q 808 1 825 1 l 473 1 q 444 12 456 1 q 433 41 433 24 q 444 70 433 58 q 473 82 456 82 l 808 82 m 433 40 l 433 363 q 444 392 433 380 q 473 404 456 404 q 502 392 490 404 q 514 363 514 380 l 514 40 l 433 40 m 652 319 q 623 331 635 319 q 611 360 611 343 q 623 389 611 377 q 652 401 635 401 l 808 401 q 837 389 825 401 q 849 360 849 377 q 837 331 849 343 q 808 319 825 319 l 652 319 m 355 639 q 326 651 338 639 q 314 680 314 663 q 326 709 314 697 q 355 721 338 721 l 808 720 q 837 708 825 720 q 849 680 849 697 q 837 650 849 663 q 808 638 825 638 l 355 639 z "},"æ":{"ha":893,"x_min":38,"x_max":849,"o":"m 116 25 q 101 8 111 14 q 79 1 91 1 q 50 13 62 1 q 38 42 38 25 q 42 59 38 52 l 316 695 q 332 712 322 706 q 354 719 342 719 q 383 707 371 719 q 395 678 395 695 q 391 661 395 668 l 116 25 m 808 82 q 837 70 825 82 q 849 41 849 58 q 837 12 849 24 q 808 1 825 1 l 473 1 q 444 12 456 1 q 433 41 433 24 q 444 70 433 58 q 473 82 456 82 l 808 82 m 433 40 l 433 363 q 444 392 433 380 q 473 404 456 404 q 502 392 490 404 q 514 363 514 380 l 514 40 l 433 40 m 652 319 q 623 331 635 319 q 611 360 611 343 q 623 389 611 377 q 652 401 635 401 l 808 401 q 837 389 825 401 q 849 360 849 377 q 837 331 849 343 q 808 319 825 319 l 652 319 m 355 639 q 326 651 338 639 q 314 680 314 663 q 326 709 314 697 q 355 721 338 721 l 808 720 q 837 708 825 720 q 849 680 849 697 q 837 650 849 663 q 808 638 825 638 l 355 639 z "},"B":{"ha":642,"x_min":52,"x_max":616,"o":"m 134 41 q 122 12 134 24 q 94 0 110 0 q 65 12 77 0 q 52 41 52 24 l 52 469 q 65 498 52 486 q 93 510 77 510 q 122 498 110 510 q 134 469 134 486 l 134 41 m 328 401 l 416 401 q 516 374 470 401 q 589 301 562 347 q 616 201 616 255 q 589 100 616 146 q 516 27 562 54 q 416 0 470 0 l 324 0 q 295 12 307 0 q 283 41 283 24 q 295 70 283 58 q 324 82 307 82 l 416 82 q 475 98 448 82 q 519 141 503 114 q 534 201 534 168 q 519 260 534 233 q 475 303 503 288 q 416 319 448 319 l 328 319 l 328 401 m 276 319 q 247 332 259 319 q 235 360 235 344 q 247 389 235 377 q 276 401 259 401 l 366 401 q 426 417 399 401 q 469 460 453 433 q 485 520 485 487 q 469 579 485 552 q 426 622 453 606 q 366 638 399 638 l 94 638 q 65 650 77 638 q 53 680 53 663 q 65 708 53 696 q 94 720 77 720 l 366 720 q 467 693 421 720 q 540 620 513 666 q 567 520 567 574 q 540 419 567 465 q 467 346 513 373 q 366 319 421 319 l 276 319 z "},"b":{"ha":642,"x_min":52,"x_max":616,"o":"m 134 41 q 122 12 134 24 q 94 0 110 0 q 65 12 77 0 q 52 41 52 24 l 52 469 q 65 498 52 486 q 93 510 77 510 q 122 498 110 510 q 134 469 134 486 l 134 41 m 328 401 l 416 401 q 516 374 470 401 q 589 301 562 347 q 616 201 616 255 q 589 100 616 146 q 516 27 562 54 q 416 0 470 0 l 324 0 q 295 12 307 0 q 283 41 283 24 q 295 70 283 58 q 324 82 307 82 l 416 82 q 475 98 448 82 q 519 141 503 114 q 534 201 534 168 q 519 260 534 233 q 475 303 503 288 q 416 319 448 319 l 328 319 l 328 401 m 276 319 q 247 332 259 319 q 235 360 235 344 q 247 389 235 377 q 276 401 259 401 l 366 401 q 426 417 399 401 q 469 460 453 433 q 485 520 485 487 q 469 579 485 552 q 426 622 453 606 q 366 638 399 638 l 94 638 q 65 650 77 638 q 53 680 53 663 q 65 708 53 696 q 94 720 77 720 l 366 720 q 467 693 421 720 q 540 620 513 666 q 567 520 567 574 q 540 419 567 465 q 467 346 513 373 q 366 319 421 319 l 276 319 z "},"C":{"ha":643,"x_min":43,"x_max":616,"o":"m 404 0 q 224 49 307 0 q 92 180 140 97 q 43 361 43 263 q 85 530 43 452 q 200 658 128 608 q 362 719 273 709 l 367 720 q 396 708 384 720 q 408 678 408 695 q 399 652 408 663 q 373 638 389 640 q 248 592 305 631 q 158 492 191 553 q 125 361 125 432 q 163 221 125 285 q 264 119 200 157 q 404 82 328 82 l 575 82 q 604 70 592 82 q 616 41 616 58 q 604 12 616 24 q 575 0 592 0 l 404 0 m 553 638 q 524 650 537 638 q 512 680 512 663 q 524 708 512 696 q 553 720 537 720 q 582 708 570 720 q 594 680 594 696 q 582 650 594 663 q 553 638 570 638 z "},"c":{"ha":643,"x_min":43,"x_max":616,"o":"m 404 0 q 224 49 307 0 q 92 180 140 97 q 43 361 43 263 q 85 530 43 452 q 200 658 128 608 q 362 719 273 709 l 367 720 q 396 708 384 720 q 408 678 408 695 q 399 652 408 663 q 373 638 389 640 q 248 592 305 631 q 158 492 191 553 q 125 361 125 432 q 163 221 125 285 q 264 119 200 157 q 404 82 328 82 l 575 82 q 604 70 592 82 q 616 41 616 58 q 604 12 616 24 q 575 0 592 0 l 404 0 m 553 638 q 524 650 537 638 q 512 680 512 663 q 524 708 512 696 q 553 720 537 720 q 582 708 570 720 q 594 680 594 696 q 582 650 594 663 q 553 638 570 638 z "},"Ć":{"ha":643,"x_min":43,"x_max":616,"o":"m 404 0 q 224 49 307 0 q 92 180 140 97 q 43 361 43 263 q 85 530 43 452 q 200 658 128 608 q 362 719 273 709 l 367 720 q 396 708 384 720 q 408 678 408 695 q 399 652 408 663 q 373 638 389 640 q 248 592 305 631 q 158 492 191 553 q 125 361 125 432 q 163 221 125 285 q 264 119 200 157 q 404 82 328 82 l 575 82 q 604 70 592 82 q 616 41 616 58 q 604 12 616 24 q 575 0 592 0 l 404 0 m 553 638 q 524 650 537 638 q 512 680 512 663 q 524 708 512 696 q 553 720 537 720 q 582 708 570 720 q 594 680 594 696 q 582 650 594 663 q 553 638 570 638 m 383 802 q 365 796 374 796 q 343 805 352 796 q 333 827 333 814 q 347 853 333 844 l 488 951 q 506 957 496 957 q 528 948 519 957 q 537 925 537 938 q 524 900 537 909 l 383 802 z "},"ć":{"ha":643,"x_min":43,"x_max":616,"o":"m 404 0 q 224 49 307 0 q 92 180 140 97 q 43 361 43 263 q 85 530 43 452 q 200 658 128 608 q 362 719 273 709 l 367 720 q 396 708 384 720 q 408 678 408 695 q 399 652 408 663 q 373 638 389 640 q 248 592 305 631 q 158 492 191 553 q 125 361 125 432 q 163 221 125 285 q 264 119 200 157 q 404 82 328 82 l 575 82 q 604 70 592 82 q 616 41 616 58 q 604 12 616 24 q 575 0 592 0 l 404 0 m 553 638 q 524 650 537 638 q 512 680 512 663 q 524 708 512 696 q 553 720 537 720 q 582 708 570 720 q 594 680 594 696 q 582 650 594 663 q 553 638 570 638 m 383 802 q 365 796 374 796 q 343 805 352 796 q 333 827 333 814 q 347 853 333 844 l 488 951 q 506 957 496 957 q 528 948 519 957 q 537 925 537 938 q 524 900 537 909 l 383 802 z "},"Č":{"ha":643,"x_min":43,"x_max":616,"o":"m 404 0 q 224 49 307 0 q 92 180 140 97 q 43 361 43 263 q 85 530 43 452 q 200 658 128 608 q 362 719 273 709 l 367 720 q 396 708 384 720 q 408 678 408 695 q 399 652 408 663 q 373 638 389 640 q 248 592 305 631 q 158 492 191 553 q 125 361 125 432 q 163 221 125 285 q 264 119 200 157 q 404 82 328 82 l 575 82 q 604 70 592 82 q 616 41 616 58 q 604 12 616 24 q 575 0 592 0 l 404 0 m 553 638 q 524 650 537 638 q 512 680 512 663 q 524 708 512 696 q 553 720 537 720 q 582 708 570 720 q 594 680 594 696 q 582 650 594 663 q 553 638 570 638 m 232 899 q 221 923 221 909 q 230 945 221 936 q 253 954 240 954 q 273 947 264 954 l 381 853 q 391 830 391 844 q 382 808 391 817 q 360 798 373 798 q 340 806 348 798 l 232 899 m 447 947 q 468 954 456 954 q 490 945 480 954 q 499 923 499 936 q 488 899 499 909 l 381 806 l 340 853 l 447 947 z "},"č":{"ha":643,"x_min":43,"x_max":616,"o":"m 404 0 q 224 49 307 0 q 92 180 140 97 q 43 361 43 263 q 85 530 43 452 q 200 658 128 608 q 362 719 273 709 l 367 720 q 396 708 384 720 q 408 678 408 695 q 399 652 408 663 q 373 638 389 640 q 248 592 305 631 q 158 492 191 553 q 125 361 125 432 q 163 221 125 285 q 264 119 200 157 q 404 82 328 82 l 575 82 q 604 70 592 82 q 616 41 616 58 q 604 12 616 24 q 575 0 592 0 l 404 0 m 553 638 q 524 650 537 638 q 512 680 512 663 q 524 708 512 696 q 553 720 537 720 q 582 708 570 720 q 594 680 594 696 q 582 650 594 663 q 553 638 570 638 m 232 899 q 221 923 221 909 q 230 945 221 936 q 253 954 240 954 q 273 947 264 954 l 381 853 q 391 830 391 844 q 382 808 391 817 q 360 798 373 798 q 340 806 348 798 l 232 899 m 447 947 q 468 954 456 954 q 490 945 480 954 q 499 923 499 936 q 488 899 499 909 l 381 806 l 340 853 l 447 947 z "},"Ç":{"ha":643,"x_min":43,"x_max":616,"o":"m 404 0 q 224 49 307 0 q 92 180 140 97 q 43 361 43 263 q 85 530 43 452 q 200 658 128 608 q 362 719 273 709 l 367 720 q 396 708 384 720 q 408 678 408 695 q 399 652 408 663 q 373 638 389 640 q 248 592 305 631 q 158 492 191 553 q 125 361 125 432 q 163 221 125 285 q 264 119 200 157 q 404 82 328 82 l 575 82 q 604 70 592 82 q 616 41 616 58 q 604 12 616 24 q 575 0 592 0 l 404 0 m 553 638 q 524 650 537 638 q 512 680 512 663 q 524 708 512 696 q 553 720 537 720 q 582 708 570 720 q 594 680 594 696 q 582 650 594 663 q 553 638 570 638 m 325 -198 q 300 -187 310 -198 q 290 -162 290 -176 q 291 -152 290 -157 l 321 -63 q 334 -45 324 -52 q 354 -38 343 -38 q 380 -49 369 -38 q 390 -74 390 -59 q 388 -84 390 -79 l 359 -173 q 346 -191 355 -184 q 325 -198 336 -198 z "},"ç":{"ha":643,"x_min":43,"x_max":616,"o":"m 404 0 q 224 49 307 0 q 92 180 140 97 q 43 361 43 263 q 85 530 43 452 q 200 658 128 608 q 362 719 273 709 l 367 720 q 396 708 384 720 q 408 678 408 695 q 399 652 408 663 q 373 638 389 640 q 248 592 305 631 q 158 492 191 553 q 125 361 125 432 q 163 221 125 285 q 264 119 200 157 q 404 82 328 82 l 575 82 q 604 70 592 82 q 616 41 616 58 q 604 12 616 24 q 575 0 592 0 l 404 0 m 553 638 q 524 650 537 638 q 512 680 512 663 q 524 708 512 696 q 553 720 537 720 q 582 708 570 720 q 594 680 594 696 q 582 650 594 663 q 553 638 570 638 m 325 -198 q 300 -187 310 -198 q 290 -162 290 -176 q 291 -152 290 -157 l 321 -63 q 334 -45 324 -52 q 354 -38 343 -38 q 380 -49 369 -38 q 390 -74 390 -59 q 388 -84 390 -79 l 359 -173 q 346 -191 355 -184 q 325 -198 336 -198 z "},"Ĉ":{"ha":643,"x_min":43,"x_max":616,"o":"m 404 0 q 224 49 307 0 q 92 180 140 97 q 43 361 43 263 q 85 530 43 452 q 200 658 128 608 q 362 719 273 709 l 367 720 q 396 708 384 720 q 408 678 408 695 q 399 652 408 663 q 373 638 389 640 q 248 592 305 631 q 158 492 191 553 q 125 361 125 432 q 163 221 125 285 q 264 119 200 157 q 404 82 328 82 l 575 82 q 604 70 592 82 q 616 41 616 58 q 604 12 616 24 q 575 0 592 0 l 404 0 m 553 638 q 524 650 537 638 q 512 680 512 663 q 524 708 512 696 q 553 720 537 720 q 582 708 570 720 q 594 680 594 696 q 582 650 594 663 q 553 638 570 638 m 340 947 q 360 954 348 954 q 382 945 373 954 q 391 923 391 936 q 381 899 391 909 l 273 806 q 253 798 264 798 q 230 808 240 798 q 221 830 221 817 q 232 853 221 844 l 340 947 m 381 947 l 488 853 q 499 830 499 844 q 490 808 499 817 q 468 798 480 798 q 447 806 456 798 l 340 899 l 381 947 z "},"ĉ":{"ha":643,"x_min":43,"x_max":616,"o":"m 404 0 q 224 49 307 0 q 92 180 140 97 q 43 361 43 263 q 85 530 43 452 q 200 658 128 608 q 362 719 273 709 l 367 720 q 396 708 384 720 q 408 678 408 695 q 399 652 408 663 q 373 638 389 640 q 248 592 305 631 q 158 492 191 553 q 125 361 125 432 q 163 221 125 285 q 264 119 200 157 q 404 82 328 82 l 575 82 q 604 70 592 82 q 616 41 616 58 q 604 12 616 24 q 575 0 592 0 l 404 0 m 553 638 q 524 650 537 638 q 512 680 512 663 q 524 708 512 696 q 553 720 537 720 q 582 708 570 720 q 594 680 594 696 q 582 650 594 663 q 553 638 570 638 m 340 947 q 360 954 348 954 q 382 945 373 954 q 391 923 391 936 q 381 899 391 909 l 273 806 q 253 798 264 798 q 230 808 240 798 q 221 830 221 817 q 232 853 221 844 l 340 947 m 381 947 l 488 853 q 499 830 499 844 q 490 808 499 817 q 468 798 480 798 q 447 806 456 798 l 340 899 l 381 947 z "},"Ċ":{"ha":643,"x_min":43,"x_max":616,"o":"m 404 0 q 224 49 307 0 q 92 180 140 97 q 43 361 43 263 q 85 530 43 452 q 200 658 128 608 q 362 719 273 709 l 367 720 q 396 708 384 720 q 408 678 408 695 q 399 652 408 663 q 373 638 389 640 q 248 592 305 631 q 158 492 191 553 q 125 361 125 432 q 163 221 125 285 q 264 119 200 157 q 404 82 328 82 l 575 82 q 604 70 592 82 q 616 41 616 58 q 604 12 616 24 q 575 0 592 0 l 404 0 m 553 638 q 524 650 537 638 q 512 680 512 663 q 524 708 512 696 q 553 720 537 720 q 582 708 570 720 q 594 680 594 696 q 582 650 594 663 q 553 638 570 638 m 360 813 q 329 826 342 813 q 316 857 316 840 q 329 888 316 875 q 360 901 342 901 q 391 888 378 901 q 404 857 404 875 q 391 826 404 839 q 360 813 378 813 z "},"ċ":{"ha":643,"x_min":43,"x_max":616,"o":"m 404 0 q 224 49 307 0 q 92 180 140 97 q 43 361 43 263 q 85 530 43 452 q 200 658 128 608 q 362 719 273 709 l 367 720 q 396 708 384 720 q 408 678 408 695 q 399 652 408 663 q 373 638 389 640 q 248 592 305 631 q 158 492 191 553 q 125 361 125 432 q 163 221 125 285 q 264 119 200 157 q 404 82 328 82 l 575 82 q 604 70 592 82 q 616 41 616 58 q 604 12 616 24 q 575 0 592 0 l 404 0 m 553 638 q 524 650 537 638 q 512 680 512 663 q 524 708 512 696 q 553 720 537 720 q 582 708 570 720 q 594 680 594 696 q 582 650 594 663 q 553 638 570 638 m 360 813 q 329 826 342 813 q 316 857 316 840 q 329 888 316 875 q 360 901 342 901 q 391 888 378 901 q 404 857 404 875 q 391 826 404 839 q 360 813 378 813 z "},"D":{"ha":693,"x_min":52,"x_max":650,"o":"m 54 370 q 66 399 54 387 q 95 411 78 411 q 124 399 112 411 q 136 370 136 387 l 136 41 q 124 12 136 24 q 95 0 112 0 q 66 12 78 0 q 54 41 54 24 l 54 370 m 290 0 q 261 12 273 0 q 249 41 249 24 q 261 70 249 58 q 290 82 273 82 q 430 119 366 82 q 531 221 493 157 q 568 360 568 284 q 531 499 568 436 q 430 601 493 563 q 290 638 366 638 l 94 638 q 65 650 77 638 q 52 680 52 663 q 65 708 52 696 q 94 720 77 720 l 290 720 q 470 672 388 720 q 602 541 553 623 q 650 360 650 458 q 602 180 650 262 q 470 48 553 97 q 290 0 388 0 z "},"d":{"ha":693,"x_min":52,"x_max":650,"o":"m 54 370 q 66 399 54 387 q 95 411 78 411 q 124 399 112 411 q 136 370 136 387 l 136 41 q 124 12 136 24 q 95 0 112 0 q 66 12 78 0 q 54 41 54 24 l 54 370 m 290 0 q 261 12 273 0 q 249 41 249 24 q 261 70 249 58 q 290 82 273 82 q 430 119 366 82 q 531 221 493 157 q 568 360 568 284 q 531 499 568 436 q 430 601 493 563 q 290 638 366 638 l 94 638 q 65 650 77 638 q 52 680 52 663 q 65 708 52 696 q 94 720 77 720 l 290 720 q 470 672 388 720 q 602 541 553 623 q 650 360 650 458 q 602 180 650 262 q 470 48 553 97 q 290 0 388 0 z "},"Ð":{"ha":731,"x_min":0,"x_max":688,"o":"m 92 208 q 104 237 92 225 q 133 249 116 249 q 161 237 149 249 q 173 208 173 225 l 173 41 q 161 12 173 24 q 133 0 149 0 q 104 12 116 0 q 92 41 92 24 l 92 208 m 269 401 q 298 389 285 401 q 310 360 310 377 q 298 331 310 343 q 269 319 285 319 l 41 319 q 12 331 24 319 q 0 360 0 343 q 12 389 0 377 q 41 401 24 401 l 269 401 m 328 0 q 299 12 311 0 q 287 41 287 24 q 299 70 287 58 q 328 82 311 82 q 467 119 403 82 q 568 221 531 157 q 606 360 606 284 q 568 499 606 436 q 467 601 531 563 q 328 638 403 638 l 131 638 q 102 650 114 638 q 90 680 90 663 q 102 708 90 696 q 131 720 114 720 l 328 720 q 508 672 425 720 q 639 541 591 623 q 688 360 688 458 q 639 180 688 262 q 508 48 591 97 q 328 0 425 0 z "},"ð":{"ha":731,"x_min":0,"x_max":688,"o":"m 92 208 q 104 237 92 225 q 133 249 116 249 q 161 237 149 249 q 173 208 173 225 l 173 41 q 161 12 173 24 q 133 0 149 0 q 104 12 116 0 q 92 41 92 24 l 92 208 m 269 401 q 298 389 285 401 q 310 360 310 377 q 298 331 310 343 q 269 319 285 319 l 41 319 q 12 331 24 319 q 0 360 0 343 q 12 389 0 377 q 41 401 24 401 l 269 401 m 328 0 q 299 12 311 0 q 287 41 287 24 q 299 70 287 58 q 328 82 311 82 q 467 119 403 82 q 568 221 531 157 q 606 360 606 284 q 568 499 606 436 q 467 601 531 563 q 328 638 403 638 l 131 638 q 102 650 114 638 q 90 680 90 663 q 102 708 90 696 q 131 720 114 720 l 328 720 q 508 672 425 720 q 639 541 591 623 q 688 360 688 458 q 639 180 688 262 q 508 48 591 97 q 328 0 425 0 z "},"Ď":{"ha":693,"x_min":52,"x_max":650,"o":"m 54 370 q 66 399 54 387 q 95 411 78 411 q 124 399 112 411 q 136 370 136 387 l 136 41 q 124 12 136 24 q 95 0 112 0 q 66 12 78 0 q 54 41 54 24 l 54 370 m 290 0 q 261 12 273 0 q 249 41 249 24 q 261 70 249 58 q 290 82 273 82 q 430 119 366 82 q 531 221 493 157 q 568 360 568 284 q 531 499 568 436 q 430 601 493 563 q 290 638 366 638 l 94 638 q 65 650 77 638 q 52 680 52 663 q 65 708 52 696 q 94 720 77 720 l 290 720 q 470 672 388 720 q 602 541 553 623 q 650 360 650 458 q 602 180 650 262 q 470 48 553 97 q 290 0 388 0 m 186 899 q 175 923 175 909 q 185 945 175 936 q 207 954 194 954 q 227 947 219 954 l 335 853 q 346 830 346 844 q 336 808 346 817 q 314 798 327 798 q 294 806 302 798 l 186 899 m 401 947 q 422 954 410 954 q 444 945 435 954 q 453 923 453 936 q 442 899 453 909 l 335 806 l 294 853 l 401 947 z "},"ď":{"ha":693,"x_min":52,"x_max":650,"o":"m 54 370 q 66 399 54 387 q 95 411 78 411 q 124 399 112 411 q 136 370 136 387 l 136 41 q 124 12 136 24 q 95 0 112 0 q 66 12 78 0 q 54 41 54 24 l 54 370 m 290 0 q 261 12 273 0 q 249 41 249 24 q 261 70 249 58 q 290 82 273 82 q 430 119 366 82 q 531 221 493 157 q 568 360 568 284 q 531 499 568 436 q 430 601 493 563 q 290 638 366 638 l 94 638 q 65 650 77 638 q 52 680 52 663 q 65 708 52 696 q 94 720 77 720 l 290 720 q 470 672 388 720 q 602 541 553 623 q 650 360 650 458 q 602 180 650 262 q 470 48 553 97 q 290 0 388 0 m 186 899 q 175 923 175 909 q 185 945 175 936 q 207 954 194 954 q 227 947 219 954 l 335 853 q 346 830 346 844 q 336 808 346 817 q 314 798 327 798 q 294 806 302 798 l 186 899 m 401 947 q 422 954 410 954 q 444 945 435 954 q 453 923 453 936 q 442 899 453 909 l 335 806 l 294 853 l 401 947 z "},"Đ":{"ha":731,"x_min":0,"x_max":688,"o":"m 92 208 q 104 237 92 225 q 133 249 116 249 q 161 237 149 249 q 173 208 173 225 l 173 41 q 161 12 173 24 q 133 0 149 0 q 104 12 116 0 q 92 41 92 24 l 92 208 m 269 401 q 298 389 285 401 q 310 360 310 377 q 298 331 310 343 q 269 319 285 319 l 41 319 q 12 331 24 319 q 0 360 0 343 q 12 389 0 377 q 41 401 24 401 l 269 401 m 328 0 q 299 12 311 0 q 287 41 287 24 q 299 70 287 58 q 328 82 311 82 q 467 119 403 82 q 568 221 531 157 q 606 360 606 284 q 568 499 606 436 q 467 601 531 563 q 328 638 403 638 l 131 638 q 102 650 114 638 q 90 680 90 663 q 102 708 90 696 q 131 720 114 720 l 328 720 q 508 672 425 720 q 639 541 591 623 q 688 360 688 458 q 639 180 688 262 q 508 48 591 97 q 328 0 425 0 z "},"đ":{"ha":731,"x_min":0,"x_max":688,"o":"m 92 208 q 104 237 92 225 q 133 249 116 249 q 161 237 149 249 q 173 208 173 225 l 173 41 q 161 12 173 24 q 133 0 149 0 q 104 12 116 0 q 92 41 92 24 l 92 208 m 269 401 q 298 389 285 401 q 310 360 310 377 q 298 331 310 343 q 269 319 285 319 l 41 319 q 12 331 24 319 q 0 360 0 343 q 12 389 0 377 q 41 401 24 401 l 269 401 m 328 0 q 299 12 311 0 q 287 41 287 24 q 299 70 287 58 q 328 82 311 82 q 467 119 403 82 q 568 221 531 157 q 606 360 606 284 q 568 499 606 436 q 467 601 531 563 q 328 638 403 638 l 131 638 q 102 650 114 638 q 90 680 90 663 q 102 708 90 696 q 131 720 114 720 l 328 720 q 508 672 425 720 q 639 541 591 623 q 688 360 688 458 q 639 180 688 262 q 508 48 591 97 q 328 0 425 0 z "},"E":{"ha":562,"x_min":53,"x_max":519,"o":"m 53 40 l 53 363 q 65 392 53 380 q 94 404 77 404 q 123 392 111 404 q 135 363 135 380 l 135 40 l 53 40 m 477 82 q 506 70 494 82 q 519 41 519 58 q 506 12 519 24 q 477 1 494 1 l 94 1 q 65 12 77 1 q 53 41 53 24 q 65 70 53 58 q 94 82 77 82 l 477 82 m 272 319 q 243 331 255 319 q 231 360 231 343 q 243 389 231 377 q 272 401 255 401 l 477 401 q 506 389 494 401 q 519 360 519 377 q 506 331 519 343 q 477 319 494 319 l 272 319 m 94 639 q 65 651 77 639 q 53 680 53 663 q 65 709 53 697 q 94 721 77 721 l 477 720 q 506 708 494 720 q 519 680 519 697 q 506 650 519 663 q 477 638 494 638 l 94 639 z "},"e":{"ha":562,"x_min":53,"x_max":519,"o":"m 53 40 l 53 363 q 65 392 53 380 q 94 404 77 404 q 123 392 111 404 q 135 363 135 380 l 135 40 l 53 40 m 477 82 q 506 70 494 82 q 519 41 519 58 q 506 12 519 24 q 477 1 494 1 l 94 1 q 65 12 77 1 q 53 41 53 24 q 65 70 53 58 q 94 82 77 82 l 477 82 m 272 319 q 243 331 255 319 q 231 360 231 343 q 243 389 231 377 q 272 401 255 401 l 477 401 q 506 389 494 401 q 519 360 519 377 q 506 331 519 343 q 477 319 494 319 l 272 319 m 94 639 q 65 651 77 639 q 53 680 53 663 q 65 709 53 697 q 94 721 77 721 l 477 720 q 506 708 494 720 q 519 680 519 697 q 506 650 519 663 q 477 638 494 638 l 94 639 z "},"É":{"ha":562,"x_min":53,"x_max":519,"o":"m 53 40 l 53 363 q 65 392 53 380 q 94 404 77 404 q 123 392 111 404 q 135 363 135 380 l 135 40 l 53 40 m 477 82 q 506 70 494 82 q 519 41 519 58 q 506 12 519 24 q 477 1 494 1 l 94 1 q 65 12 77 1 q 53 41 53 24 q 65 70 53 58 q 94 82 77 82 l 477 82 m 272 319 q 243 331 255 319 q 231 360 231 343 q 243 389 231 377 q 272 401 255 401 l 477 401 q 506 389 494 401 q 519 360 519 377 q 506 331 519 343 q 477 319 494 319 l 272 319 m 94 639 q 65 651 77 639 q 53 680 53 663 q 65 709 53 697 q 94 721 77 721 l 477 720 q 506 708 494 720 q 519 680 519 697 q 506 650 519 663 q 477 638 494 638 l 94 639 m 296 802 q 278 796 288 796 q 256 805 265 796 q 247 827 247 814 q 260 853 247 844 l 401 951 q 419 957 410 957 q 441 948 432 957 q 451 925 451 938 q 437 900 451 909 l 296 802 z "},"é":{"ha":562,"x_min":53,"x_max":519,"o":"m 53 40 l 53 363 q 65 392 53 380 q 94 404 77 404 q 123 392 111 404 q 135 363 135 380 l 135 40 l 53 40 m 477 82 q 506 70 494 82 q 519 41 519 58 q 506 12 519 24 q 477 1 494 1 l 94 1 q 65 12 77 1 q 53 41 53 24 q 65 70 53 58 q 94 82 77 82 l 477 82 m 272 319 q 243 331 255 319 q 231 360 231 343 q 243 389 231 377 q 272 401 255 401 l 477 401 q 506 389 494 401 q 519 360 519 377 q 506 331 519 343 q 477 319 494 319 l 272 319 m 94 639 q 65 651 77 639 q 53 680 53 663 q 65 709 53 697 q 94 721 77 721 l 477 720 q 506 708 494 720 q 519 680 519 697 q 506 650 519 663 q 477 638 494 638 l 94 639 m 296 802 q 278 796 288 796 q 256 805 265 796 q 247 827 247 814 q 260 853 247 844 l 401 951 q 419 957 410 957 q 441 948 432 957 q 451 925 451 938 q 437 900 451 909 l 296 802 z "},"Ě":{"ha":562,"x_min":53,"x_max":519,"o":"m 53 40 l 53 363 q 65 392 53 380 q 94 404 77 404 q 123 392 111 404 q 135 363 135 380 l 135 40 l 53 40 m 477 82 q 506 70 494 82 q 519 41 519 58 q 506 12 519 24 q 477 1 494 1 l 94 1 q 65 12 77 1 q 53 41 53 24 q 65 70 53 58 q 94 82 77 82 l 477 82 m 272 319 q 243 331 255 319 q 231 360 231 343 q 243 389 231 377 q 272 401 255 401 l 477 401 q 506 389 494 401 q 519 360 519 377 q 506 331 519 343 q 477 319 494 319 l 272 319 m 94 639 q 65 651 77 639 q 53 680 53 663 q 65 709 53 697 q 94 721 77 721 l 477 720 q 506 708 494 720 q 519 680 519 697 q 506 650 519 663 q 477 638 494 638 l 94 639 m 146 899 q 135 923 135 909 q 144 945 135 936 q 166 954 153 954 q 187 947 178 954 l 294 853 q 305 830 305 844 q 296 808 305 817 q 274 798 287 798 q 253 806 262 798 l 146 899 m 361 947 q 381 954 369 954 q 403 945 394 954 q 413 923 413 936 q 402 899 413 909 l 295 806 l 254 853 l 361 947 z "},"ě":{"ha":562,"x_min":53,"x_max":519,"o":"m 53 40 l 53 363 q 65 392 53 380 q 94 404 77 404 q 123 392 111 404 q 135 363 135 380 l 135 40 l 53 40 m 477 82 q 506 70 494 82 q 519 41 519 58 q 506 12 519 24 q 477 1 494 1 l 94 1 q 65 12 77 1 q 53 41 53 24 q 65 70 53 58 q 94 82 77 82 l 477 82 m 272 319 q 243 331 255 319 q 231 360 231 343 q 243 389 231 377 q 272 401 255 401 l 477 401 q 506 389 494 401 q 519 360 519 377 q 506 331 519 343 q 477 319 494 319 l 272 319 m 94 639 q 65 651 77 639 q 53 680 53 663 q 65 709 53 697 q 94 721 77 721 l 477 720 q 506 708 494 720 q 519 680 519 697 q 506 650 519 663 q 477 638 494 638 l 94 639 m 146 899 q 135 923 135 909 q 144 945 135 936 q 166 954 153 954 q 187 947 178 954 l 294 853 q 305 830 305 844 q 296 808 305 817 q 274 798 287 798 q 253 806 262 798 l 146 899 m 361 947 q 381 954 369 954 q 403 945 394 954 q 413 923 413 936 q 402 899 413 909 l 295 806 l 254 853 l 361 947 z "},"Ê":{"ha":562,"x_min":53,"x_max":519,"o":"m 53 40 l 53 363 q 65 392 53 380 q 94 404 77 404 q 123 392 111 404 q 135 363 135 380 l 135 40 l 53 40 m 477 82 q 506 70 494 82 q 519 41 519 58 q 506 12 519 24 q 477 1 494 1 l 94 1 q 65 12 77 1 q 53 41 53 24 q 65 70 53 58 q 94 82 77 82 l 477 82 m 272 319 q 243 331 255 319 q 231 360 231 343 q 243 389 231 377 q 272 401 255 401 l 477 401 q 506 389 494 401 q 519 360 519 377 q 506 331 519 343 q 477 319 494 319 l 272 319 m 94 639 q 65 651 77 639 q 53 680 53 663 q 65 709 53 697 q 94 721 77 721 l 477 720 q 506 708 494 720 q 519 680 519 697 q 506 650 519 663 q 477 638 494 638 l 94 639 m 253 947 q 274 954 262 954 q 296 945 287 954 q 305 923 305 936 q 294 899 305 909 l 187 806 q 166 798 178 798 q 144 808 153 798 q 135 830 135 817 q 146 853 135 844 l 253 947 m 295 947 l 402 853 q 413 830 413 844 q 403 808 413 817 q 381 798 394 798 q 361 806 369 798 l 254 899 l 295 947 z "},"ê":{"ha":562,"x_min":53,"x_max":519,"o":"m 53 40 l 53 363 q 65 392 53 380 q 94 404 77 404 q 123 392 111 404 q 135 363 135 380 l 135 40 l 53 40 m 477 82 q 506 70 494 82 q 519 41 519 58 q 506 12 519 24 q 477 1 494 1 l 94 1 q 65 12 77 1 q 53 41 53 24 q 65 70 53 58 q 94 82 77 82 l 477 82 m 272 319 q 243 331 255 319 q 231 360 231 343 q 243 389 231 377 q 272 401 255 401 l 477 401 q 506 389 494 401 q 519 360 519 377 q 506 331 519 343 q 477 319 494 319 l 272 319 m 94 639 q 65 651 77 639 q 53 680 53 663 q 65 709 53 697 q 94 721 77 721 l 477 720 q 506 708 494 720 q 519 680 519 697 q 506 650 519 663 q 477 638 494 638 l 94 639 m 253 947 q 274 954 262 954 q 296 945 287 954 q 305 923 305 936 q 294 899 305 909 l 187 806 q 166 798 178 798 q 144 808 153 798 q 135 830 135 817 q 146 853 135 844 l 253 947 m 295 947 l 402 853 q 413 830 413 844 q 403 808 413 817 q 381 798 394 798 q 361 806 369 798 l 254 899 l 295 947 z "},"Ế":{"ha":562,"x_min":53,"x_max":565,"o":"m 53 40 l 53 363 q 65 392 53 380 q 94 404 77 404 q 123 392 111 404 q 135 363 135 380 l 135 40 l 53 40 m 477 82 q 506 70 494 82 q 519 41 519 58 q 506 12 519 24 q 477 1 494 1 l 94 1 q 65 12 77 1 q 53 41 53 24 q 65 70 53 58 q 94 82 77 82 l 477 82 m 272 319 q 243 331 255 319 q 231 360 231 343 q 243 389 231 377 q 272 401 255 401 l 477 401 q 506 389 494 401 q 519 360 519 377 q 506 331 519 343 q 477 319 494 319 l 272 319 m 94 639 q 65 651 77 639 q 53 680 53 663 q 65 709 53 697 q 94 721 77 721 l 477 720 q 506 708 494 720 q 519 680 519 697 q 506 650 519 663 q 477 638 494 638 l 94 639 z "},"ế":{"ha":562,"x_min":53,"x_max":565,"o":"m 53 40 l 53 363 q 65 392 53 380 q 94 404 77 404 q 123 392 111 404 q 135 363 135 380 l 135 40 l 53 40 m 477 82 q 506 70 494 82 q 519 41 519 58 q 506 12 519 24 q 477 1 494 1 l 94 1 q 65 12 77 1 q 53 41 53 24 q 65 70 53 58 q 94 82 77 82 l 477 82 m 272 319 q 243 331 255 319 q 231 360 231 343 q 243 389 231 377 q 272 401 255 401 l 477 401 q 506 389 494 401 q 519 360 519 377 q 506 331 519 343 q 477 319 494 319 l 272 319 m 94 639 q 65 651 77 639 q 53 680 53 663 q 65 709 53 697 q 94 721 77 721 l 477 720 q 506 708 494 720 q 519 680 519 697 q 506 650 519 663 q 477 638 494 638 l 94 639 z "},"Ệ":{"ha":562,"x_min":53,"x_max":519,"o":"m 53 40 l 53 363 q 65 392 53 380 q 94 404 77 404 q 123 392 111 404 q 135 363 135 380 l 135 40 l 53 40 m 477 82 q 506 70 494 82 q 519 41 519 58 q 506 12 519 24 q 477 1 494 1 l 94 1 q 65 12 77 1 q 53 41 53 24 q 65 70 53 58 q 94 82 77 82 l 477 82 m 272 319 q 243 331 255 319 q 231 360 231 343 q 243 389 231 377 q 272 401 255 401 l 477 401 q 506 389 494 401 q 519 360 519 377 q 506 331 519 343 q 477 319 494 319 l 272 319 m 94 639 q 65 651 77 639 q 53 680 53 663 q 65 709 53 697 q 94 721 77 721 l 477 720 q 506 708 494 720 q 519 680 519 697 q 506 650 519 663 q 477 638 494 638 l 94 639 m 280 -156 q 249 -144 262 -156 q 236 -113 236 -131 q 249 -82 236 -95 q 280 -69 262 -69 q 311 -82 298 -69 q 324 -113 324 -95 q 311 -144 324 -131 q 280 -156 298 -156 m 253 947 q 274 954 262 954 q 296 945 287 954 q 305 923 305 936 q 294 899 305 909 l 187 806 q 166 798 178 798 q 144 808 153 798 q 135 830 135 817 q 146 853 135 844 l 253 947 m 295 947 l 402 853 q 413 830 413 844 q 403 808 413 817 q 381 798 394 798 q 361 806 369 798 l 254 899 l 295 947 z "},"ệ":{"ha":562,"x_min":53,"x_max":519,"o":"m 53 40 l 53 363 q 65 392 53 380 q 94 404 77 404 q 123 392 111 404 q 135 363 135 380 l 135 40 l 53 40 m 477 82 q 506 70 494 82 q 519 41 519 58 q 506 12 519 24 q 477 1 494 1 l 94 1 q 65 12 77 1 q 53 41 53 24 q 65 70 53 58 q 94 82 77 82 l 477 82 m 272 319 q 243 331 255 319 q 231 360 231 343 q 243 389 231 377 q 272 401 255 401 l 477 401 q 506 389 494 401 q 519 360 519 377 q 506 331 519 343 q 477 319 494 319 l 272 319 m 94 639 q 65 651 77 639 q 53 680 53 663 q 65 709 53 697 q 94 721 77 721 l 477 720 q 506 708 494 720 q 519 680 519 697 q 506 650 519 663 q 477 638 494 638 l 94 639 m 280 -156 q 249 -144 262 -156 q 236 -113 236 -131 q 249 -82 236 -95 q 280 -69 262 -69 q 311 -82 298 -69 q 324 -113 324 -95 q 311 -144 324 -131 q 280 -156 298 -156 m 253 947 q 274 954 262 954 q 296 945 287 954 q 305 923 305 936 q 294 899 305 909 l 187 806 q 166 798 178 798 q 144 808 153 798 q 135 830 135 817 q 146 853 135 844 l 253 947 m 295 947 l 402 853 q 413 830 413 844 q 403 808 413 817 q 381 798 394 798 q 361 806 369 798 l 254 899 l 295 947 z "},"Ề":{"ha":562,"x_min":53,"x_max":519,"o":"m 53 40 l 53 363 q 65 392 53 380 q 94 404 77 404 q 123 392 111 404 q 135 363 135 380 l 135 40 l 53 40 m 477 82 q 506 70 494 82 q 519 41 519 58 q 506 12 519 24 q 477 1 494 1 l 94 1 q 65 12 77 1 q 53 41 53 24 q 65 70 53 58 q 94 82 77 82 l 477 82 m 272 319 q 243 331 255 319 q 231 360 231 343 q 243 389 231 377 q 272 401 255 401 l 477 401 q 506 389 494 401 q 519 360 519 377 q 506 331 519 343 q 477 319 494 319 l 272 319 m 94 639 q 65 651 77 639 q 53 680 53 663 q 65 709 53 697 q 94 721 77 721 l 477 720 q 506 708 494 720 q 519 680 519 697 q 506 650 519 663 q 477 638 494 638 l 94 639 z "},"ề":{"ha":562,"x_min":53,"x_max":519,"o":"m 53 40 l 53 363 q 65 392 53 380 q 94 404 77 404 q 123 392 111 404 q 135 363 135 380 l 135 40 l 53 40 m 477 82 q 506 70 494 82 q 519 41 519 58 q 506 12 519 24 q 477 1 494 1 l 94 1 q 65 12 77 1 q 53 41 53 24 q 65 70 53 58 q 94 82 77 82 l 477 82 m 272 319 q 243 331 255 319 q 231 360 231 343 q 243 389 231 377 q 272 401 255 401 l 477 401 q 506 389 494 401 q 519 360 519 377 q 506 331 519 343 q 477 319 494 319 l 272 319 m 94 639 q 65 651 77 639 q 53 680 53 663 q 65 709 53 697 q 94 721 77 721 l 477 720 q 506 708 494 720 q 519 680 519 697 q 506 650 519 663 q 477 638 494 638 l 94 639 z "},"Ể":{"ha":562,"x_min":53,"x_max":519,"o":"m 53 40 l 53 363 q 65 392 53 380 q 94 404 77 404 q 123 392 111 404 q 135 363 135 380 l 135 40 l 53 40 m 477 82 q 506 70 494 82 q 519 41 519 58 q 506 12 519 24 q 477 1 494 1 l 94 1 q 65 12 77 1 q 53 41 53 24 q 65 70 53 58 q 94 82 77 82 l 477 82 m 272 319 q 243 331 255 319 q 231 360 231 343 q 243 389 231 377 q 272 401 255 401 l 477 401 q 506 389 494 401 q 519 360 519 377 q 506 331 519 343 q 477 319 494 319 l 272 319 m 94 639 q 65 651 77 639 q 53 680 53 663 q 65 709 53 697 q 94 721 77 721 l 477 720 q 506 708 494 720 q 519 680 519 697 q 506 650 519 663 q 477 638 494 638 l 94 639 z "},"ể":{"ha":562,"x_min":53,"x_max":519,"o":"m 53 40 l 53 363 q 65 392 53 380 q 94 404 77 404 q 123 392 111 404 q 135 363 135 380 l 135 40 l 53 40 m 477 82 q 506 70 494 82 q 519 41 519 58 q 506 12 519 24 q 477 1 494 1 l 94 1 q 65 12 77 1 q 53 41 53 24 q 65 70 53 58 q 94 82 77 82 l 477 82 m 272 319 q 243 331 255 319 q 231 360 231 343 q 243 389 231 377 q 272 401 255 401 l 477 401 q 506 389 494 401 q 519 360 519 377 q 506 331 519 343 q 477 319 494 319 l 272 319 m 94 639 q 65 651 77 639 q 53 680 53 663 q 65 709 53 697 q 94 721 77 721 l 477 720 q 506 708 494 720 q 519 680 519 697 q 506 650 519 663 q 477 638 494 638 l 94 639 z "},"Ễ":{"ha":562,"x_min":53,"x_max":519,"o":"m 53 40 l 53 363 q 65 392 53 380 q 94 404 77 404 q 123 392 111 404 q 135 363 135 380 l 135 40 l 53 40 m 477 82 q 506 70 494 82 q 519 41 519 58 q 506 12 519 24 q 477 1 494 1 l 94 1 q 65 12 77 1 q 53 41 53 24 q 65 70 53 58 q 94 82 77 82 l 477 82 m 272 319 q 243 331 255 319 q 231 360 231 343 q 243 389 231 377 q 272 401 255 401 l 477 401 q 506 389 494 401 q 519 360 519 377 q 506 331 519 343 q 477 319 494 319 l 272 319 m 94 639 q 65 651 77 639 q 53 680 53 663 q 65 709 53 697 q 94 721 77 721 l 477 720 q 506 708 494 720 q 519 680 519 697 q 506 650 519 663 q 477 638 494 638 l 94 639 z "},"ễ":{"ha":562,"x_min":53,"x_max":519,"o":"m 53 40 l 53 363 q 65 392 53 380 q 94 404 77 404 q 123 392 111 404 q 135 363 135 380 l 135 40 l 53 40 m 477 82 q 506 70 494 82 q 519 41 519 58 q 506 12 519 24 q 477 1 494 1 l 94 1 q 65 12 77 1 q 53 41 53 24 q 65 70 53 58 q 94 82 77 82 l 477 82 m 272 319 q 243 331 255 319 q 231 360 231 343 q 243 389 231 377 q 272 401 255 401 l 477 401 q 506 389 494 401 q 519 360 519 377 q 506 331 519 343 q 477 319 494 319 l 272 319 m 94 639 q 65 651 77 639 q 53 680 53 663 q 65 709 53 697 q 94 721 77 721 l 477 720 q 506 708 494 720 q 519 680 519 697 q 506 650 519 663 q 477 638 494 638 l 94 639 z "},"Ë":{"ha":562,"x_min":53,"x_max":519,"o":"m 53 40 l 53 363 q 65 392 53 380 q 94 404 77 404 q 123 392 111 404 q 135 363 135 380 l 135 40 l 53 40 m 477 82 q 506 70 494 82 q 519 41 519 58 q 506 12 519 24 q 477 1 494 1 l 94 1 q 65 12 77 1 q 53 41 53 24 q 65 70 53 58 q 94 82 77 82 l 477 82 m 272 319 q 243 331 255 319 q 231 360 231 343 q 243 389 231 377 q 272 401 255 401 l 477 401 q 506 389 494 401 q 519 360 519 377 q 506 331 519 343 q 477 319 494 319 l 272 319 m 94 639 q 65 651 77 639 q 53 680 53 663 q 65 709 53 697 q 94 721 77 721 l 477 720 q 506 708 494 720 q 519 680 519 697 q 506 650 519 663 q 477 638 494 638 l 94 639 m 368 813 q 337 826 350 813 q 324 857 324 839 q 337 888 324 875 q 368 901 350 901 q 399 888 386 901 q 412 857 412 875 q 399 826 412 840 q 368 813 386 813 m 180 813 q 149 826 162 813 q 136 857 136 839 q 149 888 136 875 q 180 901 162 901 q 211 888 198 901 q 224 857 224 875 q 211 826 224 840 q 180 813 198 813 z "},"ë":{"ha":562,"x_min":53,"x_max":519,"o":"m 53 40 l 53 363 q 65 392 53 380 q 94 404 77 404 q 123 392 111 404 q 135 363 135 380 l 135 40 l 53 40 m 477 82 q 506 70 494 82 q 519 41 519 58 q 506 12 519 24 q 477 1 494 1 l 94 1 q 65 12 77 1 q 53 41 53 24 q 65 70 53 58 q 94 82 77 82 l 477 82 m 272 319 q 243 331 255 319 q 231 360 231 343 q 243 389 231 377 q 272 401 255 401 l 477 401 q 506 389 494 401 q 519 360 519 377 q 506 331 519 343 q 477 319 494 319 l 272 319 m 94 639 q 65 651 77 639 q 53 680 53 663 q 65 709 53 697 q 94 721 77 721 l 477 720 q 506 708 494 720 q 519 680 519 697 q 506 650 519 663 q 477 638 494 638 l 94 639 m 368 813 q 337 826 350 813 q 324 857 324 839 q 337 888 324 875 q 368 901 350 901 q 399 888 386 901 q 412 857 412 875 q 399 826 412 840 q 368 813 386 813 m 180 813 q 149 826 162 813 q 136 857 136 839 q 149 888 136 875 q 180 901 162 901 q 211 888 198 901 q 224 857 224 875 q 211 826 224 840 q 180 813 198 813 z "},"Ė":{"ha":562,"x_min":53,"x_max":519,"o":"m 53 40 l 53 363 q 65 392 53 380 q 94 404 77 404 q 123 392 111 404 q 135 363 135 380 l 135 40 l 53 40 m 477 82 q 506 70 494 82 q 519 41 519 58 q 506 12 519 24 q 477 1 494 1 l 94 1 q 65 12 77 1 q 53 41 53 24 q 65 70 53 58 q 94 82 77 82 l 477 82 m 272 319 q 243 331 255 319 q 231 360 231 343 q 243 389 231 377 q 272 401 255 401 l 477 401 q 506 389 494 401 q 519 360 519 377 q 506 331 519 343 q 477 319 494 319 l 272 319 m 94 639 q 65 651 77 639 q 53 680 53 663 q 65 709 53 697 q 94 721 77 721 l 477 720 q 506 708 494 720 q 519 680 519 697 q 506 650 519 663 q 477 638 494 638 l 94 639 m 274 813 q 243 826 256 813 q 230 857 230 840 q 243 888 230 875 q 274 901 256 901 q 305 888 292 901 q 317 857 317 875 q 305 826 317 839 q 274 813 292 813 z "},"ė":{"ha":562,"x_min":53,"x_max":519,"o":"m 53 40 l 53 363 q 65 392 53 380 q 94 404 77 404 q 123 392 111 404 q 135 363 135 380 l 135 40 l 53 40 m 477 82 q 506 70 494 82 q 519 41 519 58 q 506 12 519 24 q 477 1 494 1 l 94 1 q 65 12 77 1 q 53 41 53 24 q 65 70 53 58 q 94 82 77 82 l 477 82 m 272 319 q 243 331 255 319 q 231 360 231 343 q 243 389 231 377 q 272 401 255 401 l 477 401 q 506 389 494 401 q 519 360 519 377 q 506 331 519 343 q 477 319 494 319 l 272 319 m 94 639 q 65 651 77 639 q 53 680 53 663 q 65 709 53 697 q 94 721 77 721 l 477 720 q 506 708 494 720 q 519 680 519 697 q 506 650 519 663 q 477 638 494 638 l 94 639 m 274 813 q 243 826 256 813 q 230 857 230 840 q 243 888 230 875 q 274 901 256 901 q 305 888 292 901 q 317 857 317 875 q 305 826 317 839 q 274 813 292 813 z "},"Ẹ":{"ha":562,"x_min":53,"x_max":519,"o":"m 53 40 l 53 363 q 65 392 53 380 q 94 404 77 404 q 123 392 111 404 q 135 363 135 380 l 135 40 l 53 40 m 477 82 q 506 70 494 82 q 519 41 519 58 q 506 12 519 24 q 477 1 494 1 l 94 1 q 65 12 77 1 q 53 41 53 24 q 65 70 53 58 q 94 82 77 82 l 477 82 m 272 319 q 243 331 255 319 q 231 360 231 343 q 243 389 231 377 q 272 401 255 401 l 477 401 q 506 389 494 401 q 519 360 519 377 q 506 331 519 343 q 477 319 494 319 l 272 319 m 94 639 q 65 651 77 639 q 53 680 53 663 q 65 709 53 697 q 94 721 77 721 l 477 720 q 506 708 494 720 q 519 680 519 697 q 506 650 519 663 q 477 638 494 638 l 94 639 m 280 -156 q 249 -144 262 -156 q 236 -113 236 -131 q 249 -82 236 -95 q 280 -69 262 -69 q 311 -82 298 -69 q 324 -113 324 -95 q 311 -144 324 -131 q 280 -156 298 -156 z "},"ẹ":{"ha":562,"x_min":53,"x_max":519,"o":"m 53 40 l 53 363 q 65 392 53 380 q 94 404 77 404 q 123 392 111 404 q 135 363 135 380 l 135 40 l 53 40 m 477 82 q 506 70 494 82 q 519 41 519 58 q 506 12 519 24 q 477 1 494 1 l 94 1 q 65 12 77 1 q 53 41 53 24 q 65 70 53 58 q 94 82 77 82 l 477 82 m 272 319 q 243 331 255 319 q 231 360 231 343 q 243 389 231 377 q 272 401 255 401 l 477 401 q 506 389 494 401 q 519 360 519 377 q 506 331 519 343 q 477 319 494 319 l 272 319 m 94 639 q 65 651 77 639 q 53 680 53 663 q 65 709 53 697 q 94 721 77 721 l 477 720 q 506 708 494 720 q 519 680 519 697 q 506 650 519 663 q 477 638 494 638 l 94 639 m 280 -156 q 249 -144 262 -156 q 236 -113 236 -131 q 249 -82 236 -95 q 280 -69 262 -69 q 311 -82 298 -69 q 324 -113 324 -95 q 311 -144 324 -131 q 280 -156 298 -156 z "},"È":{"ha":562,"x_min":53,"x_max":519,"o":"m 53 40 l 53 363 q 65 392 53 380 q 94 404 77 404 q 123 392 111 404 q 135 363 135 380 l 135 40 l 53 40 m 477 82 q 506 70 494 82 q 519 41 519 58 q 506 12 519 24 q 477 1 494 1 l 94 1 q 65 12 77 1 q 53 41 53 24 q 65 70 53 58 q 94 82 77 82 l 477 82 m 272 319 q 243 331 255 319 q 231 360 231 343 q 243 389 231 377 q 272 401 255 401 l 477 401 q 506 389 494 401 q 519 360 519 377 q 506 331 519 343 q 477 319 494 319 l 272 319 m 94 639 q 65 651 77 639 q 53 680 53 663 q 65 709 53 697 q 94 721 77 721 l 477 720 q 506 708 494 720 q 519 680 519 697 q 506 650 519 663 q 477 638 494 638 l 94 639 m 110 900 q 97 925 97 909 q 106 948 97 938 q 128 957 115 957 q 146 951 137 957 l 287 853 q 300 827 300 844 q 291 805 300 814 q 269 796 282 796 q 251 802 260 796 l 110 900 z "},"è":{"ha":562,"x_min":53,"x_max":519,"o":"m 53 40 l 53 363 q 65 392 53 380 q 94 404 77 404 q 123 392 111 404 q 135 363 135 380 l 135 40 l 53 40 m 477 82 q 506 70 494 82 q 519 41 519 58 q 506 12 519 24 q 477 1 494 1 l 94 1 q 65 12 77 1 q 53 41 53 24 q 65 70 53 58 q 94 82 77 82 l 477 82 m 272 319 q 243 331 255 319 q 231 360 231 343 q 243 389 231 377 q 272 401 255 401 l 477 401 q 506 389 494 401 q 519 360 519 377 q 506 331 519 343 q 477 319 494 319 l 272 319 m 94 639 q 65 651 77 639 q 53 680 53 663 q 65 709 53 697 q 94 721 77 721 l 477 720 q 506 708 494 720 q 519 680 519 697 q 506 650 519 663 q 477 638 494 638 l 94 639 m 110 900 q 97 925 97 909 q 106 948 97 938 q 128 957 115 957 q 146 951 137 957 l 287 853 q 300 827 300 844 q 291 805 300 814 q 269 796 282 796 q 251 802 260 796 l 110 900 z "},"Ẻ":{"ha":562,"x_min":53,"x_max":519,"o":"m 53 40 l 53 363 q 65 392 53 380 q 94 404 77 404 q 123 392 111 404 q 135 363 135 380 l 135 40 l 53 40 m 477 82 q 506 70 494 82 q 519 41 519 58 q 506 12 519 24 q 477 1 494 1 l 94 1 q 65 12 77 1 q 53 41 53 24 q 65 70 53 58 q 94 82 77 82 l 477 82 m 272 319 q 243 331 255 319 q 231 360 231 343 q 243 389 231 377 q 272 401 255 401 l 477 401 q 506 389 494 401 q 519 360 519 377 q 506 331 519 343 q 477 319 494 319 l 272 319 m 94 639 q 65 651 77 639 q 53 680 53 663 q 65 709 53 697 q 94 721 77 721 l 477 720 q 506 708 494 720 q 519 680 519 697 q 506 650 519 663 q 477 638 494 638 l 94 639 m 246 917 q 227 925 235 917 q 219 944 219 933 q 227 965 219 956 q 246 973 235 973 q 296 960 273 973 q 331 924 318 947 q 344 876 344 902 q 331 826 344 849 q 296 791 318 804 q 246 778 273 778 q 227 786 235 778 q 219 806 219 794 q 227 826 219 818 q 246 834 235 834 q 276 846 264 834 q 288 876 288 858 q 276 905 288 892 q 246 917 264 917 z "},"ẻ":{"ha":562,"x_min":53,"x_max":519,"o":"m 53 40 l 53 363 q 65 392 53 380 q 94 404 77 404 q 123 392 111 404 q 135 363 135 380 l 135 40 l 53 40 m 477 82 q 506 70 494 82 q 519 41 519 58 q 506 12 519 24 q 477 1 494 1 l 94 1 q 65 12 77 1 q 53 41 53 24 q 65 70 53 58 q 94 82 77 82 l 477 82 m 272 319 q 243 331 255 319 q 231 360 231 343 q 243 389 231 377 q 272 401 255 401 l 477 401 q 506 389 494 401 q 519 360 519 377 q 506 331 519 343 q 477 319 494 319 l 272 319 m 94 639 q 65 651 77 639 q 53 680 53 663 q 65 709 53 697 q 94 721 77 721 l 477 720 q 506 708 494 720 q 519 680 519 697 q 506 650 519 663 q 477 638 494 638 l 94 639 m 246 917 q 227 925 235 917 q 219 944 219 933 q 227 965 219 956 q 246 973 235 973 q 296 960 273 973 q 331 924 318 947 q 344 876 344 902 q 331 826 344 849 q 296 791 318 804 q 246 778 273 778 q 227 786 235 778 q 219 806 219 794 q 227 826 219 818 q 246 834 235 834 q 276 846 264 834 q 288 876 288 858 q 276 905 288 892 q 246 917 264 917 z "},"Ē":{"ha":562,"x_min":53,"x_max":519,"o":"m 53 40 l 53 363 q 65 392 53 380 q 94 404 77 404 q 123 392 111 404 q 135 363 135 380 l 135 40 l 53 40 m 477 82 q 506 70 494 82 q 519 41 519 58 q 506 12 519 24 q 477 1 494 1 l 94 1 q 65 12 77 1 q 53 41 53 24 q 65 70 53 58 q 94 82 77 82 l 477 82 m 272 319 q 243 331 255 319 q 231 360 231 343 q 243 389 231 377 q 272 401 255 401 l 477 401 q 506 389 494 401 q 519 360 519 377 q 506 331 519 343 q 477 319 494 319 l 272 319 m 94 639 q 65 651 77 639 q 53 680 53 663 q 65 709 53 697 q 94 721 77 721 l 477 720 q 506 708 494 720 q 519 680 519 697 q 506 650 519 663 q 477 638 494 638 l 94 639 m 159 829 q 137 838 146 829 q 128 860 128 847 q 137 882 128 873 q 159 891 146 891 l 388 891 q 410 882 401 891 q 419 860 419 873 q 410 838 419 847 q 388 829 401 829 l 159 829 z "},"ē":{"ha":562,"x_min":53,"x_max":519,"o":"m 53 40 l 53 363 q 65 392 53 380 q 94 404 77 404 q 123 392 111 404 q 135 363 135 380 l 135 40 l 53 40 m 477 82 q 506 70 494 82 q 519 41 519 58 q 506 12 519 24 q 477 1 494 1 l 94 1 q 65 12 77 1 q 53 41 53 24 q 65 70 53 58 q 94 82 77 82 l 477 82 m 272 319 q 243 331 255 319 q 231 360 231 343 q 243 389 231 377 q 272 401 255 401 l 477 401 q 506 389 494 401 q 519 360 519 377 q 506 331 519 343 q 477 319 494 319 l 272 319 m 94 639 q 65 651 77 639 q 53 680 53 663 q 65 709 53 697 q 94 721 77 721 l 477 720 q 506 708 494 720 q 519 680 519 697 q 506 650 519 663 q 477 638 494 638 l 94 639 m 159 829 q 137 838 146 829 q 128 860 128 847 q 137 882 128 873 q 159 891 146 891 l 388 891 q 410 882 401 891 q 419 860 419 873 q 410 838 419 847 q 388 829 401 829 l 159 829 z "},"Ę":{"ha":562,"x_min":53,"x_max":519,"o":"m 53 40 l 53 363 q 65 392 53 380 q 94 404 77 404 q 123 392 111 404 q 135 363 135 380 l 135 40 l 53 40 m 477 82 q 506 70 494 82 q 519 41 519 58 q 506 12 519 24 q 477 1 494 1 l 94 1 q 65 12 77 1 q 53 41 53 24 q 65 70 53 58 q 94 82 77 82 l 477 82 m 272 319 q 243 331 255 319 q 231 360 231 343 q 243 389 231 377 q 272 401 255 401 l 477 401 q 506 389 494 401 q 519 360 519 377 q 506 331 519 343 q 477 319 494 319 l 272 319 m 94 639 q 65 651 77 639 q 53 680 53 663 q 65 709 53 697 q 94 721 77 721 l 477 720 q 506 708 494 720 q 519 680 519 697 q 506 650 519 663 q 477 638 494 638 l 94 639 m 416 -156 q 390 -145 400 -156 q 381 -120 381 -134 q 384 -106 381 -113 l 451 54 q 463 69 455 63 q 483 75 472 75 q 509 64 499 75 q 518 39 518 53 q 515 25 518 32 l 449 -135 q 436 -150 444 -145 q 416 -156 427 -156 z "},"ę":{"ha":562,"x_min":53,"x_max":519,"o":"m 53 40 l 53 363 q 65 392 53 380 q 94 404 77 404 q 123 392 111 404 q 135 363 135 380 l 135 40 l 53 40 m 477 82 q 506 70 494 82 q 519 41 519 58 q 506 12 519 24 q 477 1 494 1 l 94 1 q 65 12 77 1 q 53 41 53 24 q 65 70 53 58 q 94 82 77 82 l 477 82 m 272 319 q 243 331 255 319 q 231 360 231 343 q 243 389 231 377 q 272 401 255 401 l 477 401 q 506 389 494 401 q 519 360 519 377 q 506 331 519 343 q 477 319 494 319 l 272 319 m 94 639 q 65 651 77 639 q 53 680 53 663 q 65 709 53 697 q 94 721 77 721 l 477 720 q 506 708 494 720 q 519 680 519 697 q 506 650 519 663 q 477 638 494 638 l 94 639 m 416 -156 q 390 -145 400 -156 q 381 -120 381 -134 q 384 -106 381 -113 l 451 54 q 463 69 455 63 q 483 75 472 75 q 509 64 499 75 q 518 39 518 53 q 515 25 518 32 l 449 -135 q 436 -150 444 -145 q 416 -156 427 -156 z "},"Ẽ":{"ha":562,"x_min":53,"x_max":519,"o":"m 53 40 l 53 363 q 65 392 53 380 q 94 404 77 404 q 123 392 111 404 q 135 363 135 380 l 135 40 l 53 40 m 477 82 q 506 70 494 82 q 519 41 519 58 q 506 12 519 24 q 477 1 494 1 l 94 1 q 65 12 77 1 q 53 41 53 24 q 65 70 53 58 q 94 82 77 82 l 477 82 m 272 319 q 243 331 255 319 q 231 360 231 343 q 243 389 231 377 q 272 401 255 401 l 477 401 q 506 389 494 401 q 519 360 519 377 q 506 331 519 343 q 477 319 494 319 l 272 319 m 94 639 q 65 651 77 639 q 53 680 53 663 q 65 709 53 697 q 94 721 77 721 l 477 720 q 506 708 494 720 q 519 680 519 697 q 506 650 519 663 q 477 638 494 638 l 94 639 m 366 894 q 378 908 370 903 q 395 914 385 914 q 417 905 408 914 q 426 882 426 896 q 424 870 426 877 q 388 824 412 841 q 334 808 364 808 q 253 841 292 808 q 212 862 229 862 q 181 834 192 862 q 169 820 177 826 q 152 815 162 815 q 130 824 139 815 q 121 846 121 833 q 123 858 121 852 q 160 904 136 888 q 213 921 184 921 q 294 888 256 921 q 335 867 319 867 q 366 894 355 867 z "},"ẽ":{"ha":562,"x_min":53,"x_max":519,"o":"m 53 40 l 53 363 q 65 392 53 380 q 94 404 77 404 q 123 392 111 404 q 135 363 135 380 l 135 40 l 53 40 m 477 82 q 506 70 494 82 q 519 41 519 58 q 506 12 519 24 q 477 1 494 1 l 94 1 q 65 12 77 1 q 53 41 53 24 q 65 70 53 58 q 94 82 77 82 l 477 82 m 272 319 q 243 331 255 319 q 231 360 231 343 q 243 389 231 377 q 272 401 255 401 l 477 401 q 506 389 494 401 q 519 360 519 377 q 506 331 519 343 q 477 319 494 319 l 272 319 m 94 639 q 65 651 77 639 q 53 680 53 663 q 65 709 53 697 q 94 721 77 721 l 477 720 q 506 708 494 720 q 519 680 519 697 q 506 650 519 663 q 477 638 494 638 l 94 639 m 366 894 q 378 908 370 903 q 395 914 385 914 q 417 905 408 914 q 426 882 426 896 q 424 870 426 877 q 388 824 412 841 q 334 808 364 808 q 253 841 292 808 q 212 862 229 862 q 181 834 192 862 q 169 820 177 826 q 152 815 162 815 q 130 824 139 815 q 121 846 121 833 q 123 858 121 852 q 160 904 136 888 q 213 921 184 921 q 294 888 256 921 q 335 867 319 867 q 366 894 355 867 z "},"Ə":{"ha":811,"x_min":46,"x_max":766,"o":"m 406 638 q 377 650 389 638 q 365 680 365 663 q 377 708 365 696 q 406 720 389 720 q 586 672 504 720 q 718 541 669 623 q 766 360 766 458 q 718 180 766 262 q 586 48 669 97 q 406 0 504 0 q 225 48 308 0 q 94 180 142 97 q 46 360 46 262 q 58 389 46 377 q 87 401 70 401 q 115 389 103 401 q 128 360 128 377 q 165 220 128 284 q 266 119 202 156 q 406 82 330 82 q 546 119 481 82 q 647 220 610 156 q 684 360 684 284 q 647 500 684 436 q 546 601 610 564 q 406 638 481 638 m 87 319 q 58 331 70 319 q 46 360 46 343 q 58 389 46 377 q 87 401 70 401 l 538 401 q 567 389 555 401 q 579 360 579 377 q 567 331 579 343 q 538 319 555 319 l 87 319 z "},"ə":{"ha":811,"x_min":46,"x_max":766,"o":"m 406 638 q 377 650 389 638 q 365 680 365 663 q 377 708 365 696 q 406 720 389 720 q 586 672 504 720 q 718 541 669 623 q 766 360 766 458 q 718 180 766 262 q 586 48 669 97 q 406 0 504 0 q 225 48 308 0 q 94 180 142 97 q 46 360 46 262 q 58 389 46 377 q 87 401 70 401 q 115 389 103 401 q 128 360 128 377 q 165 220 128 284 q 266 119 202 156 q 406 82 330 82 q 546 119 481 82 q 647 220 610 156 q 684 360 684 284 q 647 500 684 436 q 546 601 610 564 q 406 638 481 638 m 87 319 q 58 331 70 319 q 46 360 46 343 q 58 389 46 377 q 87 401 70 401 l 538 401 q 567 389 555 401 q 579 360 579 377 q 567 331 579 343 q 538 319 555 319 l 87 319 z "},"F":{"ha":564,"x_min":53,"x_max":521,"o":"m 135 362 l 135 41 q 123 12 135 24 q 94 1 111 1 q 65 12 77 1 q 53 41 53 24 l 53 362 l 135 362 m 428 401 q 458 389 445 401 q 470 360 470 377 q 458 331 470 343 q 428 319 445 319 l 94 319 q 65 331 77 319 q 53 360 53 343 q 65 389 53 377 q 94 401 77 401 l 428 401 m 94 639 q 65 651 77 639 q 53 680 53 663 q 65 709 53 697 q 94 721 77 721 l 480 720 q 509 708 497 720 q 521 680 521 697 q 509 650 521 663 q 480 638 497 638 l 94 639 z "},"f":{"ha":564,"x_min":53,"x_max":521,"o":"m 135 362 l 135 41 q 123 12 135 24 q 94 1 111 1 q 65 12 77 1 q 53 41 53 24 l 53 362 l 135 362 m 428 401 q 458 389 445 401 q 470 360 470 377 q 458 331 470 343 q 428 319 445 319 l 94 319 q 65 331 77 319 q 53 360 53 343 q 65 389 53 377 q 94 401 77 401 l 428 401 m 94 639 q 65 651 77 639 q 53 680 53 663 q 65 709 53 697 q 94 721 77 721 l 480 720 q 509 708 497 720 q 521 680 521 697 q 509 650 521 663 q 480 638 497 638 l 94 639 z "},"G":{"ha":720,"x_min":43,"x_max":668,"o":"m 403 82 q 432 70 420 82 q 444 41 444 58 q 432 12 444 24 q 403 0 420 0 q 223 49 306 0 q 92 180 140 97 q 43 360 43 262 q 92 541 43 458 q 223 672 140 623 q 403 720 306 720 l 627 720 q 656 708 644 720 q 668 679 668 696 q 656 650 668 663 q 627 638 644 638 l 403 638 q 264 601 328 638 q 163 499 200 563 q 125 360 125 436 q 163 221 125 284 q 264 119 200 157 q 403 82 328 82 m 666 41 q 654 12 666 24 q 625 1 641 1 q 596 12 608 1 q 584 41 584 24 l 584 313 q 596 342 584 330 q 625 354 608 354 q 654 342 641 354 q 666 313 666 330 l 666 41 z "},"g":{"ha":720,"x_min":43,"x_max":668,"o":"m 403 82 q 432 70 420 82 q 444 41 444 58 q 432 12 444 24 q 403 0 420 0 q 223 49 306 0 q 92 180 140 97 q 43 360 43 262 q 92 541 43 458 q 223 672 140 623 q 403 720 306 720 l 627 720 q 656 708 644 720 q 668 679 668 696 q 656 650 668 663 q 627 638 644 638 l 403 638 q 264 601 328 638 q 163 499 200 563 q 125 360 125 436 q 163 221 125 284 q 264 119 200 157 q 403 82 328 82 m 666 41 q 654 12 666 24 q 625 1 641 1 q 596 12 608 1 q 584 41 584 24 l 584 313 q 596 342 584 330 q 625 354 608 354 q 654 342 641 354 q 666 313 666 330 l 666 41 z "},"Ğ":{"ha":720,"x_min":43,"x_max":668,"o":"m 403 82 q 432 70 420 82 q 444 41 444 58 q 432 12 444 24 q 403 0 420 0 q 223 49 306 0 q 92 180 140 97 q 43 360 43 262 q 92 541 43 458 q 223 672 140 623 q 403 720 306 720 l 627 720 q 656 708 644 720 q 668 679 668 696 q 656 650 668 663 q 627 638 644 638 l 403 638 q 264 601 328 638 q 163 499 200 563 q 125 360 125 436 q 163 221 125 284 q 264 119 200 157 q 403 82 328 82 m 666 41 q 654 12 666 24 q 625 1 641 1 q 596 12 608 1 q 584 41 584 24 l 584 313 q 596 342 584 330 q 625 354 608 354 q 654 342 641 354 q 666 313 666 330 l 666 41 m 411 783 q 342 799 374 783 q 288 843 310 815 q 258 906 265 871 q 257 913 257 911 q 265 935 257 925 q 288 944 274 944 q 307 937 299 944 q 318 919 315 930 q 349 866 324 886 q 411 846 374 846 q 473 866 448 846 q 503 919 497 886 q 514 937 506 930 q 533 944 522 944 q 556 935 547 944 q 564 913 564 925 q 563 906 564 911 q 534 843 556 871 q 480 799 512 815 q 411 783 448 783 z "},"ğ":{"ha":720,"x_min":43,"x_max":668,"o":"m 403 82 q 432 70 420 82 q 444 41 444 58 q 432 12 444 24 q 403 0 420 0 q 223 49 306 0 q 92 180 140 97 q 43 360 43 262 q 92 541 43 458 q 223 672 140 623 q 403 720 306 720 l 627 720 q 656 708 644 720 q 668 679 668 696 q 656 650 668 663 q 627 638 644 638 l 403 638 q 264 601 328 638 q 163 499 200 563 q 125 360 125 436 q 163 221 125 284 q 264 119 200 157 q 403 82 328 82 m 666 41 q 654 12 666 24 q 625 1 641 1 q 596 12 608 1 q 584 41 584 24 l 584 313 q 596 342 584 330 q 625 354 608 354 q 654 342 641 354 q 666 313 666 330 l 666 41 m 411 783 q 342 799 374 783 q 288 843 310 815 q 258 906 265 871 q 257 913 257 911 q 265 935 257 925 q 288 944 274 944 q 307 937 299 944 q 318 919 315 930 q 349 866 324 886 q 411 846 374 846 q 473 866 448 846 q 503 919 497 886 q 514 937 506 930 q 533 944 522 944 q 556 935 547 944 q 564 913 564 925 q 563 906 564 911 q 534 843 556 871 q 480 799 512 815 q 411 783 448 783 z "},"Ĝ":{"ha":720,"x_min":43,"x_max":668,"o":"m 403 82 q 432 70 420 82 q 444 41 444 58 q 432 12 444 24 q 403 0 420 0 q 223 49 306 0 q 92 180 140 97 q 43 360 43 262 q 92 541 43 458 q 223 672 140 623 q 403 720 306 720 l 627 720 q 656 708 644 720 q 668 679 668 696 q 656 650 668 663 q 627 638 644 638 l 403 638 q 264 601 328 638 q 163 499 200 563 q 125 360 125 436 q 163 221 125 284 q 264 119 200 157 q 403 82 328 82 m 666 41 q 654 12 666 24 q 625 1 641 1 q 596 12 608 1 q 584 41 584 24 l 584 313 q 596 342 584 330 q 625 354 608 354 q 654 342 641 354 q 666 313 666 330 l 666 41 m 390 947 q 410 954 399 954 q 433 945 423 954 q 442 923 442 936 q 431 899 442 909 l 324 806 q 303 798 315 798 q 281 808 290 798 q 272 830 272 817 q 282 853 272 844 l 390 947 m 432 947 l 539 853 q 549 830 549 844 q 540 808 549 817 q 518 798 531 798 q 497 806 506 798 l 390 899 l 432 947 z "},"ĝ":{"ha":720,"x_min":43,"x_max":668,"o":"m 403 82 q 432 70 420 82 q 444 41 444 58 q 432 12 444 24 q 403 0 420 0 q 223 49 306 0 q 92 180 140 97 q 43 360 43 262 q 92 541 43 458 q 223 672 140 623 q 403 720 306 720 l 627 720 q 656 708 644 720 q 668 679 668 696 q 656 650 668 663 q 627 638 644 638 l 403 638 q 264 601 328 638 q 163 499 200 563 q 125 360 125 436 q 163 221 125 284 q 264 119 200 157 q 403 82 328 82 m 666 41 q 654 12 666 24 q 625 1 641 1 q 596 12 608 1 q 584 41 584 24 l 584 313 q 596 342 584 330 q 625 354 608 354 q 654 342 641 354 q 666 313 666 330 l 666 41 m 390 947 q 410 954 399 954 q 433 945 423 954 q 442 923 442 936 q 431 899 442 909 l 324 806 q 303 798 315 798 q 281 808 290 798 q 272 830 272 817 q 282 853 272 844 l 390 947 m 432 947 l 539 853 q 549 830 549 844 q 540 808 549 817 q 518 798 531 798 q 497 806 506 798 l 390 899 l 432 947 z "},"Ģ":{"ha":720,"x_min":43,"x_max":668,"o":"m 403 82 q 432 70 420 82 q 444 41 444 58 q 432 12 444 24 q 403 0 420 0 q 223 49 306 0 q 92 180 140 97 q 43 360 43 262 q 92 541 43 458 q 223 672 140 623 q 403 720 306 720 l 627 720 q 656 708 644 720 q 668 679 668 696 q 656 650 668 663 q 627 638 644 638 l 403 638 q 264 601 328 638 q 163 499 200 563 q 125 360 125 436 q 163 221 125 284 q 264 119 200 157 q 403 82 328 82 m 666 41 q 654 12 666 24 q 625 1 641 1 q 596 12 608 1 q 584 41 584 24 l 584 313 q 596 342 584 330 q 625 354 608 354 q 654 342 641 354 q 666 313 666 330 l 666 41 z "},"ģ":{"ha":720,"x_min":43,"x_max":668,"o":"m 403 82 q 432 70 420 82 q 444 41 444 58 q 432 12 444 24 q 403 0 420 0 q 223 49 306 0 q 92 180 140 97 q 43 360 43 262 q 92 541 43 458 q 223 672 140 623 q 403 720 306 720 l 627 720 q 656 708 644 720 q 668 679 668 696 q 656 650 668 663 q 627 638 644 638 l 403 638 q 264 601 328 638 q 163 499 200 563 q 125 360 125 436 q 163 221 125 284 q 264 119 200 157 q 403 82 328 82 m 666 41 q 654 12 666 24 q 625 1 641 1 q 596 12 608 1 q 584 41 584 24 l 584 313 q 596 342 584 330 q 625 354 608 354 q 654 342 641 354 q 666 313 666 330 l 666 41 z "},"Ġ":{"ha":720,"x_min":43,"x_max":668,"o":"m 403 82 q 432 70 420 82 q 444 41 444 58 q 432 12 444 24 q 403 0 420 0 q 223 49 306 0 q 92 180 140 97 q 43 360 43 262 q 92 541 43 458 q 223 672 140 623 q 403 720 306 720 l 627 720 q 656 708 644 720 q 668 679 668 696 q 656 650 668 663 q 627 638 644 638 l 403 638 q 264 601 328 638 q 163 499 200 563 q 125 360 125 436 q 163 221 125 284 q 264 119 200 157 q 403 82 328 82 m 666 41 q 654 12 666 24 q 625 1 641 1 q 596 12 608 1 q 584 41 584 24 l 584 313 q 596 342 584 330 q 625 354 608 354 q 654 342 641 354 q 666 313 666 330 l 666 41 m 410 813 q 380 826 392 813 q 367 857 367 840 q 380 888 367 875 q 410 901 392 901 q 441 888 428 901 q 454 857 454 875 q 441 826 454 839 q 410 813 428 813 z "},"ġ":{"ha":720,"x_min":43,"x_max":668,"o":"m 403 82 q 432 70 420 82 q 444 41 444 58 q 432 12 444 24 q 403 0 420 0 q 223 49 306 0 q 92 180 140 97 q 43 360 43 262 q 92 541 43 458 q 223 672 140 623 q 403 720 306 720 l 627 720 q 656 708 644 720 q 668 679 668 696 q 656 650 668 663 q 627 638 644 638 l 403 638 q 264 601 328 638 q 163 499 200 563 q 125 360 125 436 q 163 221 125 284 q 264 119 200 157 q 403 82 328 82 m 666 41 q 654 12 666 24 q 625 1 641 1 q 596 12 608 1 q 584 41 584 24 l 584 313 q 596 342 584 330 q 625 354 608 354 q 654 342 641 354 q 666 313 666 330 l 666 41 m 410 813 q 380 826 392 813 q 367 857 367 840 q 380 888 367 875 q 410 901 392 901 q 441 888 428 901 q 454 857 454 875 q 441 826 454 839 q 410 813 428 813 z "},"Ḡ":{"ha":720,"x_min":43,"x_max":668,"o":"m 403 82 q 432 70 420 82 q 444 41 444 58 q 432 12 444 24 q 403 0 420 0 q 223 49 306 0 q 92 180 140 97 q 43 360 43 262 q 92 541 43 458 q 223 672 140 623 q 403 720 306 720 l 627 720 q 656 708 644 720 q 668 679 668 696 q 656 650 668 663 q 627 638 644 638 l 403 638 q 264 601 328 638 q 163 499 200 563 q 125 360 125 436 q 163 221 125 284 q 264 119 200 157 q 403 82 328 82 m 666 41 q 654 12 666 24 q 625 1 641 1 q 596 12 608 1 q 584 41 584 24 l 584 313 q 596 342 584 330 q 625 354 608 354 q 654 342 641 354 q 666 313 666 330 l 666 41 m 296 829 q 274 838 283 829 q 265 860 265 847 q 274 882 265 873 q 296 891 283 891 l 525 891 q 547 882 538 891 q 556 860 556 873 q 547 838 556 847 q 525 829 538 829 l 296 829 z "},"ḡ":{"ha":720,"x_min":43,"x_max":668,"o":"m 403 82 q 432 70 420 82 q 444 41 444 58 q 432 12 444 24 q 403 0 420 0 q 223 49 306 0 q 92 180 140 97 q 43 360 43 262 q 92 541 43 458 q 223 672 140 623 q 403 720 306 720 l 627 720 q 656 708 644 720 q 668 679 668 696 q 656 650 668 663 q 627 638 644 638 l 403 638 q 264 601 328 638 q 163 499 200 563 q 125 360 125 436 q 163 221 125 284 q 264 119 200 157 q 403 82 328 82 m 666 41 q 654 12 666 24 q 625 1 641 1 q 596 12 608 1 q 584 41 584 24 l 584 313 q 596 342 584 330 q 625 354 608 354 q 654 342 641 354 q 666 313 666 330 l 666 41 m 296 829 q 274 838 283 829 q 265 860 265 847 q 274 882 265 873 q 296 891 283 891 l 525 891 q 547 882 538 891 q 556 860 556 873 q 547 838 556 847 q 525 829 538 829 l 296 829 z "},"H":{"ha":704,"x_min":52,"x_max":652,"o":"m 135 41 q 123 12 135 24 q 94 0 111 0 q 65 12 77 0 q 53 41 53 24 l 52 171 q 65 200 52 188 q 94 212 77 212 q 122 200 111 212 q 134 171 134 188 l 135 41 m 53 679 q 65 708 53 696 q 94 720 77 720 q 123 708 111 720 q 135 679 135 696 l 135 360 q 123 331 135 343 q 94 319 111 319 q 65 331 77 319 q 53 360 53 343 l 53 679 m 611 319 l 94 319 l 94 401 l 611 401 l 611 319 m 570 360 q 582 389 570 377 q 611 401 594 401 q 640 389 628 401 q 652 360 652 377 l 652 26 q 640 -3 652 9 q 611 -15 628 -15 q 582 -3 594 -15 q 570 26 570 9 l 570 360 m 652 549 q 640 520 652 532 q 611 508 628 508 q 582 520 594 508 q 570 549 570 532 l 570 679 q 582 708 570 696 q 611 720 594 720 q 640 708 628 720 q 652 679 652 696 l 652 549 z "},"h":{"ha":704,"x_min":52,"x_max":652,"o":"m 135 41 q 123 12 135 24 q 94 0 111 0 q 65 12 77 0 q 53 41 53 24 l 52 171 q 65 200 52 188 q 94 212 77 212 q 122 200 111 212 q 134 171 134 188 l 135 41 m 53 679 q 65 708 53 696 q 94 720 77 720 q 123 708 111 720 q 135 679 135 696 l 135 360 q 123 331 135 343 q 94 319 111 319 q 65 331 77 319 q 53 360 53 343 l 53 679 m 611 319 l 94 319 l 94 401 l 611 401 l 611 319 m 570 360 q 582 389 570 377 q 611 401 594 401 q 640 389 628 401 q 652 360 652 377 l 652 26 q 640 -3 652 9 q 611 -15 628 -15 q 582 -3 594 -15 q 570 26 570 9 l 570 360 m 652 549 q 640 520 652 532 q 611 508 628 508 q 582 520 594 508 q 570 549 570 532 l 570 679 q 582 708 570 696 q 611 720 594 720 q 640 708 628 720 q 652 679 652 696 l 652 549 z "},"Ĥ":{"ha":704,"x_min":52,"x_max":652,"o":"m 135 41 q 123 12 135 24 q 94 0 111 0 q 65 12 77 0 q 53 41 53 24 l 52 171 q 65 200 52 188 q 94 212 77 212 q 122 200 111 212 q 134 171 134 188 l 135 41 m 53 679 q 65 708 53 696 q 94 720 77 720 q 123 708 111 720 q 135 679 135 696 l 135 360 q 123 331 135 343 q 94 319 111 319 q 65 331 77 319 q 53 360 53 343 l 53 679 m 611 319 l 94 319 l 94 401 l 611 401 l 611 319 m 570 360 q 582 389 570 377 q 611 401 594 401 q 640 389 628 401 q 652 360 652 377 l 652 26 q 640 -3 652 9 q 611 -15 628 -15 q 582 -3 594 -15 q 570 26 570 9 l 570 360 m 652 549 q 640 520 652 532 q 611 508 628 508 q 582 520 594 508 q 570 549 570 532 l 570 679 q 582 708 570 696 q 611 720 594 720 q 640 708 628 720 q 652 679 652 696 l 652 549 m 332 947 q 352 954 341 954 q 374 945 365 954 q 384 923 384 936 q 373 899 384 909 l 265 806 q 245 798 257 798 q 223 808 232 798 q 213 830 213 817 q 224 853 213 844 l 332 947 m 373 947 l 480 853 q 491 830 491 844 q 482 808 491 817 q 460 798 473 798 q 439 806 448 798 l 332 899 l 373 947 z "},"ĥ":{"ha":704,"x_min":52,"x_max":652,"o":"m 135 41 q 123 12 135 24 q 94 0 111 0 q 65 12 77 0 q 53 41 53 24 l 52 171 q 65 200 52 188 q 94 212 77 212 q 122 200 111 212 q 134 171 134 188 l 135 41 m 53 679 q 65 708 53 696 q 94 720 77 720 q 123 708 111 720 q 135 679 135 696 l 135 360 q 123 331 135 343 q 94 319 111 319 q 65 331 77 319 q 53 360 53 343 l 53 679 m 611 319 l 94 319 l 94 401 l 611 401 l 611 319 m 570 360 q 582 389 570 377 q 611 401 594 401 q 640 389 628 401 q 652 360 652 377 l 652 26 q 640 -3 652 9 q 611 -15 628 -15 q 582 -3 594 -15 q 570 26 570 9 l 570 360 m 652 549 q 640 520 652 532 q 611 508 628 508 q 582 520 594 508 q 570 549 570 532 l 570 679 q 582 708 570 696 q 611 720 594 720 q 640 708 628 720 q 652 679 652 696 l 652 549 m 332 947 q 352 954 341 954 q 374 945 365 954 q 384 923 384 936 q 373 899 384 909 l 265 806 q 245 798 257 798 q 223 808 232 798 q 213 830 213 817 q 224 853 213 844 l 332 947 m 373 947 l 480 853 q 491 830 491 844 q 482 808 491 817 q 460 798 473 798 q 439 806 448 798 l 332 899 l 373 947 z "},"I":{"ha":187,"x_min":52,"x_max":135,"o":"m 135 41 q 123 12 135 24 q 94 0 111 0 q 65 12 77 0 q 52 41 52 24 l 53 251 q 65 280 53 267 q 94 292 77 292 q 123 280 111 292 q 135 251 135 267 l 135 41 m 135 470 q 123 441 135 453 q 94 429 111 429 q 65 441 77 429 q 53 470 53 453 l 53 679 q 65 708 53 696 q 94 720 77 720 q 123 708 111 720 q 135 679 135 696 l 135 470 z "},"ı":{"ha":187,"x_min":52,"x_max":135,"o":"m 135 41 q 123 12 135 24 q 94 0 111 0 q 65 12 77 0 q 52 41 52 24 l 53 251 q 65 280 53 267 q 94 292 77 292 q 123 280 111 292 q 135 251 135 267 l 135 41 m 135 470 q 123 441 135 453 q 94 429 111 429 q 65 441 77 429 q 53 470 53 453 l 53 679 q 65 708 53 696 q 94 720 77 720 q 123 708 111 720 q 135 679 135 696 l 135 470 z "},"Ĳ":{"ha":798,"x_min":52,"x_max":749,"o":"m 135 41 q 123 12 135 24 q 94 0 111 0 q 65 12 77 0 q 52 41 52 24 l 53 251 q 65 280 53 267 q 94 292 77 292 q 123 280 111 292 q 135 251 135 267 l 135 41 m 135 470 q 123 441 135 453 q 94 429 111 429 q 65 441 77 429 q 53 470 53 453 l 53 679 q 65 708 53 696 q 94 720 77 720 q 123 708 111 720 q 135 679 135 696 l 135 470 m 667 261 q 679 290 667 278 q 708 302 691 302 q 737 290 725 302 q 749 261 749 278 q 714 130 749 190 q 618 34 678 69 q 487 -1 558 -1 q 355 34 416 -1 q 260 130 295 69 q 224 261 224 190 q 236 290 224 278 q 265 302 248 302 q 294 290 282 302 q 306 261 306 278 q 331 171 306 212 q 397 105 355 129 q 487 81 438 81 q 577 105 536 81 q 643 171 619 129 q 667 261 667 212 m 749 477 q 737 449 749 460 q 709 437 725 437 q 680 449 692 437 q 668 477 668 460 l 668 679 q 680 708 668 696 q 708 720 692 720 q 737 708 725 720 q 749 679 749 696 l 749 477 z "},"ĳ":{"ha":798,"x_min":52,"x_max":749,"o":"m 135 41 q 123 12 135 24 q 94 0 111 0 q 65 12 77 0 q 52 41 52 24 l 53 251 q 65 280 53 267 q 94 292 77 292 q 123 280 111 292 q 135 251 135 267 l 135 41 m 135 470 q 123 441 135 453 q 94 429 111 429 q 65 441 77 429 q 53 470 53 453 l 53 679 q 65 708 53 696 q 94 720 77 720 q 123 708 111 720 q 135 679 135 696 l 135 470 m 667 261 q 679 290 667 278 q 708 302 691 302 q 737 290 725 302 q 749 261 749 278 q 714 130 749 190 q 618 34 678 69 q 487 -1 558 -1 q 355 34 416 -1 q 260 130 295 69 q 224 261 224 190 q 236 290 224 278 q 265 302 248 302 q 294 290 282 302 q 306 261 306 278 q 331 171 306 212 q 397 105 355 129 q 487 81 438 81 q 577 105 536 81 q 643 171 619 129 q 667 261 667 212 m 749 477 q 737 449 749 460 q 709 437 725 437 q 680 449 692 437 q 668 477 668 460 l 668 679 q 680 708 668 696 q 708 720 692 720 q 737 708 725 720 q 749 679 749 696 l 749 477 z "},"Í":{"ha":187,"x_min":52,"x_max":271,"o":"m 135 41 q 123 12 135 24 q 94 0 111 0 q 65 12 77 0 q 52 41 52 24 l 53 251 q 65 280 53 267 q 94 292 77 292 q 123 280 111 292 q 135 251 135 267 l 135 41 m 135 470 q 123 441 135 453 q 94 429 111 429 q 65 441 77 429 q 53 470 53 453 l 53 679 q 65 708 53 696 q 94 720 77 720 q 123 708 111 720 q 135 679 135 696 l 135 470 m 116 802 q 98 796 108 796 q 76 805 85 796 q 67 827 67 814 q 80 853 67 844 l 221 951 q 239 957 230 957 q 261 948 252 957 q 271 925 271 938 q 257 900 271 909 l 116 802 z "},"í":{"ha":187,"x_min":52,"x_max":271,"o":"m 135 41 q 123 12 135 24 q 94 0 111 0 q 65 12 77 0 q 52 41 52 24 l 53 251 q 65 280 53 267 q 94 292 77 292 q 123 280 111 292 q 135 251 135 267 l 135 41 m 135 470 q 123 441 135 453 q 94 429 111 429 q 65 441 77 429 q 53 470 53 453 l 53 679 q 65 708 53 696 q 94 720 77 720 q 123 708 111 720 q 135 679 135 696 l 135 470 m 116 802 q 98 796 108 796 q 76 805 85 796 q 67 827 67 814 q 80 853 67 844 l 221 951 q 239 957 230 957 q 261 948 252 957 q 271 925 271 938 q 257 900 271 909 l 116 802 z "},"Ǐ":{"ha":187,"x_min":-45,"x_max":233,"o":"m 135 41 q 123 12 135 24 q 94 0 111 0 q 65 12 77 0 q 52 41 52 24 l 53 251 q 65 280 53 267 q 94 292 77 292 q 123 280 111 292 q 135 251 135 267 l 135 41 m 135 470 q 123 441 135 453 q 94 429 111 429 q 65 441 77 429 q 53 470 53 453 l 53 679 q 65 708 53 696 q 94 720 77 720 q 123 708 111 720 q 135 679 135 696 l 135 470 m -34 899 q -45 923 -45 909 q -36 945 -45 936 q -14 954 -27 954 q 7 947 -2 954 l 114 853 q 125 830 125 844 q 116 808 125 817 q 94 798 106 798 q 73 806 82 798 l -34 899 m 181 947 q 201 954 189 954 q 223 945 214 954 q 233 923 233 936 q 222 899 233 909 l 115 806 l 74 853 l 181 947 z "},"ǐ":{"ha":187,"x_min":-45,"x_max":233,"o":"m 135 41 q 123 12 135 24 q 94 0 111 0 q 65 12 77 0 q 52 41 52 24 l 53 251 q 65 280 53 267 q 94 292 77 292 q 123 280 111 292 q 135 251 135 267 l 135 41 m 135 470 q 123 441 135 453 q 94 429 111 429 q 65 441 77 429 q 53 470 53 453 l 53 679 q 65 708 53 696 q 94 720 77 720 q 123 708 111 720 q 135 679 135 696 l 135 470 m -34 899 q -45 923 -45 909 q -36 945 -45 936 q -14 954 -27 954 q 7 947 -2 954 l 114 853 q 125 830 125 844 q 116 808 125 817 q 94 798 106 798 q 73 806 82 798 l -34 899 m 181 947 q 201 954 189 954 q 223 945 214 954 q 233 923 233 936 q 222 899 233 909 l 115 806 l 74 853 l 181 947 z "},"Î":{"ha":187,"x_min":-45,"x_max":233,"o":"m 135 41 q 123 12 135 24 q 94 0 111 0 q 65 12 77 0 q 52 41 52 24 l 53 251 q 65 280 53 267 q 94 292 77 292 q 123 280 111 292 q 135 251 135 267 l 135 41 m 135 470 q 123 441 135 453 q 94 429 111 429 q 65 441 77 429 q 53 470 53 453 l 53 679 q 65 708 53 696 q 94 720 77 720 q 123 708 111 720 q 135 679 135 696 l 135 470 m 73 947 q 94 954 82 954 q 116 945 106 954 q 125 923 125 936 q 114 899 125 909 l 7 806 q -14 798 -2 798 q -36 808 -27 798 q -45 830 -45 817 q -34 853 -45 844 l 73 947 m 115 947 l 222 853 q 233 830 233 844 q 223 808 233 817 q 201 798 214 798 q 181 806 189 798 l 74 899 l 115 947 z "},"î":{"ha":187,"x_min":-45,"x_max":233,"o":"m 135 41 q 123 12 135 24 q 94 0 111 0 q 65 12 77 0 q 52 41 52 24 l 53 251 q 65 280 53 267 q 94 292 77 292 q 123 280 111 292 q 135 251 135 267 l 135 41 m 135 470 q 123 441 135 453 q 94 429 111 429 q 65 441 77 429 q 53 470 53 453 l 53 679 q 65 708 53 696 q 94 720 77 720 q 123 708 111 720 q 135 679 135 696 l 135 470 m 73 947 q 94 954 82 954 q 116 945 106 954 q 125 923 125 936 q 114 899 125 909 l 7 806 q -14 798 -2 798 q -36 808 -27 798 q -45 830 -45 817 q -34 853 -45 844 l 73 947 m 115 947 l 222 853 q 233 830 233 844 q 223 808 233 817 q 201 798 214 798 q 181 806 189 798 l 74 899 l 115 947 z "},"Ï":{"ha":187,"x_min":-44,"x_max":231,"o":"m 135 41 q 123 12 135 24 q 94 0 111 0 q 65 12 77 0 q 52 41 52 24 l 53 251 q 65 280 53 267 q 94 292 77 292 q 123 280 111 292 q 135 251 135 267 l 135 41 m 135 470 q 123 441 135 453 q 94 429 111 429 q 65 441 77 429 q 53 470 53 453 l 53 679 q 65 708 53 696 q 94 720 77 720 q 123 708 111 720 q 135 679 135 696 l 135 470 m 188 813 q 157 826 170 813 q 144 857 144 839 q 157 888 144 875 q 188 901 170 901 q 219 888 206 901 q 231 857 231 875 q 219 826 231 840 q 188 813 206 813 m 0 813 q -31 826 -18 813 q -44 857 -44 839 q -31 888 -44 875 q -1 901 -19 901 q 31 888 17 901 q 44 857 44 875 q 31 826 44 840 q 0 813 17 813 z "},"ï":{"ha":187,"x_min":-44,"x_max":231,"o":"m 135 41 q 123 12 135 24 q 94 0 111 0 q 65 12 77 0 q 52 41 52 24 l 53 251 q 65 280 53 267 q 94 292 77 292 q 123 280 111 292 q 135 251 135 267 l 135 41 m 135 470 q 123 441 135 453 q 94 429 111 429 q 65 441 77 429 q 53 470 53 453 l 53 679 q 65 708 53 696 q 94 720 77 720 q 123 708 111 720 q 135 679 135 696 l 135 470 m 188 813 q 157 826 170 813 q 144 857 144 839 q 157 888 144 875 q 188 901 170 901 q 219 888 206 901 q 231 857 231 875 q 219 826 231 840 q 188 813 206 813 m 0 813 q -31 826 -18 813 q -44 857 -44 839 q -31 888 -44 875 q -1 901 -19 901 q 31 888 17 901 q 44 857 44 875 q 31 826 44 840 q 0 813 17 813 z "},"İ":{"ha":199,"x_min":52,"x_max":147,"o":"m 100 813 q 66 827 80 813 q 52 860 52 841 q 66 893 52 879 q 99 907 80 907 q 133 893 119 907 q 147 860 147 879 q 133 827 147 841 q 100 813 119 813 m 140 41 q 129 12 140 24 q 100 0 117 0 q 71 12 83 0 q 59 41 59 24 l 59 251 q 71 280 59 267 q 100 292 83 292 q 129 280 117 292 q 140 251 140 267 l 140 41 m 140 470 q 129 441 140 453 q 100 429 117 429 q 71 441 83 429 q 59 470 59 453 l 59 679 q 71 708 59 696 q 100 720 83 720 q 129 708 117 720 q 140 679 140 696 l 140 470 z "},"Ị":{"ha":187,"x_min":50,"x_max":137,"o":"m 135 41 q 123 12 135 24 q 94 0 111 0 q 65 12 77 0 q 52 41 52 24 l 53 251 q 65 280 53 267 q 94 292 77 292 q 123 280 111 292 q 135 251 135 267 l 135 41 m 135 470 q 123 441 135 453 q 94 429 111 429 q 65 441 77 429 q 53 470 53 453 l 53 679 q 65 708 53 696 q 94 720 77 720 q 123 708 111 720 q 135 679 135 696 l 135 470 m 94 -156 q 63 -144 76 -156 q 50 -113 50 -131 q 63 -82 50 -95 q 94 -69 76 -69 q 124 -82 112 -69 q 137 -113 137 -95 q 124 -144 137 -131 q 94 -156 112 -156 z "},"ị":{"ha":187,"x_min":50,"x_max":137,"o":"m 135 41 q 123 12 135 24 q 94 0 111 0 q 65 12 77 0 q 52 41 52 24 l 53 251 q 65 280 53 267 q 94 292 77 292 q 123 280 111 292 q 135 251 135 267 l 135 41 m 135 470 q 123 441 135 453 q 94 429 111 429 q 65 441 77 429 q 53 470 53 453 l 53 679 q 65 708 53 696 q 94 720 77 720 q 123 708 111 720 q 135 679 135 696 l 135 470 m 94 -156 q 63 -144 76 -156 q 50 -113 50 -131 q 63 -82 50 -95 q 94 -69 76 -69 q 124 -82 112 -69 q 137 -113 137 -95 q 124 -144 137 -131 q 94 -156 112 -156 z "},"Ì":{"ha":187,"x_min":-83,"x_max":135,"o":"m 135 41 q 123 12 135 24 q 94 0 111 0 q 65 12 77 0 q 52 41 52 24 l 53 251 q 65 280 53 267 q 94 292 77 292 q 123 280 111 292 q 135 251 135 267 l 135 41 m 135 470 q 123 441 135 453 q 94 429 111 429 q 65 441 77 429 q 53 470 53 453 l 53 679 q 65 708 53 696 q 94 720 77 720 q 123 708 111 720 q 135 679 135 696 l 135 470 m -70 900 q -83 925 -83 909 q -74 948 -83 938 q -52 957 -65 957 q -34 951 -43 957 l 107 853 q 120 827 120 844 q 111 805 120 814 q 89 796 102 796 q 71 802 80 796 l -70 900 z "},"ì":{"ha":187,"x_min":-83,"x_max":135,"o":"m 135 41 q 123 12 135 24 q 94 0 111 0 q 65 12 77 0 q 52 41 52 24 l 53 251 q 65 280 53 267 q 94 292 77 292 q 123 280 111 292 q 135 251 135 267 l 135 41 m 135 470 q 123 441 135 453 q 94 429 111 429 q 65 441 77 429 q 53 470 53 453 l 53 679 q 65 708 53 696 q 94 720 77 720 q 123 708 111 720 q 135 679 135 696 l 135 470 m -70 900 q -83 925 -83 909 q -74 948 -83 938 q -52 957 -65 957 q -34 951 -43 957 l 107 853 q 120 827 120 844 q 111 805 120 814 q 89 796 102 796 q 71 802 80 796 l -70 900 z "},"Ỉ":{"ha":187,"x_min":39,"x_max":164,"o":"m 135 41 q 123 12 135 24 q 94 0 111 0 q 65 12 77 0 q 52 41 52 24 l 53 251 q 65 280 53 267 q 94 292 77 292 q 123 280 111 292 q 135 251 135 267 l 135 41 m 135 470 q 123 441 135 453 q 94 429 111 429 q 65 441 77 429 q 53 470 53 453 l 53 679 q 65 708 53 696 q 94 720 77 720 q 123 708 111 720 q 135 679 135 696 l 135 470 m 66 917 q 47 925 55 917 q 39 944 39 933 q 47 965 39 956 q 66 973 55 973 q 115 960 93 973 q 151 924 138 947 q 164 876 164 902 q 151 826 164 849 q 115 791 138 804 q 66 778 93 778 q 47 786 55 778 q 39 806 39 794 q 47 826 39 818 q 66 834 55 834 q 96 846 84 834 q 108 876 108 858 q 96 905 108 892 q 66 917 84 917 z "},"ỉ":{"ha":187,"x_min":39,"x_max":164,"o":"m 135 41 q 123 12 135 24 q 94 0 111 0 q 65 12 77 0 q 52 41 52 24 l 53 251 q 65 280 53 267 q 94 292 77 292 q 123 280 111 292 q 135 251 135 267 l 135 41 m 135 470 q 123 441 135 453 q 94 429 111 429 q 65 441 77 429 q 53 470 53 453 l 53 679 q 65 708 53 696 q 94 720 77 720 q 123 708 111 720 q 135 679 135 696 l 135 470 m 66 917 q 47 925 55 917 q 39 944 39 933 q 47 965 39 956 q 66 973 55 973 q 115 960 93 973 q 151 924 138 947 q 164 876 164 902 q 151 826 164 849 q 115 791 138 804 q 66 778 93 778 q 47 786 55 778 q 39 806 39 794 q 47 826 39 818 q 66 834 55 834 q 96 846 84 834 q 108 876 108 858 q 96 905 108 892 q 66 917 84 917 z "},"Ī":{"ha":216,"x_min":-38,"x_max":254,"o":"m -6 829 q -29 838 -20 829 q -38 860 -38 847 q -29 882 -38 873 q -6 891 -20 891 l 222 891 q 245 882 236 891 q 254 860 254 873 q 245 838 254 847 q 222 829 236 829 l -6 829 m 135 41 q 123 12 135 24 q 94 0 111 0 q 65 12 77 0 q 52 41 52 24 l 53 251 q 65 280 53 267 q 94 292 77 292 q 123 280 111 292 q 135 251 135 267 l 135 41 m 135 470 q 123 441 135 453 q 94 429 111 429 q 65 441 77 429 q 53 470 53 453 l 53 679 q 65 708 53 696 q 94 720 77 720 q 123 708 111 720 q 135 679 135 696 l 135 470 z "},"ī":{"ha":216,"x_min":-38,"x_max":254,"o":"m -6 829 q -29 838 -20 829 q -38 860 -38 847 q -29 882 -38 873 q -6 891 -20 891 l 222 891 q 245 882 236 891 q 254 860 254 873 q 245 838 254 847 q 222 829 236 829 l -6 829 m 135 41 q 123 12 135 24 q 94 0 111 0 q 65 12 77 0 q 52 41 52 24 l 53 251 q 65 280 53 267 q 94 292 77 292 q 123 280 111 292 q 135 251 135 267 l 135 41 m 135 470 q 123 441 135 453 q 94 429 111 429 q 65 441 77 429 q 53 470 53 453 l 53 679 q 65 708 53 696 q 94 720 77 720 q 123 708 111 720 q 135 679 135 696 l 135 470 z "},"Į":{"ha":187,"x_min":-3,"x_max":135,"o":"m 135 41 q 123 12 135 24 q 94 0 111 0 q 65 12 77 0 q 52 41 52 24 l 53 251 q 65 280 53 267 q 94 292 77 292 q 123 280 111 292 q 135 251 135 267 l 135 41 m 135 470 q 123 441 135 453 q 94 429 111 429 q 65 441 77 429 q 53 470 53 453 l 53 679 q 65 708 53 696 q 94 720 77 720 q 123 708 111 720 q 135 679 135 696 l 135 470 m 32 -156 q 6 -145 15 -156 q -3 -120 -3 -134 q -1 -106 -3 -113 l 66 54 q 79 69 70 63 q 99 75 88 75 q 124 64 115 75 q 134 39 134 53 q 131 25 134 32 l 64 -135 q 51 -150 60 -145 q 32 -156 43 -156 z "},"į":{"ha":187,"x_min":-3,"x_max":135,"o":"m 135 41 q 123 12 135 24 q 94 0 111 0 q 65 12 77 0 q 52 41 52 24 l 53 251 q 65 280 53 267 q 94 292 77 292 q 123 280 111 292 q 135 251 135 267 l 135 41 m 135 470 q 123 441 135 453 q 94 429 111 429 q 65 441 77 429 q 53 470 53 453 l 53 679 q 65 708 53 696 q 94 720 77 720 q 123 708 111 720 q 135 679 135 696 l 135 470 m 32 -156 q 6 -145 15 -156 q -3 -120 -3 -134 q -1 -106 -3 -113 l 66 54 q 79 69 70 63 q 99 75 88 75 q 124 64 115 75 q 134 39 134 53 q 131 25 134 32 l 64 -135 q 51 -150 60 -145 q 32 -156 43 -156 z "},"Ĩ":{"ha":187,"x_min":-59,"x_max":246,"o":"m 135 41 q 123 12 135 24 q 94 0 111 0 q 65 12 77 0 q 52 41 52 24 l 53 251 q 65 280 53 267 q 94 292 77 292 q 123 280 111 292 q 135 251 135 267 l 135 41 m 135 470 q 123 441 135 453 q 94 429 111 429 q 65 441 77 429 q 53 470 53 453 l 53 679 q 65 708 53 696 q 94 720 77 720 q 123 708 111 720 q 135 679 135 696 l 135 470 m 186 894 q 198 908 190 903 q 215 914 205 914 q 237 905 228 914 q 246 882 246 896 q 244 870 246 877 q 208 824 232 841 q 154 808 184 808 q 73 841 112 808 q 32 862 49 862 q 1 834 12 862 q -11 820 -3 826 q -28 815 -19 815 q -50 824 -41 815 q -59 846 -59 833 q -57 858 -59 852 q -20 904 -44 888 q 33 921 4 921 q 114 888 76 921 q 155 867 139 867 q 186 894 175 867 z "},"ĩ":{"ha":187,"x_min":-59,"x_max":246,"o":"m 135 41 q 123 12 135 24 q 94 0 111 0 q 65 12 77 0 q 52 41 52 24 l 53 251 q 65 280 53 267 q 94 292 77 292 q 123 280 111 292 q 135 251 135 267 l 135 41 m 135 470 q 123 441 135 453 q 94 429 111 429 q 65 441 77 429 q 53 470 53 453 l 53 679 q 65 708 53 696 q 94 720 77 720 q 123 708 111 720 q 135 679 135 696 l 135 470 m 186 894 q 198 908 190 903 q 215 914 205 914 q 237 905 228 914 q 246 882 246 896 q 244 870 246 877 q 208 824 232 841 q 154 808 184 808 q 73 841 112 808 q 32 862 49 862 q 1 834 12 862 q -11 820 -3 826 q -28 815 -19 815 q -50 824 -41 815 q -59 846 -59 833 q -57 858 -59 852 q -20 904 -44 888 q 33 921 4 921 q 114 888 76 921 q 155 867 139 867 q 186 894 175 867 z "},"J":{"ha":611,"x_min":38,"x_max":563,"o":"m 480 261 q 493 290 480 278 q 522 302 505 302 q 550 290 538 302 q 562 261 562 278 q 527 130 562 190 q 432 34 492 69 q 300 -1 371 -1 q 169 34 229 -1 q 73 130 109 69 q 38 261 38 190 q 50 290 38 278 q 79 302 62 302 q 107 290 95 302 q 119 261 119 278 q 144 171 119 212 q 210 105 168 129 q 300 81 252 81 q 391 105 349 81 q 456 171 432 129 q 480 261 480 212 m 563 477 q 551 449 563 460 q 522 437 539 437 q 493 449 505 437 q 481 477 481 460 l 481 679 q 493 708 481 696 q 522 720 505 720 q 551 708 539 720 q 563 679 563 696 l 563 477 z "},"j":{"ha":611,"x_min":38,"x_max":563,"o":"m 480 261 q 493 290 480 278 q 522 302 505 302 q 550 290 538 302 q 562 261 562 278 q 527 130 562 190 q 432 34 492 69 q 300 -1 371 -1 q 169 34 229 -1 q 73 130 109 69 q 38 261 38 190 q 50 290 38 278 q 79 302 62 302 q 107 290 95 302 q 119 261 119 278 q 144 171 119 212 q 210 105 168 129 q 300 81 252 81 q 391 105 349 81 q 456 171 432 129 q 480 261 480 212 m 563 477 q 551 449 563 460 q 522 437 539 437 q 493 449 505 437 q 481 477 481 460 l 481 679 q 493 708 481 696 q 522 720 505 720 q 551 708 539 720 q 563 679 563 696 l 563 477 z "},"ȷ":{"ha":611,"x_min":38,"x_max":563,"o":"m 480 261 q 493 290 480 278 q 522 302 505 302 q 550 290 538 302 q 562 261 562 278 q 527 130 562 190 q 432 34 492 69 q 300 -1 371 -1 q 169 34 229 -1 q 73 130 109 69 q 38 261 38 190 q 50 290 38 278 q 79 302 62 302 q 107 290 95 302 q 119 261 119 278 q 144 171 119 212 q 210 105 168 129 q 300 81 252 81 q 391 105 349 81 q 456 171 432 129 q 480 261 480 212 m 563 477 q 551 449 563 460 q 522 437 539 437 q 493 449 505 437 q 481 477 481 460 l 481 679 q 493 708 481 696 q 522 720 505 720 q 551 708 539 720 q 563 679 563 696 l 563 477 z "},"Ĵ":{"ha":611,"x_min":38,"x_max":661,"o":"m 480 261 q 493 290 480 278 q 522 302 505 302 q 550 290 538 302 q 562 261 562 278 q 527 130 562 190 q 432 34 492 69 q 300 -1 371 -1 q 169 34 229 -1 q 73 130 109 69 q 38 261 38 190 q 50 290 38 278 q 79 302 62 302 q 107 290 95 302 q 119 261 119 278 q 144 171 119 212 q 210 105 168 129 q 300 81 252 81 q 391 105 349 81 q 456 171 432 129 q 480 261 480 212 m 563 477 q 551 449 563 460 q 522 437 539 437 q 493 449 505 437 q 481 477 481 460 l 481 679 q 493 708 481 696 q 522 720 505 720 q 551 708 539 720 q 563 679 563 696 l 563 477 m 502 947 q 522 954 510 954 q 544 945 535 954 q 553 923 553 936 q 543 899 553 909 l 435 806 q 415 798 426 798 q 392 808 402 798 q 383 830 383 817 q 394 853 383 844 l 502 947 m 543 947 l 650 853 q 661 830 661 844 q 652 808 661 817 q 630 798 642 798 q 609 806 618 798 l 502 899 l 543 947 z "},"ĵ":{"ha":611,"x_min":38,"x_max":661,"o":"m 480 261 q 493 290 480 278 q 522 302 505 302 q 550 290 538 302 q 562 261 562 278 q 527 130 562 190 q 432 34 492 69 q 300 -1 371 -1 q 169 34 229 -1 q 73 130 109 69 q 38 261 38 190 q 50 290 38 278 q 79 302 62 302 q 107 290 95 302 q 119 261 119 278 q 144 171 119 212 q 210 105 168 129 q 300 81 252 81 q 391 105 349 81 q 456 171 432 129 q 480 261 480 212 m 563 477 q 551 449 563 460 q 522 437 539 437 q 493 449 505 437 q 481 477 481 460 l 481 679 q 493 708 481 696 q 522 720 505 720 q 551 708 539 720 q 563 679 563 696 l 563 477 m 502 947 q 522 954 510 954 q 544 945 535 954 q 553 923 553 936 q 543 899 553 909 l 435 806 q 415 798 426 798 q 392 808 402 798 q 383 830 383 817 q 394 853 383 844 l 502 947 m 543 947 l 650 853 q 661 830 661 844 q 652 808 661 817 q 630 798 642 798 q 609 806 618 798 l 502 899 l 543 947 z "},"K":{"ha":654,"x_min":52,"x_max":616,"o":"m 134 41 q 122 12 134 24 q 94 0 110 0 q 65 12 77 0 q 52 41 52 24 l 52 679 q 65 708 52 696 q 93 720 77 720 q 122 708 110 720 q 134 679 134 696 l 134 41 m 604 70 q 616 41 616 57 q 604 12 616 24 q 575 0 592 0 q 546 12 559 0 l 227 331 q 216 360 216 342 q 227 389 216 377 q 256 401 239 401 q 285 389 274 401 l 604 70 m 546 708 q 575 720 559 720 q 604 708 592 720 q 616 679 616 696 q 604 650 616 663 l 438 485 q 409 473 427 473 q 381 485 392 473 q 369 513 369 496 q 381 542 369 531 l 546 708 z "},"k":{"ha":654,"x_min":52,"x_max":616,"o":"m 134 41 q 122 12 134 24 q 94 0 110 0 q 65 12 77 0 q 52 41 52 24 l 52 679 q 65 708 52 696 q 93 720 77 720 q 122 708 110 720 q 134 679 134 696 l 134 41 m 604 70 q 616 41 616 57 q 604 12 616 24 q 575 0 592 0 q 546 12 559 0 l 227 331 q 216 360 216 342 q 227 389 216 377 q 256 401 239 401 q 285 389 274 401 l 604 70 m 546 708 q 575 720 559 720 q 604 708 592 720 q 616 679 616 696 q 604 650 616 663 l 438 485 q 409 473 427 473 q 381 485 392 473 q 369 513 369 496 q 381 542 369 531 l 546 708 z "},"Ķ":{"ha":654,"x_min":52,"x_max":616,"o":"m 134 41 q 122 12 134 24 q 94 0 110 0 q 65 12 77 0 q 52 41 52 24 l 52 679 q 65 708 52 696 q 93 720 77 720 q 122 708 110 720 q 134 679 134 696 l 134 41 m 604 70 q 616 41 616 57 q 604 12 616 24 q 575 0 592 0 q 546 12 559 0 l 227 331 q 216 360 216 342 q 227 389 216 377 q 256 401 239 401 q 285 389 274 401 l 604 70 m 546 708 q 575 720 559 720 q 604 708 592 720 q 616 679 616 696 q 604 650 616 663 l 438 485 q 409 473 427 473 q 381 485 392 473 q 369 513 369 496 q 381 542 369 531 l 546 708 z "},"ķ":{"ha":654,"x_min":52,"x_max":616,"o":"m 134 41 q 122 12 134 24 q 94 0 110 0 q 65 12 77 0 q 52 41 52 24 l 52 679 q 65 708 52 696 q 93 720 77 720 q 122 708 110 720 q 134 679 134 696 l 134 41 m 604 70 q 616 41 616 57 q 604 12 616 24 q 575 0 592 0 q 546 12 559 0 l 227 331 q 216 360 216 342 q 227 389 216 377 q 256 401 239 401 q 285 389 274 401 l 604 70 m 546 708 q 575 720 559 720 q 604 708 592 720 q 616 679 616 696 q 604 650 616 663 l 438 485 q 409 473 427 473 q 381 485 392 473 q 369 513 369 496 q 381 542 369 531 l 546 708 z "},"L":{"ha":620,"x_min":52,"x_max":583,"o":"m 542 82 q 571 70 559 82 q 583 41 583 58 q 571 12 583 24 q 542 0 559 0 l 94 0 q 65 12 77 0 q 52 41 52 24 q 65 70 52 58 q 94 82 77 82 l 542 82 m 138 229 q 126 200 138 212 q 98 188 114 188 q 69 200 81 188 q 57 229 57 212 l 57 679 q 69 708 57 696 q 98 720 81 720 q 126 708 114 720 q 138 679 138 696 l 138 229 z "},"l":{"ha":620,"x_min":52,"x_max":583,"o":"m 542 82 q 571 70 559 82 q 583 41 583 58 q 571 12 583 24 q 542 0 559 0 l 94 0 q 65 12 77 0 q 52 41 52 24 q 65 70 52 58 q 94 82 77 82 l 542 82 m 138 229 q 126 200 138 212 q 98 188 114 188 q 69 200 81 188 q 57 229 57 212 l 57 679 q 69 708 57 696 q 98 720 81 720 q 126 708 114 720 q 138 679 138 696 l 138 229 z "},"Ĺ":{"ha":620,"x_min":52,"x_max":583,"o":"m 542 82 q 571 70 559 82 q 583 41 583 58 q 571 12 583 24 q 542 0 559 0 l 94 0 q 65 12 77 0 q 52 41 52 24 q 65 70 52 58 q 94 82 77 82 l 542 82 m 138 229 q 126 200 138 212 q 98 188 114 188 q 69 200 81 188 q 57 229 57 212 l 57 679 q 69 708 57 696 q 98 720 81 720 q 126 708 114 720 q 138 679 138 696 l 138 229 m 120 802 q 102 796 112 796 q 80 805 90 796 q 71 827 71 814 q 84 853 71 844 l 225 951 q 243 957 234 957 q 265 948 256 957 q 275 925 275 938 q 261 900 275 909 l 120 802 z "},"ĺ":{"ha":620,"x_min":52,"x_max":583,"o":"m 542 82 q 571 70 559 82 q 583 41 583 58 q 571 12 583 24 q 542 0 559 0 l 94 0 q 65 12 77 0 q 52 41 52 24 q 65 70 52 58 q 94 82 77 82 l 542 82 m 138 229 q 126 200 138 212 q 98 188 114 188 q 69 200 81 188 q 57 229 57 212 l 57 679 q 69 708 57 696 q 98 720 81 720 q 126 708 114 720 q 138 679 138 696 l 138 229 m 120 802 q 102 796 112 796 q 80 805 90 796 q 71 827 71 814 q 84 853 71 844 l 225 951 q 243 957 234 957 q 265 948 256 957 q 275 925 275 938 q 261 900 275 909 l 120 802 z "},"Ľ":{"ha":620,"x_min":52,"x_max":583,"o":"m 542 82 q 571 70 559 82 q 583 41 583 58 q 571 12 583 24 q 542 0 559 0 l 94 0 q 65 12 77 0 q 52 41 52 24 q 65 70 52 58 q 94 82 77 82 l 542 82 m 138 229 q 126 200 138 212 q 98 188 114 188 q 69 200 81 188 q 57 229 57 212 l 57 679 q 69 708 57 696 q 98 720 81 720 q 126 708 114 720 q 138 679 138 696 l 138 229 z "},"ľ":{"ha":620,"x_min":52,"x_max":583,"o":"m 542 82 q 571 70 559 82 q 583 41 583 58 q 571 12 583 24 q 542 0 559 0 l 94 0 q 65 12 77 0 q 52 41 52 24 q 65 70 52 58 q 94 82 77 82 l 542 82 m 138 229 q 126 200 138 212 q 98 188 114 188 q 69 200 81 188 q 57 229 57 212 l 57 679 q 69 708 57 696 q 98 720 81 720 q 126 708 114 720 q 138 679 138 696 l 138 229 z "},"Ļ":{"ha":620,"x_min":52,"x_max":583,"o":"m 542 82 q 571 70 559 82 q 583 41 583 58 q 571 12 583 24 q 542 0 559 0 l 94 0 q 65 12 77 0 q 52 41 52 24 q 65 70 52 58 q 94 82 77 82 l 542 82 m 138 229 q 126 200 138 212 q 98 188 114 188 q 69 200 81 188 q 57 229 57 212 l 57 679 q 69 708 57 696 q 98 720 81 720 q 126 708 114 720 q 138 679 138 696 l 138 229 z "},"ļ":{"ha":620,"x_min":52,"x_max":583,"o":"m 542 82 q 571 70 559 82 q 583 41 583 58 q 571 12 583 24 q 542 0 559 0 l 94 0 q 65 12 77 0 q 52 41 52 24 q 65 70 52 58 q 94 82 77 82 l 542 82 m 138 229 q 126 200 138 212 q 98 188 114 188 q 69 200 81 188 q 57 229 57 212 l 57 679 q 69 708 57 696 q 98 720 81 720 q 126 708 114 720 q 138 679 138 696 l 138 229 z "},"Ŀ":{"ha":620,"x_min":52,"x_max":583,"o":"m 542 82 q 571 70 559 82 q 583 41 583 58 q 571 12 583 24 q 542 0 559 0 l 94 0 q 65 12 77 0 q 52 41 52 24 q 65 70 52 58 q 94 82 77 82 l 542 82 m 138 229 q 126 200 138 212 q 98 188 114 188 q 69 200 81 188 q 57 229 57 212 l 57 679 q 69 708 57 696 q 98 720 81 720 q 126 708 114 720 q 138 679 138 696 l 138 229 z "},"ŀ":{"ha":620,"x_min":52,"x_max":583,"o":"m 542 82 q 571 70 559 82 q 583 41 583 58 q 571 12 583 24 q 542 0 559 0 l 94 0 q 65 12 77 0 q 52 41 52 24 q 65 70 52 58 q 94 82 77 82 l 542 82 m 138 229 q 126 200 138 212 q 98 188 114 188 q 69 200 81 188 q 57 229 57 212 l 57 679 q 69 708 57 696 q 98 720 81 720 q 126 708 114 720 q 138 679 138 696 l 138 229 z "},"Ł":{"ha":658,"x_min":0,"x_max":620,"o":"m 178 41 q 166 12 178 24 q 137 0 154 0 q 109 12 120 0 q 97 41 97 24 l 96 211 q 108 240 96 228 q 137 253 120 253 q 166 240 154 253 q 178 211 178 228 l 178 41 m 579 82 q 608 70 596 82 q 620 41 620 58 q 608 12 620 24 q 579 0 596 0 l 137 0 q 109 12 120 0 q 97 41 97 24 q 109 70 97 58 q 137 82 120 82 l 579 82 m 217 449 q 236 454 225 454 q 264 442 253 454 q 276 413 276 430 q 270 391 276 401 q 255 377 264 382 l 60 280 q 41 275 51 275 q 12 287 24 275 q 0 316 0 299 q 6 337 0 328 q 22 352 12 347 l 217 449 m 178 518 q 166 489 178 501 q 137 477 154 477 q 108 489 120 477 q 96 518 96 501 l 97 680 q 109 709 97 697 q 137 721 120 721 q 166 709 154 721 q 178 680 178 697 l 178 518 z "},"ł":{"ha":658,"x_min":0,"x_max":620,"o":"m 178 41 q 166 12 178 24 q 137 0 154 0 q 109 12 120 0 q 97 41 97 24 l 96 211 q 108 240 96 228 q 137 253 120 253 q 166 240 154 253 q 178 211 178 228 l 178 41 m 579 82 q 608 70 596 82 q 620 41 620 58 q 608 12 620 24 q 579 0 596 0 l 137 0 q 109 12 120 0 q 97 41 97 24 q 109 70 97 58 q 137 82 120 82 l 579 82 m 217 449 q 236 454 225 454 q 264 442 253 454 q 276 413 276 430 q 270 391 276 401 q 255 377 264 382 l 60 280 q 41 275 51 275 q 12 287 24 275 q 0 316 0 299 q 6 337 0 328 q 22 352 12 347 l 217 449 m 178 518 q 166 489 178 501 q 137 477 154 477 q 108 489 120 477 q 96 518 96 501 l 97 680 q 109 709 97 697 q 137 721 120 721 q 166 709 154 721 q 178 680 178 697 l 178 518 z "},"M":{"ha":784,"x_min":52,"x_max":731,"o":"m 52 679 q 65 708 52 696 q 93 720 77 720 q 122 708 110 720 q 134 679 134 696 l 134 41 q 122 12 134 24 q 94 0 110 0 q 65 12 77 0 q 52 41 52 24 l 52 679 m 422 387 q 433 359 433 374 q 421 330 433 342 q 392 318 409 318 q 362 331 373 318 l 67 648 q 56 676 56 659 q 68 705 56 693 q 97 717 80 717 q 127 704 114 717 l 422 387 m 650 679 q 662 708 650 696 q 690 720 674 720 q 719 708 707 720 q 731 679 731 696 l 731 41 q 719 12 731 24 q 691 0 707 0 q 662 12 674 0 q 650 41 650 24 l 650 679 z "},"m":{"ha":784,"x_min":52,"x_max":731,"o":"m 52 679 q 65 708 52 696 q 93 720 77 720 q 122 708 110 720 q 134 679 134 696 l 134 41 q 122 12 134 24 q 94 0 110 0 q 65 12 77 0 q 52 41 52 24 l 52 679 m 422 387 q 433 359 433 374 q 421 330 433 342 q 392 318 409 318 q 362 331 373 318 l 67 648 q 56 676 56 659 q 68 705 56 693 q 97 717 80 717 q 127 704 114 717 l 422 387 m 650 679 q 662 708 650 696 q 690 720 674 720 q 719 708 707 720 q 731 679 731 696 l 731 41 q 719 12 731 24 q 691 0 707 0 q 662 12 674 0 q 650 41 650 24 l 650 679 z "},"N":{"ha":738,"x_min":52,"x_max":686,"o":"m 134 41 q 122 12 134 24 q 94 0 110 0 q 65 12 77 0 q 52 41 52 24 l 52 679 q 65 708 52 696 q 93 720 77 720 q 122 708 110 720 q 134 679 134 696 l 134 41 m 271 464 q 262 489 262 475 q 274 518 262 506 q 303 530 286 530 q 321 525 313 530 q 335 513 330 521 l 679 63 l 614 14 l 271 464 m 686 41 q 674 12 686 24 q 645 0 662 0 q 616 12 628 0 q 604 41 604 24 l 604 679 q 616 708 604 696 q 645 720 628 720 q 674 708 662 720 q 686 679 686 696 l 686 41 z "},"n":{"ha":738,"x_min":52,"x_max":686,"o":"m 134 41 q 122 12 134 24 q 94 0 110 0 q 65 12 77 0 q 52 41 52 24 l 52 679 q 65 708 52 696 q 93 720 77 720 q 122 708 110 720 q 134 679 134 696 l 134 41 m 271 464 q 262 489 262 475 q 274 518 262 506 q 303 530 286 530 q 321 525 313 530 q 335 513 330 521 l 679 63 l 614 14 l 271 464 m 686 41 q 674 12 686 24 q 645 0 662 0 q 616 12 628 0 q 604 41 604 24 l 604 679 q 616 708 604 696 q 645 720 628 720 q 674 708 662 720 q 686 679 686 696 l 686 41 z "},"Ń":{"ha":738,"x_min":52,"x_max":686,"o":"m 134 41 q 122 12 134 24 q 94 0 110 0 q 65 12 77 0 q 52 41 52 24 l 52 679 q 65 708 52 696 q 93 720 77 720 q 122 708 110 720 q 134 679 134 696 l 134 41 m 271 464 q 262 489 262 475 q 274 518 262 506 q 303 530 286 530 q 321 525 313 530 q 335 513 330 521 l 679 63 l 614 14 l 271 464 m 686 41 q 674 12 686 24 q 645 0 662 0 q 616 12 628 0 q 604 41 604 24 l 604 679 q 616 708 604 696 q 645 720 628 720 q 674 708 662 720 q 686 679 686 696 l 686 41 m 392 802 q 374 796 383 796 q 352 805 361 796 q 343 827 343 814 q 356 853 343 844 l 497 951 q 515 957 506 957 q 537 948 528 957 q 546 925 546 938 q 533 900 546 909 l 392 802 z "},"ń":{"ha":738,"x_min":52,"x_max":686,"o":"m 134 41 q 122 12 134 24 q 94 0 110 0 q 65 12 77 0 q 52 41 52 24 l 52 679 q 65 708 52 696 q 93 720 77 720 q 122 708 110 720 q 134 679 134 696 l 134 41 m 271 464 q 262 489 262 475 q 274 518 262 506 q 303 530 286 530 q 321 525 313 530 q 335 513 330 521 l 679 63 l 614 14 l 271 464 m 686 41 q 674 12 686 24 q 645 0 662 0 q 616 12 628 0 q 604 41 604 24 l 604 679 q 616 708 604 696 q 645 720 628 720 q 674 708 662 720 q 686 679 686 696 l 686 41 m 392 802 q 374 796 383 796 q 352 805 361 796 q 343 827 343 814 q 356 853 343 844 l 497 951 q 515 957 506 957 q 537 948 528 957 q 546 925 546 938 q 533 900 546 909 l 392 802 z "},"Ň":{"ha":738,"x_min":52,"x_max":686,"o":"m 134 41 q 122 12 134 24 q 94 0 110 0 q 65 12 77 0 q 52 41 52 24 l 52 679 q 65 708 52 696 q 93 720 77 720 q 122 708 110 720 q 134 679 134 696 l 134 41 m 271 464 q 262 489 262 475 q 274 518 262 506 q 303 530 286 530 q 321 525 313 530 q 335 513 330 521 l 679 63 l 614 14 l 271 464 m 686 41 q 674 12 686 24 q 645 0 662 0 q 616 12 628 0 q 604 41 604 24 l 604 679 q 616 708 604 696 q 645 720 628 720 q 674 708 662 720 q 686 679 686 696 l 686 41 m 241 899 q 230 923 230 909 q 240 945 230 936 q 262 954 249 954 q 282 947 274 954 l 390 853 q 401 830 401 844 q 391 808 401 817 q 369 798 382 798 q 349 806 358 798 l 241 899 m 456 947 q 477 954 465 954 q 499 945 490 954 q 508 923 508 936 q 497 899 508 909 l 390 806 l 349 853 l 456 947 z "},"ň":{"ha":738,"x_min":52,"x_max":686,"o":"m 134 41 q 122 12 134 24 q 94 0 110 0 q 65 12 77 0 q 52 41 52 24 l 52 679 q 65 708 52 696 q 93 720 77 720 q 122 708 110 720 q 134 679 134 696 l 134 41 m 271 464 q 262 489 262 475 q 274 518 262 506 q 303 530 286 530 q 321 525 313 530 q 335 513 330 521 l 679 63 l 614 14 l 271 464 m 686 41 q 674 12 686 24 q 645 0 662 0 q 616 12 628 0 q 604 41 604 24 l 604 679 q 616 708 604 696 q 645 720 628 720 q 674 708 662 720 q 686 679 686 696 l 686 41 m 241 899 q 230 923 230 909 q 240 945 230 936 q 262 954 249 954 q 282 947 274 954 l 390 853 q 401 830 401 844 q 391 808 401 817 q 369 798 382 798 q 349 806 358 798 l 241 899 m 456 947 q 477 954 465 954 q 499 945 490 954 q 508 923 508 936 q 497 899 508 909 l 390 806 l 349 853 l 456 947 z "},"Ņ":{"ha":738,"x_min":52,"x_max":686,"o":"m 134 41 q 122 12 134 24 q 94 0 110 0 q 65 12 77 0 q 52 41 52 24 l 52 679 q 65 708 52 696 q 93 720 77 720 q 122 708 110 720 q 134 679 134 696 l 134 41 m 271 464 q 262 489 262 475 q 274 518 262 506 q 303 530 286 530 q 321 525 313 530 q 335 513 330 521 l 679 63 l 614 14 l 271 464 m 686 41 q 674 12 686 24 q 645 0 662 0 q 616 12 628 0 q 604 41 604 24 l 604 679 q 616 708 604 696 q 645 720 628 720 q 674 708 662 720 q 686 679 686 696 l 686 41 z "},"ņ":{"ha":738,"x_min":52,"x_max":686,"o":"m 134 41 q 122 12 134 24 q 94 0 110 0 q 65 12 77 0 q 52 41 52 24 l 52 679 q 65 708 52 696 q 93 720 77 720 q 122 708 110 720 q 134 679 134 696 l 134 41 m 271 464 q 262 489 262 475 q 274 518 262 506 q 303 530 286 530 q 321 525 313 530 q 335 513 330 521 l 679 63 l 614 14 l 271 464 m 686 41 q 674 12 686 24 q 645 0 662 0 q 616 12 628 0 q 604 41 604 24 l 604 679 q 616 708 604 696 q 645 720 628 720 q 674 708 662 720 q 686 679 686 696 l 686 41 z "},"Ñ":{"ha":738,"x_min":52,"x_max":686,"o":"m 134 41 q 122 12 134 24 q 94 0 110 0 q 65 12 77 0 q 52 41 52 24 l 52 679 q 65 708 52 696 q 93 720 77 720 q 122 708 110 720 q 134 679 134 696 l 134 41 m 271 464 q 262 489 262 475 q 274 518 262 506 q 303 530 286 530 q 321 525 313 530 q 335 513 330 521 l 679 63 l 614 14 l 271 464 m 686 41 q 674 12 686 24 q 645 0 662 0 q 616 12 628 0 q 604 41 604 24 l 604 679 q 616 708 604 696 q 645 720 628 720 q 674 708 662 720 q 686 679 686 696 l 686 41 m 462 894 q 473 908 466 903 q 491 914 481 914 q 513 905 504 914 q 522 882 522 896 q 520 870 522 877 q 484 824 508 841 q 430 808 459 808 q 349 841 388 808 q 308 862 325 862 q 277 834 288 862 q 265 820 273 826 q 248 815 257 815 q 226 824 235 815 q 217 846 217 833 q 219 858 217 852 q 255 904 231 888 q 309 921 279 921 q 390 888 352 921 q 431 867 415 867 q 462 894 451 867 z "},"ñ":{"ha":738,"x_min":52,"x_max":686,"o":"m 134 41 q 122 12 134 24 q 94 0 110 0 q 65 12 77 0 q 52 41 52 24 l 52 679 q 65 708 52 696 q 93 720 77 720 q 122 708 110 720 q 134 679 134 696 l 134 41 m 271 464 q 262 489 262 475 q 274 518 262 506 q 303 530 286 530 q 321 525 313 530 q 335 513 330 521 l 679 63 l 614 14 l 271 464 m 686 41 q 674 12 686 24 q 645 0 662 0 q 616 12 628 0 q 604 41 604 24 l 604 679 q 616 708 604 696 q 645 720 628 720 q 674 708 662 720 q 686 679 686 696 l 686 41 m 462 894 q 473 908 466 903 q 491 914 481 914 q 513 905 504 914 q 522 882 522 896 q 520 870 522 877 q 484 824 508 841 q 430 808 459 808 q 349 841 388 808 q 308 862 325 862 q 277 834 288 862 q 265 820 273 826 q 248 815 257 815 q 226 824 235 815 q 217 846 217 833 q 219 858 217 852 q 255 904 231 888 q 309 921 279 921 q 390 888 352 921 q 431 867 415 867 q 462 894 451 867 z "},"O":{"ha":809,"x_min":43,"x_max":766,"o":"m 157 567 q 128 579 140 567 q 116 608 116 591 q 128 637 116 624 q 157 649 140 649 q 185 637 173 649 q 198 608 198 624 q 185 579 198 591 q 157 567 173 567 m 405 639 q 376 651 388 639 q 364 681 364 664 q 376 709 364 697 q 405 721 388 721 q 586 673 503 721 q 717 541 669 624 q 766 360 766 458 q 717 179 766 262 q 586 47 669 96 q 405 -1 503 -1 q 224 47 307 -1 q 92 179 140 96 q 43 360 43 262 q 55 389 43 377 q 84 401 67 401 q 113 389 101 401 q 125 360 125 377 q 163 220 125 284 q 264 118 200 156 q 405 81 329 81 q 545 118 481 81 q 647 220 609 156 q 684 360 684 284 q 647 500 684 436 q 545 602 609 564 q 405 639 481 639 z "},"o":{"ha":809,"x_min":43,"x_max":766,"o":"m 157 567 q 128 579 140 567 q 116 608 116 591 q 128 637 116 624 q 157 649 140 649 q 185 637 173 649 q 198 608 198 624 q 185 579 198 591 q 157 567 173 567 m 405 639 q 376 651 388 639 q 364 681 364 664 q 376 709 364 697 q 405 721 388 721 q 586 673 503 721 q 717 541 669 624 q 766 360 766 458 q 717 179 766 262 q 586 47 669 96 q 405 -1 503 -1 q 224 47 307 -1 q 92 179 140 96 q 43 360 43 262 q 55 389 43 377 q 84 401 67 401 q 113 389 101 401 q 125 360 125 377 q 163 220 125 284 q 264 118 200 156 q 405 81 329 81 q 545 118 481 81 q 647 220 609 156 q 684 360 684 284 q 647 500 684 436 q 545 602 609 564 q 405 639 481 639 z "},"Ó":{"ha":809,"x_min":43,"x_max":766,"o":"m 157 567 q 128 579 140 567 q 116 608 116 591 q 128 637 116 624 q 157 649 140 649 q 185 637 173 649 q 198 608 198 624 q 185 579 198 591 q 157 567 173 567 m 405 639 q 376 651 388 639 q 364 681 364 664 q 376 709 364 697 q 405 721 388 721 q 586 673 503 721 q 717 541 669 624 q 766 360 766 458 q 717 179 766 262 q 586 47 669 96 q 405 -1 503 -1 q 224 47 307 -1 q 92 179 140 96 q 43 360 43 262 q 55 389 43 377 q 84 401 67 401 q 113 389 101 401 q 125 360 125 377 q 163 220 125 284 q 264 118 200 156 q 405 81 329 81 q 545 118 481 81 q 647 220 609 156 q 684 360 684 284 q 647 500 684 436 q 545 602 609 564 q 405 639 481 639 m 427 802 q 409 796 419 796 q 387 805 397 796 q 378 827 378 814 q 391 853 378 844 l 532 951 q 550 957 541 957 q 573 948 563 957 q 582 925 582 938 q 568 900 582 909 l 427 802 z "},"ó":{"ha":809,"x_min":43,"x_max":766,"o":"m 157 567 q 128 579 140 567 q 116 608 116 591 q 128 637 116 624 q 157 649 140 649 q 185 637 173 649 q 198 608 198 624 q 185 579 198 591 q 157 567 173 567 m 405 639 q 376 651 388 639 q 364 681 364 664 q 376 709 364 697 q 405 721 388 721 q 586 673 503 721 q 717 541 669 624 q 766 360 766 458 q 717 179 766 262 q 586 47 669 96 q 405 -1 503 -1 q 224 47 307 -1 q 92 179 140 96 q 43 360 43 262 q 55 389 43 377 q 84 401 67 401 q 113 389 101 401 q 125 360 125 377 q 163 220 125 284 q 264 118 200 156 q 405 81 329 81 q 545 118 481 81 q 647 220 609 156 q 684 360 684 284 q 647 500 684 436 q 545 602 609 564 q 405 639 481 639 m 427 802 q 409 796 419 796 q 387 805 397 796 q 378 827 378 814 q 391 853 378 844 l 532 951 q 550 957 541 957 q 573 948 563 957 q 582 925 582 938 q 568 900 582 909 l 427 802 z "},"Ǒ":{"ha":809,"x_min":43,"x_max":766,"o":"m 157 567 q 128 579 140 567 q 116 608 116 591 q 128 637 116 624 q 157 649 140 649 q 185 637 173 649 q 198 608 198 624 q 185 579 198 591 q 157 567 173 567 m 405 639 q 376 651 388 639 q 364 681 364 664 q 376 709 364 697 q 405 721 388 721 q 586 673 503 721 q 717 541 669 624 q 766 360 766 458 q 717 179 766 262 q 586 47 669 96 q 405 -1 503 -1 q 224 47 307 -1 q 92 179 140 96 q 43 360 43 262 q 55 389 43 377 q 84 401 67 401 q 113 389 101 401 q 125 360 125 377 q 163 220 125 284 q 264 118 200 156 q 405 81 329 81 q 545 118 481 81 q 647 220 609 156 q 684 360 684 284 q 647 500 684 436 q 545 602 609 564 q 405 639 481 639 m 277 899 q 266 923 266 909 q 275 945 266 936 q 297 954 284 954 q 318 947 309 954 l 425 853 q 436 830 436 844 q 427 808 436 817 q 405 798 418 798 q 384 806 393 798 l 277 899 m 492 947 q 512 954 501 954 q 534 945 525 954 q 544 923 544 936 q 533 899 544 909 l 426 806 l 385 853 l 492 947 z "},"ǒ":{"ha":809,"x_min":43,"x_max":766,"o":"m 157 567 q 128 579 140 567 q 116 608 116 591 q 128 637 116 624 q 157 649 140 649 q 185 637 173 649 q 198 608 198 624 q 185 579 198 591 q 157 567 173 567 m 405 639 q 376 651 388 639 q 364 681 364 664 q 376 709 364 697 q 405 721 388 721 q 586 673 503 721 q 717 541 669 624 q 766 360 766 458 q 717 179 766 262 q 586 47 669 96 q 405 -1 503 -1 q 224 47 307 -1 q 92 179 140 96 q 43 360 43 262 q 55 389 43 377 q 84 401 67 401 q 113 389 101 401 q 125 360 125 377 q 163 220 125 284 q 264 118 200 156 q 405 81 329 81 q 545 118 481 81 q 647 220 609 156 q 684 360 684 284 q 647 500 684 436 q 545 602 609 564 q 405 639 481 639 m 277 899 q 266 923 266 909 q 275 945 266 936 q 297 954 284 954 q 318 947 309 954 l 425 853 q 436 830 436 844 q 427 808 436 817 q 405 798 418 798 q 384 806 393 798 l 277 899 m 492 947 q 512 954 501 954 q 534 945 525 954 q 544 923 544 936 q 533 899 544 909 l 426 806 l 385 853 l 492 947 z "},"Ô":{"ha":809,"x_min":43,"x_max":766,"o":"m 157 567 q 128 579 140 567 q 116 608 116 591 q 128 637 116 624 q 157 649 140 649 q 185 637 173 649 q 198 608 198 624 q 185 579 198 591 q 157 567 173 567 m 405 639 q 376 651 388 639 q 364 681 364 664 q 376 709 364 697 q 405 721 388 721 q 586 673 503 721 q 717 541 669 624 q 766 360 766 458 q 717 179 766 262 q 586 47 669 96 q 405 -1 503 -1 q 224 47 307 -1 q 92 179 140 96 q 43 360 43 262 q 55 389 43 377 q 84 401 67 401 q 113 389 101 401 q 125 360 125 377 q 163 220 125 284 q 264 118 200 156 q 405 81 329 81 q 545 118 481 81 q 647 220 609 156 q 684 360 684 284 q 647 500 684 436 q 545 602 609 564 q 405 639 481 639 m 384 947 q 405 954 393 954 q 427 945 418 954 q 436 923 436 936 q 425 899 436 909 l 318 806 q 297 798 309 798 q 275 808 284 798 q 266 830 266 817 q 277 853 266 844 l 384 947 m 426 947 l 533 853 q 544 830 544 844 q 534 808 544 817 q 512 798 525 798 q 492 806 501 798 l 385 899 l 426 947 z "},"ô":{"ha":809,"x_min":43,"x_max":766,"o":"m 157 567 q 128 579 140 567 q 116 608 116 591 q 128 637 116 624 q 157 649 140 649 q 185 637 173 649 q 198 608 198 624 q 185 579 198 591 q 157 567 173 567 m 405 639 q 376 651 388 639 q 364 681 364 664 q 376 709 364 697 q 405 721 388 721 q 586 673 503 721 q 717 541 669 624 q 766 360 766 458 q 717 179 766 262 q 586 47 669 96 q 405 -1 503 -1 q 224 47 307 -1 q 92 179 140 96 q 43 360 43 262 q 55 389 43 377 q 84 401 67 401 q 113 389 101 401 q 125 360 125 377 q 163 220 125 284 q 264 118 200 156 q 405 81 329 81 q 545 118 481 81 q 647 220 609 156 q 684 360 684 284 q 647 500 684 436 q 545 602 609 564 q 405 639 481 639 m 384 947 q 405 954 393 954 q 427 945 418 954 q 436 923 436 936 q 425 899 436 909 l 318 806 q 297 798 309 798 q 275 808 284 798 q 266 830 266 817 q 277 853 266 844 l 384 947 m 426 947 l 533 853 q 544 830 544 844 q 534 808 544 817 q 512 798 525 798 q 492 806 501 798 l 385 899 l 426 947 z "},"Ố":{"ha":809,"x_min":43,"x_max":766,"o":"m 157 567 q 128 579 140 567 q 116 608 116 591 q 128 637 116 624 q 157 649 140 649 q 185 637 173 649 q 198 608 198 624 q 185 579 198 591 q 157 567 173 567 m 405 639 q 376 651 388 639 q 364 681 364 664 q 376 709 364 697 q 405 721 388 721 q 586 673 503 721 q 717 541 669 624 q 766 360 766 458 q 717 179 766 262 q 586 47 669 96 q 405 -1 503 -1 q 224 47 307 -1 q 92 179 140 96 q 43 360 43 262 q 55 389 43 377 q 84 401 67 401 q 113 389 101 401 q 125 360 125 377 q 163 220 125 284 q 264 118 200 156 q 405 81 329 81 q 545 118 481 81 q 647 220 609 156 q 684 360 684 284 q 647 500 684 436 q 545 602 609 564 q 405 639 481 639 z "},"ố":{"ha":809,"x_min":43,"x_max":766,"o":"m 157 567 q 128 579 140 567 q 116 608 116 591 q 128 637 116 624 q 157 649 140 649 q 185 637 173 649 q 198 608 198 624 q 185 579 198 591 q 157 567 173 567 m 405 639 q 376 651 388 639 q 364 681 364 664 q 376 709 364 697 q 405 721 388 721 q 586 673 503 721 q 717 541 669 624 q 766 360 766 458 q 717 179 766 262 q 586 47 669 96 q 405 -1 503 -1 q 224 47 307 -1 q 92 179 140 96 q 43 360 43 262 q 55 389 43 377 q 84 401 67 401 q 113 389 101 401 q 125 360 125 377 q 163 220 125 284 q 264 118 200 156 q 405 81 329 81 q 545 118 481 81 q 647 220 609 156 q 684 360 684 284 q 647 500 684 436 q 545 602 609 564 q 405 639 481 639 z "},"Ộ":{"ha":809,"x_min":43,"x_max":766,"o":"m 157 567 q 128 579 140 567 q 116 608 116 591 q 128 637 116 624 q 157 649 140 649 q 185 637 173 649 q 198 608 198 624 q 185 579 198 591 q 157 567 173 567 m 405 639 q 376 651 388 639 q 364 681 364 664 q 376 709 364 697 q 405 721 388 721 q 586 673 503 721 q 717 541 669 624 q 766 360 766 458 q 717 179 766 262 q 586 47 669 96 q 405 -1 503 -1 q 224 47 307 -1 q 92 179 140 96 q 43 360 43 262 q 55 389 43 377 q 84 401 67 401 q 113 389 101 401 q 125 360 125 377 q 163 220 125 284 q 264 118 200 156 q 405 81 329 81 q 545 118 481 81 q 647 220 609 156 q 684 360 684 284 q 647 500 684 436 q 545 602 609 564 q 405 639 481 639 m 398 -156 q 367 -144 380 -156 q 354 -113 354 -131 q 367 -82 354 -95 q 398 -69 380 -69 q 429 -82 416 -69 q 442 -113 442 -95 q 429 -144 442 -131 q 398 -156 416 -156 m 384 947 q 405 954 393 954 q 427 945 418 954 q 436 923 436 936 q 425 899 436 909 l 318 806 q 297 798 309 798 q 275 808 284 798 q 266 830 266 817 q 277 853 266 844 l 384 947 m 426 947 l 533 853 q 544 830 544 844 q 534 808 544 817 q 512 798 525 798 q 492 806 501 798 l 385 899 l 426 947 z "},"ộ":{"ha":809,"x_min":43,"x_max":766,"o":"m 157 567 q 128 579 140 567 q 116 608 116 591 q 128 637 116 624 q 157 649 140 649 q 185 637 173 649 q 198 608 198 624 q 185 579 198 591 q 157 567 173 567 m 405 639 q 376 651 388 639 q 364 681 364 664 q 376 709 364 697 q 405 721 388 721 q 586 673 503 721 q 717 541 669 624 q 766 360 766 458 q 717 179 766 262 q 586 47 669 96 q 405 -1 503 -1 q 224 47 307 -1 q 92 179 140 96 q 43 360 43 262 q 55 389 43 377 q 84 401 67 401 q 113 389 101 401 q 125 360 125 377 q 163 220 125 284 q 264 118 200 156 q 405 81 329 81 q 545 118 481 81 q 647 220 609 156 q 684 360 684 284 q 647 500 684 436 q 545 602 609 564 q 405 639 481 639 m 398 -156 q 367 -144 380 -156 q 354 -113 354 -131 q 367 -82 354 -95 q 398 -69 380 -69 q 429 -82 416 -69 q 442 -113 442 -95 q 429 -144 442 -131 q 398 -156 416 -156 m 384 947 q 405 954 393 954 q 427 945 418 954 q 436 923 436 936 q 425 899 436 909 l 318 806 q 297 798 309 798 q 275 808 284 798 q 266 830 266 817 q 277 853 266 844 l 384 947 m 426 947 l 533 853 q 544 830 544 844 q 534 808 544 817 q 512 798 525 798 q 492 806 501 798 l 385 899 l 426 947 z "},"Ồ":{"ha":809,"x_min":43,"x_max":766,"o":"m 157 567 q 128 579 140 567 q 116 608 116 591 q 128 637 116 624 q 157 649 140 649 q 185 637 173 649 q 198 608 198 624 q 185 579 198 591 q 157 567 173 567 m 405 639 q 376 651 388 639 q 364 681 364 664 q 376 709 364 697 q 405 721 388 721 q 586 673 503 721 q 717 541 669 624 q 766 360 766 458 q 717 179 766 262 q 586 47 669 96 q 405 -1 503 -1 q 224 47 307 -1 q 92 179 140 96 q 43 360 43 262 q 55 389 43 377 q 84 401 67 401 q 113 389 101 401 q 125 360 125 377 q 163 220 125 284 q 264 118 200 156 q 405 81 329 81 q 545 118 481 81 q 647 220 609 156 q 684 360 684 284 q 647 500 684 436 q 545 602 609 564 q 405 639 481 639 z "},"ồ":{"ha":809,"x_min":43,"x_max":766,"o":"m 157 567 q 128 579 140 567 q 116 608 116 591 q 128 637 116 624 q 157 649 140 649 q 185 637 173 649 q 198 608 198 624 q 185 579 198 591 q 157 567 173 567 m 405 639 q 376 651 388 639 q 364 681 364 664 q 376 709 364 697 q 405 721 388 721 q 586 673 503 721 q 717 541 669 624 q 766 360 766 458 q 717 179 766 262 q 586 47 669 96 q 405 -1 503 -1 q 224 47 307 -1 q 92 179 140 96 q 43 360 43 262 q 55 389 43 377 q 84 401 67 401 q 113 389 101 401 q 125 360 125 377 q 163 220 125 284 q 264 118 200 156 q 405 81 329 81 q 545 118 481 81 q 647 220 609 156 q 684 360 684 284 q 647 500 684 436 q 545 602 609 564 q 405 639 481 639 z "},"Ổ":{"ha":809,"x_min":43,"x_max":766,"o":"m 157 567 q 128 579 140 567 q 116 608 116 591 q 128 637 116 624 q 157 649 140 649 q 185 637 173 649 q 198 608 198 624 q 185 579 198 591 q 157 567 173 567 m 405 639 q 376 651 388 639 q 364 681 364 664 q 376 709 364 697 q 405 721 388 721 q 586 673 503 721 q 717 541 669 624 q 766 360 766 458 q 717 179 766 262 q 586 47 669 96 q 405 -1 503 -1 q 224 47 307 -1 q 92 179 140 96 q 43 360 43 262 q 55 389 43 377 q 84 401 67 401 q 113 389 101 401 q 125 360 125 377 q 163 220 125 284 q 264 118 200 156 q 405 81 329 81 q 545 118 481 81 q 647 220 609 156 q 684 360 684 284 q 647 500 684 436 q 545 602 609 564 q 405 639 481 639 z "},"ổ":{"ha":809,"x_min":43,"x_max":766,"o":"m 157 567 q 128 579 140 567 q 116 608 116 591 q 128 637 116 624 q 157 649 140 649 q 185 637 173 649 q 198 608 198 624 q 185 579 198 591 q 157 567 173 567 m 405 639 q 376 651 388 639 q 364 681 364 664 q 376 709 364 697 q 405 721 388 721 q 586 673 503 721 q 717 541 669 624 q 766 360 766 458 q 717 179 766 262 q 586 47 669 96 q 405 -1 503 -1 q 224 47 307 -1 q 92 179 140 96 q 43 360 43 262 q 55 389 43 377 q 84 401 67 401 q 113 389 101 401 q 125 360 125 377 q 163 220 125 284 q 264 118 200 156 q 405 81 329 81 q 545 118 481 81 q 647 220 609 156 q 684 360 684 284 q 647 500 684 436 q 545 602 609 564 q 405 639 481 639 z "},"Ỗ":{"ha":809,"x_min":43,"x_max":766,"o":"m 157 567 q 128 579 140 567 q 116 608 116 591 q 128 637 116 624 q 157 649 140 649 q 185 637 173 649 q 198 608 198 624 q 185 579 198 591 q 157 567 173 567 m 405 639 q 376 651 388 639 q 364 681 364 664 q 376 709 364 697 q 405 721 388 721 q 586 673 503 721 q 717 541 669 624 q 766 360 766 458 q 717 179 766 262 q 586 47 669 96 q 405 -1 503 -1 q 224 47 307 -1 q 92 179 140 96 q 43 360 43 262 q 55 389 43 377 q 84 401 67 401 q 113 389 101 401 q 125 360 125 377 q 163 220 125 284 q 264 118 200 156 q 405 81 329 81 q 545 118 481 81 q 647 220 609 156 q 684 360 684 284 q 647 500 684 436 q 545 602 609 564 q 405 639 481 639 z "},"ỗ":{"ha":809,"x_min":43,"x_max":766,"o":"m 157 567 q 128 579 140 567 q 116 608 116 591 q 128 637 116 624 q 157 649 140 649 q 185 637 173 649 q 198 608 198 624 q 185 579 198 591 q 157 567 173 567 m 405 639 q 376 651 388 639 q 364 681 364 664 q 376 709 364 697 q 405 721 388 721 q 586 673 503 721 q 717 541 669 624 q 766 360 766 458 q 717 179 766 262 q 586 47 669 96 q 405 -1 503 -1 q 224 47 307 -1 q 92 179 140 96 q 43 360 43 262 q 55 389 43 377 q 84 401 67 401 q 113 389 101 401 q 125 360 125 377 q 163 220 125 284 q 264 118 200 156 q 405 81 329 81 q 545 118 481 81 q 647 220 609 156 q 684 360 684 284 q 647 500 684 436 q 545 602 609 564 q 405 639 481 639 z "},"Ö":{"ha":809,"x_min":43,"x_max":766,"o":"m 157 567 q 128 579 140 567 q 116 608 116 591 q 128 637 116 624 q 157 649 140 649 q 185 637 173 649 q 198 608 198 624 q 185 579 198 591 q 157 567 173 567 m 405 639 q 376 651 388 639 q 364 681 364 664 q 376 709 364 697 q 405 721 388 721 q 586 673 503 721 q 717 541 669 624 q 766 360 766 458 q 717 179 766 262 q 586 47 669 96 q 405 -1 503 -1 q 224 47 307 -1 q 92 179 140 96 q 43 360 43 262 q 55 389 43 377 q 84 401 67 401 q 113 389 101 401 q 125 360 125 377 q 163 220 125 284 q 264 118 200 156 q 405 81 329 81 q 545 118 481 81 q 647 220 609 156 q 684 360 684 284 q 647 500 684 436 q 545 602 609 564 q 405 639 481 639 m 499 813 q 468 826 481 813 q 455 857 455 839 q 468 888 455 875 q 499 901 481 901 q 530 888 517 901 q 543 857 543 875 q 530 826 543 840 q 499 813 517 813 m 311 813 q 280 826 293 813 q 267 857 267 839 q 280 888 267 875 q 311 901 293 901 q 342 888 329 901 q 355 857 355 875 q 342 826 355 840 q 311 813 329 813 z "},"ö":{"ha":809,"x_min":43,"x_max":766,"o":"m 157 567 q 128 579 140 567 q 116 608 116 591 q 128 637 116 624 q 157 649 140 649 q 185 637 173 649 q 198 608 198 624 q 185 579 198 591 q 157 567 173 567 m 405 639 q 376 651 388 639 q 364 681 364 664 q 376 709 364 697 q 405 721 388 721 q 586 673 503 721 q 717 541 669 624 q 766 360 766 458 q 717 179 766 262 q 586 47 669 96 q 405 -1 503 -1 q 224 47 307 -1 q 92 179 140 96 q 43 360 43 262 q 55 389 43 377 q 84 401 67 401 q 113 389 101 401 q 125 360 125 377 q 163 220 125 284 q 264 118 200 156 q 405 81 329 81 q 545 118 481 81 q 647 220 609 156 q 684 360 684 284 q 647 500 684 436 q 545 602 609 564 q 405 639 481 639 m 499 813 q 468 826 481 813 q 455 857 455 839 q 468 888 455 875 q 499 901 481 901 q 530 888 517 901 q 543 857 543 875 q 530 826 543 840 q 499 813 517 813 m 311 813 q 280 826 293 813 q 267 857 267 839 q 280 888 267 875 q 311 901 293 901 q 342 888 329 901 q 355 857 355 875 q 342 826 355 840 q 311 813 329 813 z "},"Ọ":{"ha":809,"x_min":43,"x_max":766,"o":"m 157 567 q 128 579 140 567 q 116 608 116 591 q 128 637 116 624 q 157 649 140 649 q 185 637 173 649 q 198 608 198 624 q 185 579 198 591 q 157 567 173 567 m 405 639 q 376 651 388 639 q 364 681 364 664 q 376 709 364 697 q 405 721 388 721 q 586 673 503 721 q 717 541 669 624 q 766 360 766 458 q 717 179 766 262 q 586 47 669 96 q 405 -1 503 -1 q 224 47 307 -1 q 92 179 140 96 q 43 360 43 262 q 55 389 43 377 q 84 401 67 401 q 113 389 101 401 q 125 360 125 377 q 163 220 125 284 q 264 118 200 156 q 405 81 329 81 q 545 118 481 81 q 647 220 609 156 q 684 360 684 284 q 647 500 684 436 q 545 602 609 564 q 405 639 481 639 m 398 -156 q 367 -144 380 -156 q 354 -113 354 -131 q 367 -82 354 -95 q 398 -69 380 -69 q 429 -82 416 -69 q 442 -113 442 -95 q 429 -144 442 -131 q 398 -156 416 -156 z "},"ọ":{"ha":809,"x_min":43,"x_max":766,"o":"m 157 567 q 128 579 140 567 q 116 608 116 591 q 128 637 116 624 q 157 649 140 649 q 185 637 173 649 q 198 608 198 624 q 185 579 198 591 q 157 567 173 567 m 405 639 q 376 651 388 639 q 364 681 364 664 q 376 709 364 697 q 405 721 388 721 q 586 673 503 721 q 717 541 669 624 q 766 360 766 458 q 717 179 766 262 q 586 47 669 96 q 405 -1 503 -1 q 224 47 307 -1 q 92 179 140 96 q 43 360 43 262 q 55 389 43 377 q 84 401 67 401 q 113 389 101 401 q 125 360 125 377 q 163 220 125 284 q 264 118 200 156 q 405 81 329 81 q 545 118 481 81 q 647 220 609 156 q 684 360 684 284 q 647 500 684 436 q 545 602 609 564 q 405 639 481 639 m 398 -156 q 367 -144 380 -156 q 354 -113 354 -131 q 367 -82 354 -95 q 398 -69 380 -69 q 429 -82 416 -69 q 442 -113 442 -95 q 429 -144 442 -131 q 398 -156 416 -156 z "},"Ò":{"ha":809,"x_min":43,"x_max":766,"o":"m 157 567 q 128 579 140 567 q 116 608 116 591 q 128 637 116 624 q 157 649 140 649 q 185 637 173 649 q 198 608 198 624 q 185 579 198 591 q 157 567 173 567 m 405 639 q 376 651 388 639 q 364 681 364 664 q 376 709 364 697 q 405 721 388 721 q 586 673 503 721 q 717 541 669 624 q 766 360 766 458 q 717 179 766 262 q 586 47 669 96 q 405 -1 503 -1 q 224 47 307 -1 q 92 179 140 96 q 43 360 43 262 q 55 389 43 377 q 84 401 67 401 q 113 389 101 401 q 125 360 125 377 q 163 220 125 284 q 264 118 200 156 q 405 81 329 81 q 545 118 481 81 q 647 220 609 156 q 684 360 684 284 q 647 500 684 436 q 545 602 609 564 q 405 639 481 639 m 241 900 q 228 925 228 909 q 237 948 228 938 q 259 957 246 957 q 277 951 269 957 l 418 853 q 432 827 432 844 q 422 805 432 814 q 400 796 413 796 q 382 802 391 796 l 241 900 z "},"ò":{"ha":809,"x_min":43,"x_max":766,"o":"m 157 567 q 128 579 140 567 q 116 608 116 591 q 128 637 116 624 q 157 649 140 649 q 185 637 173 649 q 198 608 198 624 q 185 579 198 591 q 157 567 173 567 m 405 639 q 376 651 388 639 q 364 681 364 664 q 376 709 364 697 q 405 721 388 721 q 586 673 503 721 q 717 541 669 624 q 766 360 766 458 q 717 179 766 262 q 586 47 669 96 q 405 -1 503 -1 q 224 47 307 -1 q 92 179 140 96 q 43 360 43 262 q 55 389 43 377 q 84 401 67 401 q 113 389 101 401 q 125 360 125 377 q 163 220 125 284 q 264 118 200 156 q 405 81 329 81 q 545 118 481 81 q 647 220 609 156 q 684 360 684 284 q 647 500 684 436 q 545 602 609 564 q 405 639 481 639 m 241 900 q 228 925 228 909 q 237 948 228 938 q 259 957 246 957 q 277 951 269 957 l 418 853 q 432 827 432 844 q 422 805 432 814 q 400 796 413 796 q 382 802 391 796 l 241 900 z "},"Ỏ":{"ha":809,"x_min":43,"x_max":766,"o":"m 157 567 q 128 579 140 567 q 116 608 116 591 q 128 637 116 624 q 157 649 140 649 q 185 637 173 649 q 198 608 198 624 q 185 579 198 591 q 157 567 173 567 m 405 639 q 376 651 388 639 q 364 681 364 664 q 376 709 364 697 q 405 721 388 721 q 586 673 503 721 q 717 541 669 624 q 766 360 766 458 q 717 179 766 262 q 586 47 669 96 q 405 -1 503 -1 q 224 47 307 -1 q 92 179 140 96 q 43 360 43 262 q 55 389 43 377 q 84 401 67 401 q 113 389 101 401 q 125 360 125 377 q 163 220 125 284 q 264 118 200 156 q 405 81 329 81 q 545 118 481 81 q 647 220 609 156 q 684 360 684 284 q 647 500 684 436 q 545 602 609 564 q 405 639 481 639 m 378 917 q 358 925 366 917 q 350 944 350 933 q 358 965 350 956 q 378 973 366 973 q 427 960 404 973 q 462 924 449 947 q 475 876 475 902 q 462 826 475 849 q 427 791 449 804 q 378 778 404 778 q 358 786 366 778 q 350 806 350 794 q 358 826 350 818 q 378 834 366 834 q 407 846 395 834 q 419 876 419 858 q 407 905 419 892 q 378 917 395 917 z "},"ỏ":{"ha":809,"x_min":43,"x_max":766,"o":"m 157 567 q 128 579 140 567 q 116 608 116 591 q 128 637 116 624 q 157 649 140 649 q 185 637 173 649 q 198 608 198 624 q 185 579 198 591 q 157 567 173 567 m 405 639 q 376 651 388 639 q 364 681 364 664 q 376 709 364 697 q 405 721 388 721 q 586 673 503 721 q 717 541 669 624 q 766 360 766 458 q 717 179 766 262 q 586 47 669 96 q 405 -1 503 -1 q 224 47 307 -1 q 92 179 140 96 q 43 360 43 262 q 55 389 43 377 q 84 401 67 401 q 113 389 101 401 q 125 360 125 377 q 163 220 125 284 q 264 118 200 156 q 405 81 329 81 q 545 118 481 81 q 647 220 609 156 q 684 360 684 284 q 647 500 684 436 q 545 602 609 564 q 405 639 481 639 m 378 917 q 358 925 366 917 q 350 944 350 933 q 358 965 350 956 q 378 973 366 973 q 427 960 404 973 q 462 924 449 947 q 475 876 475 902 q 462 826 475 849 q 427 791 449 804 q 378 778 404 778 q 358 786 366 778 q 350 806 350 794 q 358 826 350 818 q 378 834 366 834 q 407 846 395 834 q 419 876 419 858 q 407 905 419 892 q 378 917 395 917 z "},"Ơ":{"ha":809,"x_min":43,"x_max":813,"o":"m 157 567 q 128 579 140 567 q 116 608 116 591 q 128 637 116 624 q 157 649 140 649 q 185 637 173 649 q 198 608 198 624 q 185 579 198 591 q 157 567 173 567 m 405 639 q 376 651 388 639 q 364 681 364 664 q 376 709 364 697 q 405 721 388 721 q 586 673 503 721 q 717 541 669 624 q 766 360 766 458 q 717 179 766 262 q 586 47 669 96 q 405 -1 503 -1 q 224 47 307 -1 q 92 179 140 96 q 43 360 43 262 q 55 389 43 377 q 84 401 67 401 q 113 389 101 401 q 125 360 125 377 q 163 220 125 284 q 264 118 200 156 q 405 81 329 81 q 545 118 481 81 q 647 220 609 156 q 684 360 684 284 q 647 500 684 436 q 545 602 609 564 q 405 639 481 639 m 697 581 q 670 571 685 571 q 641 583 653 571 q 629 612 629 595 q 633 629 629 621 q 644 643 637 637 l 746 729 q 772 739 757 739 q 801 727 789 739 q 813 698 813 715 q 809 681 813 689 q 799 667 806 672 l 697 581 z "},"ơ":{"ha":809,"x_min":43,"x_max":813,"o":"m 157 567 q 128 579 140 567 q 116 608 116 591 q 128 637 116 624 q 157 649 140 649 q 185 637 173 649 q 198 608 198 624 q 185 579 198 591 q 157 567 173 567 m 405 639 q 376 651 388 639 q 364 681 364 664 q 376 709 364 697 q 405 721 388 721 q 586 673 503 721 q 717 541 669 624 q 766 360 766 458 q 717 179 766 262 q 586 47 669 96 q 405 -1 503 -1 q 224 47 307 -1 q 92 179 140 96 q 43 360 43 262 q 55 389 43 377 q 84 401 67 401 q 113 389 101 401 q 125 360 125 377 q 163 220 125 284 q 264 118 200 156 q 405 81 329 81 q 545 118 481 81 q 647 220 609 156 q 684 360 684 284 q 647 500 684 436 q 545 602 609 564 q 405 639 481 639 m 697 581 q 670 571 685 571 q 641 583 653 571 q 629 612 629 595 q 633 629 629 621 q 644 643 637 637 l 746 729 q 772 739 757 739 q 801 727 789 739 q 813 698 813 715 q 809 681 813 689 q 799 667 806 672 l 697 581 z "},"Ớ":{"ha":809,"x_min":43,"x_max":813,"o":"m 157 567 q 128 579 140 567 q 116 608 116 591 q 128 637 116 624 q 157 649 140 649 q 185 637 173 649 q 198 608 198 624 q 185 579 198 591 q 157 567 173 567 m 405 639 q 376 651 388 639 q 364 681 364 664 q 376 709 364 697 q 405 721 388 721 q 586 673 503 721 q 717 541 669 624 q 766 360 766 458 q 717 179 766 262 q 586 47 669 96 q 405 -1 503 -1 q 224 47 307 -1 q 92 179 140 96 q 43 360 43 262 q 55 389 43 377 q 84 401 67 401 q 113 389 101 401 q 125 360 125 377 q 163 220 125 284 q 264 118 200 156 q 405 81 329 81 q 545 118 481 81 q 647 220 609 156 q 684 360 684 284 q 647 500 684 436 q 545 602 609 564 q 405 639 481 639 m 697 581 q 670 571 685 571 q 641 583 653 571 q 629 612 629 595 q 633 629 629 621 q 644 643 637 637 l 746 729 q 772 739 757 739 q 801 727 789 739 q 813 698 813 715 q 809 681 813 689 q 799 667 806 672 l 697 581 m 427 802 q 409 796 419 796 q 387 805 397 796 q 378 827 378 814 q 391 853 378 844 l 532 951 q 550 957 541 957 q 573 948 563 957 q 582 925 582 938 q 568 900 582 909 l 427 802 z "},"ớ":{"ha":809,"x_min":43,"x_max":813,"o":"m 157 567 q 128 579 140 567 q 116 608 116 591 q 128 637 116 624 q 157 649 140 649 q 185 637 173 649 q 198 608 198 624 q 185 579 198 591 q 157 567 173 567 m 405 639 q 376 651 388 639 q 364 681 364 664 q 376 709 364 697 q 405 721 388 721 q 586 673 503 721 q 717 541 669 624 q 766 360 766 458 q 717 179 766 262 q 586 47 669 96 q 405 -1 503 -1 q 224 47 307 -1 q 92 179 140 96 q 43 360 43 262 q 55 389 43 377 q 84 401 67 401 q 113 389 101 401 q 125 360 125 377 q 163 220 125 284 q 264 118 200 156 q 405 81 329 81 q 545 118 481 81 q 647 220 609 156 q 684 360 684 284 q 647 500 684 436 q 545 602 609 564 q 405 639 481 639 m 697 581 q 670 571 685 571 q 641 583 653 571 q 629 612 629 595 q 633 629 629 621 q 644 643 637 637 l 746 729 q 772 739 757 739 q 801 727 789 739 q 813 698 813 715 q 809 681 813 689 q 799 667 806 672 l 697 581 m 427 802 q 409 796 419 796 q 387 805 397 796 q 378 827 378 814 q 391 853 378 844 l 532 951 q 550 957 541 957 q 573 948 563 957 q 582 925 582 938 q 568 900 582 909 l 427 802 z "},"Ợ":{"ha":809,"x_min":43,"x_max":813,"o":"m 157 567 q 128 579 140 567 q 116 608 116 591 q 128 637 116 624 q 157 649 140 649 q 185 637 173 649 q 198 608 198 624 q 185 579 198 591 q 157 567 173 567 m 405 639 q 376 651 388 639 q 364 681 364 664 q 376 709 364 697 q 405 721 388 721 q 586 673 503 721 q 717 541 669 624 q 766 360 766 458 q 717 179 766 262 q 586 47 669 96 q 405 -1 503 -1 q 224 47 307 -1 q 92 179 140 96 q 43 360 43 262 q 55 389 43 377 q 84 401 67 401 q 113 389 101 401 q 125 360 125 377 q 163 220 125 284 q 264 118 200 156 q 405 81 329 81 q 545 118 481 81 q 647 220 609 156 q 684 360 684 284 q 647 500 684 436 q 545 602 609 564 q 405 639 481 639 m 697 581 q 670 571 685 571 q 641 583 653 571 q 629 612 629 595 q 633 629 629 621 q 644 643 637 637 l 746 729 q 772 739 757 739 q 801 727 789 739 q 813 698 813 715 q 809 681 813 689 q 799 667 806 672 l 697 581 m 398 -156 q 367 -144 380 -156 q 354 -113 354 -131 q 367 -82 354 -95 q 398 -69 380 -69 q 429 -82 416 -69 q 442 -113 442 -95 q 429 -144 442 -131 q 398 -156 416 -156 z "},"ợ":{"ha":809,"x_min":43,"x_max":813,"o":"m 157 567 q 128 579 140 567 q 116 608 116 591 q 128 637 116 624 q 157 649 140 649 q 185 637 173 649 q 198 608 198 624 q 185 579 198 591 q 157 567 173 567 m 405 639 q 376 651 388 639 q 364 681 364 664 q 376 709 364 697 q 405 721 388 721 q 586 673 503 721 q 717 541 669 624 q 766 360 766 458 q 717 179 766 262 q 586 47 669 96 q 405 -1 503 -1 q 224 47 307 -1 q 92 179 140 96 q 43 360 43 262 q 55 389 43 377 q 84 401 67 401 q 113 389 101 401 q 125 360 125 377 q 163 220 125 284 q 264 118 200 156 q 405 81 329 81 q 545 118 481 81 q 647 220 609 156 q 684 360 684 284 q 647 500 684 436 q 545 602 609 564 q 405 639 481 639 m 697 581 q 670 571 685 571 q 641 583 653 571 q 629 612 629 595 q 633 629 629 621 q 644 643 637 637 l 746 729 q 772 739 757 739 q 801 727 789 739 q 813 698 813 715 q 809 681 813 689 q 799 667 806 672 l 697 581 m 398 -156 q 367 -144 380 -156 q 354 -113 354 -131 q 367 -82 354 -95 q 398 -69 380 -69 q 429 -82 416 -69 q 442 -113 442 -95 q 429 -144 442 -131 q 398 -156 416 -156 z "},"Ờ":{"ha":809,"x_min":43,"x_max":813,"o":"m 157 567 q 128 579 140 567 q 116 608 116 591 q 128 637 116 624 q 157 649 140 649 q 185 637 173 649 q 198 608 198 624 q 185 579 198 591 q 157 567 173 567 m 405 639 q 376 651 388 639 q 364 681 364 664 q 376 709 364 697 q 405 721 388 721 q 586 673 503 721 q 717 541 669 624 q 766 360 766 458 q 717 179 766 262 q 586 47 669 96 q 405 -1 503 -1 q 224 47 307 -1 q 92 179 140 96 q 43 360 43 262 q 55 389 43 377 q 84 401 67 401 q 113 389 101 401 q 125 360 125 377 q 163 220 125 284 q 264 118 200 156 q 405 81 329 81 q 545 118 481 81 q 647 220 609 156 q 684 360 684 284 q 647 500 684 436 q 545 602 609 564 q 405 639 481 639 m 697 581 q 670 571 685 571 q 641 583 653 571 q 629 612 629 595 q 633 629 629 621 q 644 643 637 637 l 746 729 q 772 739 757 739 q 801 727 789 739 q 813 698 813 715 q 809 681 813 689 q 799 667 806 672 l 697 581 m 241 900 q 228 925 228 909 q 237 948 228 938 q 259 957 246 957 q 277 951 269 957 l 418 853 q 432 827 432 844 q 422 805 432 814 q 400 796 413 796 q 382 802 391 796 l 241 900 z "},"ờ":{"ha":809,"x_min":43,"x_max":813,"o":"m 157 567 q 128 579 140 567 q 116 608 116 591 q 128 637 116 624 q 157 649 140 649 q 185 637 173 649 q 198 608 198 624 q 185 579 198 591 q 157 567 173 567 m 405 639 q 376 651 388 639 q 364 681 364 664 q 376 709 364 697 q 405 721 388 721 q 586 673 503 721 q 717 541 669 624 q 766 360 766 458 q 717 179 766 262 q 586 47 669 96 q 405 -1 503 -1 q 224 47 307 -1 q 92 179 140 96 q 43 360 43 262 q 55 389 43 377 q 84 401 67 401 q 113 389 101 401 q 125 360 125 377 q 163 220 125 284 q 264 118 200 156 q 405 81 329 81 q 545 118 481 81 q 647 220 609 156 q 684 360 684 284 q 647 500 684 436 q 545 602 609 564 q 405 639 481 639 m 697 581 q 670 571 685 571 q 641 583 653 571 q 629 612 629 595 q 633 629 629 621 q 644 643 637 637 l 746 729 q 772 739 757 739 q 801 727 789 739 q 813 698 813 715 q 809 681 813 689 q 799 667 806 672 l 697 581 m 241 900 q 228 925 228 909 q 237 948 228 938 q 259 957 246 957 q 277 951 269 957 l 418 853 q 432 827 432 844 q 422 805 432 814 q 400 796 413 796 q 382 802 391 796 l 241 900 z "},"Ở":{"ha":809,"x_min":43,"x_max":813,"o":"m 157 567 q 128 579 140 567 q 116 608 116 591 q 128 637 116 624 q 157 649 140 649 q 185 637 173 649 q 198 608 198 624 q 185 579 198 591 q 157 567 173 567 m 405 639 q 376 651 388 639 q 364 681 364 664 q 376 709 364 697 q 405 721 388 721 q 586 673 503 721 q 717 541 669 624 q 766 360 766 458 q 717 179 766 262 q 586 47 669 96 q 405 -1 503 -1 q 224 47 307 -1 q 92 179 140 96 q 43 360 43 262 q 55 389 43 377 q 84 401 67 401 q 113 389 101 401 q 125 360 125 377 q 163 220 125 284 q 264 118 200 156 q 405 81 329 81 q 545 118 481 81 q 647 220 609 156 q 684 360 684 284 q 647 500 684 436 q 545 602 609 564 q 405 639 481 639 m 697 581 q 670 571 685 571 q 641 583 653 571 q 629 612 629 595 q 633 629 629 621 q 644 643 637 637 l 746 729 q 772 739 757 739 q 801 727 789 739 q 813 698 813 715 q 809 681 813 689 q 799 667 806 672 l 697 581 m 378 917 q 358 925 366 917 q 350 944 350 933 q 358 965 350 956 q 378 973 366 973 q 427 960 404 973 q 462 924 449 947 q 475 876 475 902 q 462 826 475 849 q 427 791 449 804 q 378 778 404 778 q 358 786 366 778 q 350 806 350 794 q 358 826 350 818 q 378 834 366 834 q 407 846 395 834 q 419 876 419 858 q 407 905 419 892 q 378 917 395 917 z "},"ở":{"ha":809,"x_min":43,"x_max":813,"o":"m 157 567 q 128 579 140 567 q 116 608 116 591 q 128 637 116 624 q 157 649 140 649 q 185 637 173 649 q 198 608 198 624 q 185 579 198 591 q 157 567 173 567 m 405 639 q 376 651 388 639 q 364 681 364 664 q 376 709 364 697 q 405 721 388 721 q 586 673 503 721 q 717 541 669 624 q 766 360 766 458 q 717 179 766 262 q 586 47 669 96 q 405 -1 503 -1 q 224 47 307 -1 q 92 179 140 96 q 43 360 43 262 q 55 389 43 377 q 84 401 67 401 q 113 389 101 401 q 125 360 125 377 q 163 220 125 284 q 264 118 200 156 q 405 81 329 81 q 545 118 481 81 q 647 220 609 156 q 684 360 684 284 q 647 500 684 436 q 545 602 609 564 q 405 639 481 639 m 697 581 q 670 571 685 571 q 641 583 653 571 q 629 612 629 595 q 633 629 629 621 q 644 643 637 637 l 746 729 q 772 739 757 739 q 801 727 789 739 q 813 698 813 715 q 809 681 813 689 q 799 667 806 672 l 697 581 m 378 917 q 358 925 366 917 q 350 944 350 933 q 358 965 350 956 q 378 973 366 973 q 427 960 404 973 q 462 924 449 947 q 475 876 475 902 q 462 826 475 849 q 427 791 449 804 q 378 778 404 778 q 358 786 366 778 q 350 806 350 794 q 358 826 350 818 q 378 834 366 834 q 407 846 395 834 q 419 876 419 858 q 407 905 419 892 q 378 917 395 917 z "},"Ỡ":{"ha":809,"x_min":43,"x_max":813,"o":"m 157 567 q 128 579 140 567 q 116 608 116 591 q 128 637 116 624 q 157 649 140 649 q 185 637 173 649 q 198 608 198 624 q 185 579 198 591 q 157 567 173 567 m 405 639 q 376 651 388 639 q 364 681 364 664 q 376 709 364 697 q 405 721 388 721 q 586 673 503 721 q 717 541 669 624 q 766 360 766 458 q 717 179 766 262 q 586 47 669 96 q 405 -1 503 -1 q 224 47 307 -1 q 92 179 140 96 q 43 360 43 262 q 55 389 43 377 q 84 401 67 401 q 113 389 101 401 q 125 360 125 377 q 163 220 125 284 q 264 118 200 156 q 405 81 329 81 q 545 118 481 81 q 647 220 609 156 q 684 360 684 284 q 647 500 684 436 q 545 602 609 564 q 405 639 481 639 m 697 581 q 670 571 685 571 q 641 583 653 571 q 629 612 629 595 q 633 629 629 621 q 644 643 637 637 l 746 729 q 772 739 757 739 q 801 727 789 739 q 813 698 813 715 q 809 681 813 689 q 799 667 806 672 l 697 581 m 497 894 q 509 908 501 903 q 526 914 516 914 q 549 905 540 914 q 558 882 558 896 q 555 870 558 877 q 519 824 543 841 q 466 808 495 808 q 384 841 423 808 q 343 862 360 862 q 312 834 324 862 q 301 820 309 826 q 283 815 293 815 q 261 824 270 815 q 252 846 252 833 q 255 858 252 852 q 291 904 267 888 q 344 921 315 921 q 425 888 387 921 q 467 867 451 867 q 497 894 486 867 z "},"ỡ":{"ha":809,"x_min":43,"x_max":813,"o":"m 157 567 q 128 579 140 567 q 116 608 116 591 q 128 637 116 624 q 157 649 140 649 q 185 637 173 649 q 198 608 198 624 q 185 579 198 591 q 157 567 173 567 m 405 639 q 376 651 388 639 q 364 681 364 664 q 376 709 364 697 q 405 721 388 721 q 586 673 503 721 q 717 541 669 624 q 766 360 766 458 q 717 179 766 262 q 586 47 669 96 q 405 -1 503 -1 q 224 47 307 -1 q 92 179 140 96 q 43 360 43 262 q 55 389 43 377 q 84 401 67 401 q 113 389 101 401 q 125 360 125 377 q 163 220 125 284 q 264 118 200 156 q 405 81 329 81 q 545 118 481 81 q 647 220 609 156 q 684 360 684 284 q 647 500 684 436 q 545 602 609 564 q 405 639 481 639 m 697 581 q 670 571 685 571 q 641 583 653 571 q 629 612 629 595 q 633 629 629 621 q 644 643 637 637 l 746 729 q 772 739 757 739 q 801 727 789 739 q 813 698 813 715 q 809 681 813 689 q 799 667 806 672 l 697 581 m 497 894 q 509 908 501 903 q 526 914 516 914 q 549 905 540 914 q 558 882 558 896 q 555 870 558 877 q 519 824 543 841 q 466 808 495 808 q 384 841 423 808 q 343 862 360 862 q 312 834 324 862 q 301 820 309 826 q 283 815 293 815 q 261 824 270 815 q 252 846 252 833 q 255 858 252 852 q 291 904 267 888 q 344 921 315 921 q 425 888 387 921 q 467 867 451 867 q 497 894 486 867 z "},"Ő":{"ha":809,"x_min":43,"x_max":766,"o":"m 157 567 q 128 579 140 567 q 116 608 116 591 q 128 637 116 624 q 157 649 140 649 q 185 637 173 649 q 198 608 198 624 q 185 579 198 591 q 157 567 173 567 m 405 639 q 376 651 388 639 q 364 681 364 664 q 376 709 364 697 q 405 721 388 721 q 586 673 503 721 q 717 541 669 624 q 766 360 766 458 q 717 179 766 262 q 586 47 669 96 q 405 -1 503 -1 q 224 47 307 -1 q 92 179 140 96 q 43 360 43 262 q 55 389 43 377 q 84 401 67 401 q 113 389 101 401 q 125 360 125 377 q 163 220 125 284 q 264 118 200 156 q 405 81 329 81 q 545 118 481 81 q 647 220 609 156 q 684 360 684 284 q 647 500 684 436 q 545 602 609 564 q 405 639 481 639 m 352 946 q 373 955 361 955 q 396 946 386 955 q 405 923 405 937 q 395 901 405 909 l 297 807 q 275 798 288 798 q 253 808 262 798 q 244 830 244 817 q 254 852 244 844 l 352 946 m 513 946 q 534 955 522 955 q 557 946 548 955 q 566 923 566 937 q 556 901 566 909 l 458 807 q 436 798 449 798 q 414 808 423 798 q 405 830 405 817 q 415 852 405 844 l 513 946 z "},"ő":{"ha":809,"x_min":43,"x_max":766,"o":"m 157 567 q 128 579 140 567 q 116 608 116 591 q 128 637 116 624 q 157 649 140 649 q 185 637 173 649 q 198 608 198 624 q 185 579 198 591 q 157 567 173 567 m 405 639 q 376 651 388 639 q 364 681 364 664 q 376 709 364 697 q 405 721 388 721 q 586 673 503 721 q 717 541 669 624 q 766 360 766 458 q 717 179 766 262 q 586 47 669 96 q 405 -1 503 -1 q 224 47 307 -1 q 92 179 140 96 q 43 360 43 262 q 55 389 43 377 q 84 401 67 401 q 113 389 101 401 q 125 360 125 377 q 163 220 125 284 q 264 118 200 156 q 405 81 329 81 q 545 118 481 81 q 647 220 609 156 q 684 360 684 284 q 647 500 684 436 q 545 602 609 564 q 405 639 481 639 m 352 946 q 373 955 361 955 q 396 946 386 955 q 405 923 405 937 q 395 901 405 909 l 297 807 q 275 798 288 798 q 253 808 262 798 q 244 830 244 817 q 254 852 244 844 l 352 946 m 513 946 q 534 955 522 955 q 557 946 548 955 q 566 923 566 937 q 556 901 566 909 l 458 807 q 436 798 449 798 q 414 808 423 798 q 405 830 405 817 q 415 852 405 844 l 513 946 z "},"Ō":{"ha":809,"x_min":43,"x_max":766,"o":"m 157 567 q 128 579 140 567 q 116 608 116 591 q 128 637 116 624 q 157 649 140 649 q 185 637 173 649 q 198 608 198 624 q 185 579 198 591 q 157 567 173 567 m 405 639 q 376 651 388 639 q 364 681 364 664 q 376 709 364 697 q 405 721 388 721 q 586 673 503 721 q 717 541 669 624 q 766 360 766 458 q 717 179 766 262 q 586 47 669 96 q 405 -1 503 -1 q 224 47 307 -1 q 92 179 140 96 q 43 360 43 262 q 55 389 43 377 q 84 401 67 401 q 113 389 101 401 q 125 360 125 377 q 163 220 125 284 q 264 118 200 156 q 405 81 329 81 q 545 118 481 81 q 647 220 609 156 q 684 360 684 284 q 647 500 684 436 q 545 602 609 564 q 405 639 481 639 m 291 829 q 268 838 277 829 q 259 860 259 847 q 268 882 259 873 q 291 891 277 891 l 519 891 q 541 882 532 891 q 550 860 550 873 q 541 838 550 847 q 519 829 532 829 l 291 829 z "},"ō":{"ha":809,"x_min":43,"x_max":766,"o":"m 157 567 q 128 579 140 567 q 116 608 116 591 q 128 637 116 624 q 157 649 140 649 q 185 637 173 649 q 198 608 198 624 q 185 579 198 591 q 157 567 173 567 m 405 639 q 376 651 388 639 q 364 681 364 664 q 376 709 364 697 q 405 721 388 721 q 586 673 503 721 q 717 541 669 624 q 766 360 766 458 q 717 179 766 262 q 586 47 669 96 q 405 -1 503 -1 q 224 47 307 -1 q 92 179 140 96 q 43 360 43 262 q 55 389 43 377 q 84 401 67 401 q 113 389 101 401 q 125 360 125 377 q 163 220 125 284 q 264 118 200 156 q 405 81 329 81 q 545 118 481 81 q 647 220 609 156 q 684 360 684 284 q 647 500 684 436 q 545 602 609 564 q 405 639 481 639 m 291 829 q 268 838 277 829 q 259 860 259 847 q 268 882 259 873 q 291 891 277 891 l 519 891 q 541 882 532 891 q 550 860 550 873 q 541 838 550 847 q 519 829 532 829 l 291 829 z "},"Ø":{"ha":796,"x_min":37,"x_max":759,"o":"m 78 0 q 50 12 62 0 q 38 40 38 24 q 50 68 38 56 l 690 708 q 718 720 702 720 q 746 709 735 720 q 758 681 758 697 q 746 652 758 664 l 106 12 q 78 0 94 0 m 91 232 q 66 241 77 232 q 51 263 55 249 q 37 361 37 312 q 85 538 37 455 q 215 671 132 621 q 397 720 297 720 q 495 706 447 720 q 517 692 508 703 q 526 666 526 681 q 514 638 526 649 q 485 626 502 626 q 475 627 478 626 q 397 638 438 638 q 256 600 320 638 q 156 498 192 562 q 119 361 119 434 q 130 282 119 322 q 132 272 132 277 q 120 244 132 256 q 91 232 108 232 m 399 0 q 301 14 348 0 q 279 29 288 17 q 270 54 270 40 q 282 83 270 71 q 311 94 294 94 q 320 93 317 94 q 399 82 358 82 q 540 120 476 82 q 641 222 604 158 q 677 360 677 287 q 666 438 677 399 q 664 448 664 443 q 676 476 664 464 q 705 488 688 488 q 730 479 719 488 q 744 457 741 471 q 759 360 759 409 q 712 182 759 265 q 581 50 664 99 q 399 0 498 0 z "},"ø":{"ha":796,"x_min":37,"x_max":759,"o":"m 78 0 q 50 12 62 0 q 38 40 38 24 q 50 68 38 56 l 690 708 q 718 720 702 720 q 746 709 735 720 q 758 681 758 697 q 746 652 758 664 l 106 12 q 78 0 94 0 m 91 232 q 66 241 77 232 q 51 263 55 249 q 37 361 37 312 q 85 538 37 455 q 215 671 132 621 q 397 720 297 720 q 495 706 447 720 q 517 692 508 703 q 526 666 526 681 q 514 638 526 649 q 485 626 502 626 q 475 627 478 626 q 397 638 438 638 q 256 600 320 638 q 156 498 192 562 q 119 361 119 434 q 130 282 119 322 q 132 272 132 277 q 120 244 132 256 q 91 232 108 232 m 399 0 q 301 14 348 0 q 279 29 288 17 q 270 54 270 40 q 282 83 270 71 q 311 94 294 94 q 320 93 317 94 q 399 82 358 82 q 540 120 476 82 q 641 222 604 158 q 677 360 677 287 q 666 438 677 399 q 664 448 664 443 q 676 476 664 464 q 705 488 688 488 q 730 479 719 488 q 744 457 741 471 q 759 360 759 409 q 712 182 759 265 q 581 50 664 99 q 399 0 498 0 z "},"Õ":{"ha":809,"x_min":43,"x_max":766,"o":"m 157 567 q 128 579 140 567 q 116 608 116 591 q 128 637 116 624 q 157 649 140 649 q 185 637 173 649 q 198 608 198 624 q 185 579 198 591 q 157 567 173 567 m 405 639 q 376 651 388 639 q 364 681 364 664 q 376 709 364 697 q 405 721 388 721 q 586 673 503 721 q 717 541 669 624 q 766 360 766 458 q 717 179 766 262 q 586 47 669 96 q 405 -1 503 -1 q 224 47 307 -1 q 92 179 140 96 q 43 360 43 262 q 55 389 43 377 q 84 401 67 401 q 113 389 101 401 q 125 360 125 377 q 163 220 125 284 q 264 118 200 156 q 405 81 329 81 q 545 118 481 81 q 647 220 609 156 q 684 360 684 284 q 647 500 684 436 q 545 602 609 564 q 405 639 481 639 m 497 894 q 509 908 501 903 q 526 914 516 914 q 549 905 540 914 q 558 882 558 896 q 555 870 558 877 q 519 824 543 841 q 466 808 495 808 q 384 841 423 808 q 343 862 360 862 q 312 834 324 862 q 301 820 309 826 q 283 815 293 815 q 261 824 270 815 q 252 846 252 833 q 255 858 252 852 q 291 904 267 888 q 344 921 315 921 q 425 888 387 921 q 467 867 451 867 q 497 894 486 867 z "},"õ":{"ha":809,"x_min":43,"x_max":766,"o":"m 157 567 q 128 579 140 567 q 116 608 116 591 q 128 637 116 624 q 157 649 140 649 q 185 637 173 649 q 198 608 198 624 q 185 579 198 591 q 157 567 173 567 m 405 639 q 376 651 388 639 q 364 681 364 664 q 376 709 364 697 q 405 721 388 721 q 586 673 503 721 q 717 541 669 624 q 766 360 766 458 q 717 179 766 262 q 586 47 669 96 q 405 -1 503 -1 q 224 47 307 -1 q 92 179 140 96 q 43 360 43 262 q 55 389 43 377 q 84 401 67 401 q 113 389 101 401 q 125 360 125 377 q 163 220 125 284 q 264 118 200 156 q 405 81 329 81 q 545 118 481 81 q 647 220 609 156 q 684 360 684 284 q 647 500 684 436 q 545 602 609 564 q 405 639 481 639 m 497 894 q 509 908 501 903 q 526 914 516 914 q 549 905 540 914 q 558 882 558 896 q 555 870 558 877 q 519 824 543 841 q 466 808 495 808 q 384 841 423 808 q 343 862 360 862 q 312 834 324 862 q 301 820 309 826 q 283 815 293 815 q 261 824 270 815 q 252 846 252 833 q 255 858 252 852 q 291 904 267 888 q 344 921 315 921 q 425 888 387 921 q 467 867 451 867 q 497 894 486 867 z "},"Œ":{"ha":972,"x_min":43,"x_max":928,"o":"m 887 90 q 916 78 904 90 q 928 49 928 66 q 916 20 928 32 q 887 8 904 8 l 552 8 q 523 20 535 8 q 511 49 511 32 q 523 78 511 66 q 552 90 535 90 l 887 90 m 519 40 l 519 363 q 531 392 519 380 q 560 404 543 404 q 589 392 577 404 q 601 363 601 380 l 601 40 l 519 40 m 403 82 q 432 70 420 82 q 444 41 444 58 q 432 12 444 24 q 403 0 420 0 q 223 48 306 0 q 92 180 140 97 q 43 360 43 262 q 92 541 43 458 q 223 672 140 623 q 403 720 306 720 l 887 720 q 916 708 904 720 q 928 680 928 696 q 916 650 928 663 q 887 638 904 638 l 403 638 q 264 601 328 638 q 162 500 200 564 q 125 360 125 436 q 162 220 125 284 q 264 119 200 156 q 403 82 328 82 m 731 319 q 702 331 714 319 q 690 360 690 343 q 702 389 690 377 q 731 401 714 401 l 887 401 q 916 389 904 401 q 928 360 928 377 q 916 331 928 343 q 887 319 904 319 l 731 319 z "},"œ":{"ha":972,"x_min":43,"x_max":928,"o":"m 887 90 q 916 78 904 90 q 928 49 928 66 q 916 20 928 32 q 887 8 904 8 l 552 8 q 523 20 535 8 q 511 49 511 32 q 523 78 511 66 q 552 90 535 90 l 887 90 m 519 40 l 519 363 q 531 392 519 380 q 560 404 543 404 q 589 392 577 404 q 601 363 601 380 l 601 40 l 519 40 m 403 82 q 432 70 420 82 q 444 41 444 58 q 432 12 444 24 q 403 0 420 0 q 223 48 306 0 q 92 180 140 97 q 43 360 43 262 q 92 541 43 458 q 223 672 140 623 q 403 720 306 720 l 887 720 q 916 708 904 720 q 928 680 928 696 q 916 650 928 663 q 887 638 904 638 l 403 638 q 264 601 328 638 q 162 500 200 564 q 125 360 125 436 q 162 220 125 284 q 264 119 200 156 q 403 82 328 82 m 731 319 q 702 331 714 319 q 690 360 690 343 q 702 389 690 377 q 731 401 714 401 l 887 401 q 916 389 904 401 q 928 360 928 377 q 916 331 928 343 q 887 319 904 319 l 731 319 z "},"P":{"ha":626,"x_min":52,"x_max":584,"o":"m 134 41 q 122 12 134 24 q 94 0 110 0 q 65 12 77 0 q 52 41 52 24 l 52 340 q 65 369 52 357 q 94 381 77 381 q 122 369 110 381 q 134 340 134 357 l 134 41 m 300 291 q 271 303 283 291 q 259 332 259 315 q 271 360 259 348 q 300 372 283 372 l 370 372 q 436 390 406 372 q 484 439 467 408 q 502 506 502 470 q 484 572 502 542 q 436 620 467 602 q 370 638 406 638 l 94 638 q 65 650 77 638 q 53 680 53 663 q 65 708 53 696 q 94 720 77 720 l 370 720 q 477 691 428 720 q 555 613 526 663 q 584 506 584 564 q 555 398 584 447 q 477 319 526 348 q 370 291 428 291 l 300 291 z "},"p":{"ha":626,"x_min":52,"x_max":584,"o":"m 134 41 q 122 12 134 24 q 94 0 110 0 q 65 12 77 0 q 52 41 52 24 l 52 340 q 65 369 52 357 q 94 381 77 381 q 122 369 110 381 q 134 340 134 357 l 134 41 m 300 291 q 271 303 283 291 q 259 332 259 315 q 271 360 259 348 q 300 372 283 372 l 370 372 q 436 390 406 372 q 484 439 467 408 q 502 506 502 470 q 484 572 502 542 q 436 620 467 602 q 370 638 406 638 l 94 638 q 65 650 77 638 q 53 680 53 663 q 65 708 53 696 q 94 720 77 720 l 370 720 q 477 691 428 720 q 555 613 526 663 q 584 506 584 564 q 555 398 584 447 q 477 319 526 348 q 370 291 428 291 l 300 291 z "},"Þ":{"ha":604,"x_min":52,"x_max":563,"o":"m 135 40 q 123 11 135 23 q 94 -1 111 -1 q 65 11 77 -1 q 52 40 52 23 l 53 187 q 65 216 53 204 q 94 228 77 228 q 123 216 111 228 q 135 187 135 204 l 135 40 m 53 680 q 65 709 53 697 q 94 721 77 721 q 123 709 111 721 q 135 680 135 697 l 135 378 q 123 349 135 361 q 94 337 111 337 q 65 349 77 337 q 53 378 53 361 l 53 680 m 94 146 q 65 158 77 146 q 53 187 53 170 q 65 215 53 203 q 94 227 77 227 l 348 227 q 415 245 384 227 q 463 294 445 263 q 481 361 481 325 q 463 427 481 397 q 415 476 445 458 q 348 493 384 493 l 277 493 q 248 505 260 493 q 236 534 236 517 q 248 563 236 551 q 277 575 260 575 l 348 575 q 456 546 407 575 q 534 468 505 517 q 563 361 563 419 q 534 253 563 302 q 456 174 505 203 q 348 146 407 146 l 94 146 z "},"þ":{"ha":604,"x_min":52,"x_max":563,"o":"m 135 40 q 123 11 135 23 q 94 -1 111 -1 q 65 11 77 -1 q 52 40 52 23 l 53 187 q 65 216 53 204 q 94 228 77 228 q 123 216 111 228 q 135 187 135 204 l 135 40 m 53 680 q 65 709 53 697 q 94 721 77 721 q 123 709 111 721 q 135 680 135 697 l 135 378 q 123 349 135 361 q 94 337 111 337 q 65 349 77 337 q 53 378 53 361 l 53 680 m 94 146 q 65 158 77 146 q 53 187 53 170 q 65 215 53 203 q 94 227 77 227 l 348 227 q 415 245 384 227 q 463 294 445 263 q 481 361 481 325 q 463 427 481 397 q 415 476 445 458 q 348 493 384 493 l 277 493 q 248 505 260 493 q 236 534 236 517 q 248 563 236 551 q 277 575 260 575 l 348 575 q 456 546 407 575 q 534 468 505 517 q 563 361 563 419 q 534 253 563 302 q 456 174 505 203 q 348 146 407 146 l 94 146 z "},"Q":{"ha":809,"x_min":43,"x_max":765,"o":"m 752 70 q 764 41 764 59 q 752 12 764 24 q 723 1 740 1 q 694 12 705 1 l 505 202 q 486 224 491 216 q 481 242 481 233 q 494 271 481 259 q 523 283 506 283 q 551 271 539 283 l 752 70 m 404 81 q 433 69 421 81 q 445 40 445 57 q 433 11 445 23 q 404 -1 421 -1 q 223 48 306 -1 q 92 179 140 96 q 43 360 43 262 q 92 541 43 458 q 223 673 140 624 q 404 721 306 721 q 586 673 503 721 q 717 541 669 624 q 765 360 765 458 q 753 331 765 343 q 725 319 741 319 q 696 331 708 319 q 684 360 684 343 q 646 500 684 436 q 544 602 609 564 q 404 639 480 639 q 264 602 328 639 q 163 500 200 564 q 125 360 125 436 q 163 220 125 284 q 264 118 200 156 q 404 81 328 81 z "},"q":{"ha":809,"x_min":43,"x_max":765,"o":"m 752 70 q 764 41 764 59 q 752 12 764 24 q 723 1 740 1 q 694 12 705 1 l 505 202 q 486 224 491 216 q 481 242 481 233 q 494 271 481 259 q 523 283 506 283 q 551 271 539 283 l 752 70 m 404 81 q 433 69 421 81 q 445 40 445 57 q 433 11 445 23 q 404 -1 421 -1 q 223 48 306 -1 q 92 179 140 96 q 43 360 43 262 q 92 541 43 458 q 223 673 140 624 q 404 721 306 721 q 586 673 503 721 q 717 541 669 624 q 765 360 765 458 q 753 331 765 343 q 725 319 741 319 q 696 331 708 319 q 684 360 684 343 q 646 500 684 436 q 544 602 609 564 q 404 639 480 639 q 264 602 328 639 q 163 500 200 564 q 125 360 125 436 q 163 220 125 284 q 264 118 200 156 q 404 81 328 81 z "},"R":{"ha":618,"x_min":53,"x_max":581,"o":"m 141 41 q 129 12 141 24 q 100 0 117 0 q 71 12 83 0 q 59 41 59 24 l 59 340 q 71 369 59 357 q 100 381 83 381 q 129 369 117 381 q 141 340 141 357 l 141 41 m 572 67 q 581 42 581 57 q 569 13 581 25 q 540 1 557 1 q 522 4 530 1 q 509 15 514 8 l 273 306 q 264 331 264 317 q 276 360 264 348 q 305 372 288 372 q 337 357 324 372 l 572 67 m 305 291 q 276 303 288 291 q 264 332 264 315 q 276 360 264 348 q 305 372 288 372 l 349 372 q 416 390 385 372 q 464 439 447 408 q 482 506 482 470 q 464 572 482 542 q 416 620 447 602 q 349 638 385 638 l 94 638 q 65 650 77 638 q 53 680 53 663 q 65 708 53 696 q 94 720 77 720 l 349 720 q 457 691 408 720 q 535 613 506 663 q 564 506 564 564 q 535 398 564 447 q 457 319 506 348 q 349 291 408 291 l 305 291 z "},"r":{"ha":618,"x_min":53,"x_max":581,"o":"m 141 41 q 129 12 141 24 q 100 0 117 0 q 71 12 83 0 q 59 41 59 24 l 59 340 q 71 369 59 357 q 100 381 83 381 q 129 369 117 381 q 141 340 141 357 l 141 41 m 572 67 q 581 42 581 57 q 569 13 581 25 q 540 1 557 1 q 522 4 530 1 q 509 15 514 8 l 273 306 q 264 331 264 317 q 276 360 264 348 q 305 372 288 372 q 337 357 324 372 l 572 67 m 305 291 q 276 303 288 291 q 264 332 264 315 q 276 360 264 348 q 305 372 288 372 l 349 372 q 416 390 385 372 q 464 439 447 408 q 482 506 482 470 q 464 572 482 542 q 416 620 447 602 q 349 638 385 638 l 94 638 q 65 650 77 638 q 53 680 53 663 q 65 708 53 696 q 94 720 77 720 l 349 720 q 457 691 408 720 q 535 613 506 663 q 564 506 564 564 q 535 398 564 447 q 457 319 506 348 q 349 291 408 291 l 305 291 z "},"Ŕ":{"ha":618,"x_min":53,"x_max":581,"o":"m 141 41 q 129 12 141 24 q 100 0 117 0 q 71 12 83 0 q 59 41 59 24 l 59 340 q 71 369 59 357 q 100 381 83 381 q 129 369 117 381 q 141 340 141 357 l 141 41 m 572 67 q 581 42 581 57 q 569 13 581 25 q 540 1 557 1 q 522 4 530 1 q 509 15 514 8 l 273 306 q 264 331 264 317 q 276 360 264 348 q 305 372 288 372 q 337 357 324 372 l 572 67 m 305 291 q 276 303 288 291 q 264 332 264 315 q 276 360 264 348 q 305 372 288 372 l 349 372 q 416 390 385 372 q 464 439 447 408 q 482 506 482 470 q 464 572 482 542 q 416 620 447 602 q 349 638 385 638 l 94 638 q 65 650 77 638 q 53 680 53 663 q 65 708 53 696 q 94 720 77 720 l 349 720 q 457 691 408 720 q 535 613 506 663 q 564 506 564 564 q 535 398 564 447 q 457 319 506 348 q 349 291 408 291 l 305 291 m 330 802 q 312 796 322 796 q 290 805 299 796 q 281 827 281 814 q 294 853 281 844 l 435 951 q 453 957 444 957 q 475 948 466 957 q 485 925 485 938 q 471 900 485 909 l 330 802 z "},"ŕ":{"ha":618,"x_min":53,"x_max":581,"o":"m 141 41 q 129 12 141 24 q 100 0 117 0 q 71 12 83 0 q 59 41 59 24 l 59 340 q 71 369 59 357 q 100 381 83 381 q 129 369 117 381 q 141 340 141 357 l 141 41 m 572 67 q 581 42 581 57 q 569 13 581 25 q 540 1 557 1 q 522 4 530 1 q 509 15 514 8 l 273 306 q 264 331 264 317 q 276 360 264 348 q 305 372 288 372 q 337 357 324 372 l 572 67 m 305 291 q 276 303 288 291 q 264 332 264 315 q 276 360 264 348 q 305 372 288 372 l 349 372 q 416 390 385 372 q 464 439 447 408 q 482 506 482 470 q 464 572 482 542 q 416 620 447 602 q 349 638 385 638 l 94 638 q 65 650 77 638 q 53 680 53 663 q 65 708 53 696 q 94 720 77 720 l 349 720 q 457 691 408 720 q 535 613 506 663 q 564 506 564 564 q 535 398 564 447 q 457 319 506 348 q 349 291 408 291 l 305 291 m 330 802 q 312 796 322 796 q 290 805 299 796 q 281 827 281 814 q 294 853 281 844 l 435 951 q 453 957 444 957 q 475 948 466 957 q 485 925 485 938 q 471 900 485 909 l 330 802 z "},"Ř":{"ha":618,"x_min":53,"x_max":581,"o":"m 141 41 q 129 12 141 24 q 100 0 117 0 q 71 12 83 0 q 59 41 59 24 l 59 340 q 71 369 59 357 q 100 381 83 381 q 129 369 117 381 q 141 340 141 357 l 141 41 m 572 67 q 581 42 581 57 q 569 13 581 25 q 540 1 557 1 q 522 4 530 1 q 509 15 514 8 l 273 306 q 264 331 264 317 q 276 360 264 348 q 305 372 288 372 q 337 357 324 372 l 572 67 m 305 291 q 276 303 288 291 q 264 332 264 315 q 276 360 264 348 q 305 372 288 372 l 349 372 q 416 390 385 372 q 464 439 447 408 q 482 506 482 470 q 464 572 482 542 q 416 620 447 602 q 349 638 385 638 l 94 638 q 65 650 77 638 q 53 680 53 663 q 65 708 53 696 q 94 720 77 720 l 349 720 q 457 691 408 720 q 535 613 506 663 q 564 506 564 564 q 535 398 564 447 q 457 319 506 348 q 349 291 408 291 l 305 291 m 180 899 q 169 923 169 909 q 178 945 169 936 q 200 954 187 954 q 221 947 212 954 l 328 853 q 339 830 339 844 q 330 808 339 817 q 308 798 320 798 q 287 806 296 798 l 180 899 m 395 947 q 415 954 403 954 q 437 945 428 954 q 447 923 447 936 q 436 899 447 909 l 329 806 l 288 853 l 395 947 z "},"ř":{"ha":618,"x_min":53,"x_max":581,"o":"m 141 41 q 129 12 141 24 q 100 0 117 0 q 71 12 83 0 q 59 41 59 24 l 59 340 q 71 369 59 357 q 100 381 83 381 q 129 369 117 381 q 141 340 141 357 l 141 41 m 572 67 q 581 42 581 57 q 569 13 581 25 q 540 1 557 1 q 522 4 530 1 q 509 15 514 8 l 273 306 q 264 331 264 317 q 276 360 264 348 q 305 372 288 372 q 337 357 324 372 l 572 67 m 305 291 q 276 303 288 291 q 264 332 264 315 q 276 360 264 348 q 305 372 288 372 l 349 372 q 416 390 385 372 q 464 439 447 408 q 482 506 482 470 q 464 572 482 542 q 416 620 447 602 q 349 638 385 638 l 94 638 q 65 650 77 638 q 53 680 53 663 q 65 708 53 696 q 94 720 77 720 l 349 720 q 457 691 408 720 q 535 613 506 663 q 564 506 564 564 q 535 398 564 447 q 457 319 506 348 q 349 291 408 291 l 305 291 m 180 899 q 169 923 169 909 q 178 945 169 936 q 200 954 187 954 q 221 947 212 954 l 328 853 q 339 830 339 844 q 330 808 339 817 q 308 798 320 798 q 287 806 296 798 l 180 899 m 395 947 q 415 954 403 954 q 437 945 428 954 q 447 923 447 936 q 436 899 447 909 l 329 806 l 288 853 l 395 947 z "},"Ŗ":{"ha":618,"x_min":53,"x_max":581,"o":"m 141 41 q 129 12 141 24 q 100 0 117 0 q 71 12 83 0 q 59 41 59 24 l 59 340 q 71 369 59 357 q 100 381 83 381 q 129 369 117 381 q 141 340 141 357 l 141 41 m 572 67 q 581 42 581 57 q 569 13 581 25 q 540 1 557 1 q 522 4 530 1 q 509 15 514 8 l 273 306 q 264 331 264 317 q 276 360 264 348 q 305 372 288 372 q 337 357 324 372 l 572 67 m 305 291 q 276 303 288 291 q 264 332 264 315 q 276 360 264 348 q 305 372 288 372 l 349 372 q 416 390 385 372 q 464 439 447 408 q 482 506 482 470 q 464 572 482 542 q 416 620 447 602 q 349 638 385 638 l 94 638 q 65 650 77 638 q 53 680 53 663 q 65 708 53 696 q 94 720 77 720 l 349 720 q 457 691 408 720 q 535 613 506 663 q 564 506 564 564 q 535 398 564 447 q 457 319 506 348 q 349 291 408 291 l 305 291 z "},"ŗ":{"ha":618,"x_min":53,"x_max":581,"o":"m 141 41 q 129 12 141 24 q 100 0 117 0 q 71 12 83 0 q 59 41 59 24 l 59 340 q 71 369 59 357 q 100 381 83 381 q 129 369 117 381 q 141 340 141 357 l 141 41 m 572 67 q 581 42 581 57 q 569 13 581 25 q 540 1 557 1 q 522 4 530 1 q 509 15 514 8 l 273 306 q 264 331 264 317 q 276 360 264 348 q 305 372 288 372 q 337 357 324 372 l 572 67 m 305 291 q 276 303 288 291 q 264 332 264 315 q 276 360 264 348 q 305 372 288 372 l 349 372 q 416 390 385 372 q 464 439 447 408 q 482 506 482 470 q 464 572 482 542 q 416 620 447 602 q 349 638 385 638 l 94 638 q 65 650 77 638 q 53 680 53 663 q 65 708 53 696 q 94 720 77 720 l 349 720 q 457 691 408 720 q 535 613 506 663 q 564 506 564 564 q 535 398 564 447 q 457 319 506 348 q 349 291 408 291 l 305 291 z "},"S":{"ha":614,"x_min":44,"x_max":569,"o":"m 487 193 q 499 222 487 210 q 528 235 511 235 q 557 222 545 235 q 569 193 569 210 q 543 96 569 141 q 472 26 517 52 q 376 0 428 0 l 88 0 q 59 12 71 0 q 47 41 47 24 q 59 70 47 58 q 88 82 71 82 l 376 82 q 432 97 406 82 q 472 137 457 112 q 487 193 487 163 m 357 401 q 386 389 374 401 q 398 360 398 377 q 386 331 398 343 q 357 319 374 319 l 257 319 q 228 331 240 319 q 217 360 217 343 q 228 389 217 377 q 257 401 240 401 l 357 401 m 126 527 q 114 498 126 510 q 85 486 102 486 q 56 498 68 486 q 44 527 44 510 q 70 624 44 579 q 141 694 96 668 q 238 720 185 720 l 525 720 q 554 708 542 720 q 566 679 566 696 q 554 650 566 663 q 525 638 542 638 l 238 638 q 182 623 207 638 q 141 583 156 609 q 126 527 126 557 z "},"s":{"ha":614,"x_min":44,"x_max":569,"o":"m 487 193 q 499 222 487 210 q 528 235 511 235 q 557 222 545 235 q 569 193 569 210 q 543 96 569 141 q 472 26 517 52 q 376 0 428 0 l 88 0 q 59 12 71 0 q 47 41 47 24 q 59 70 47 58 q 88 82 71 82 l 376 82 q 432 97 406 82 q 472 137 457 112 q 487 193 487 163 m 357 401 q 386 389 374 401 q 398 360 398 377 q 386 331 398 343 q 357 319 374 319 l 257 319 q 228 331 240 319 q 217 360 217 343 q 228 389 217 377 q 257 401 240 401 l 357 401 m 126 527 q 114 498 126 510 q 85 486 102 486 q 56 498 68 486 q 44 527 44 510 q 70 624 44 579 q 141 694 96 668 q 238 720 185 720 l 525 720 q 554 708 542 720 q 566 679 566 696 q 554 650 566 663 q 525 638 542 638 l 238 638 q 182 623 207 638 q 141 583 156 609 q 126 527 126 557 z "},"Ś":{"ha":614,"x_min":44,"x_max":569,"o":"m 487 193 q 499 222 487 210 q 528 235 511 235 q 557 222 545 235 q 569 193 569 210 q 543 96 569 141 q 472 26 517 52 q 376 0 428 0 l 88 0 q 59 12 71 0 q 47 41 47 24 q 59 70 47 58 q 88 82 71 82 l 376 82 q 432 97 406 82 q 472 137 457 112 q 487 193 487 163 m 357 401 q 386 389 374 401 q 398 360 398 377 q 386 331 398 343 q 357 319 374 319 l 257 319 q 228 331 240 319 q 217 360 217 343 q 228 389 217 377 q 257 401 240 401 l 357 401 m 126 527 q 114 498 126 510 q 85 486 102 486 q 56 498 68 486 q 44 527 44 510 q 70 624 44 579 q 141 694 96 668 q 238 720 185 720 l 525 720 q 554 708 542 720 q 566 679 566 696 q 554 650 566 663 q 525 638 542 638 l 238 638 q 182 623 207 638 q 141 583 156 609 q 126 527 126 557 m 329 802 q 311 796 320 796 q 289 805 298 796 q 280 827 280 814 q 293 853 280 844 l 434 951 q 452 957 443 957 q 474 948 465 957 q 484 925 484 938 q 470 900 484 909 l 329 802 z "},"ś":{"ha":614,"x_min":44,"x_max":569,"o":"m 487 193 q 499 222 487 210 q 528 235 511 235 q 557 222 545 235 q 569 193 569 210 q 543 96 569 141 q 472 26 517 52 q 376 0 428 0 l 88 0 q 59 12 71 0 q 47 41 47 24 q 59 70 47 58 q 88 82 71 82 l 376 82 q 432 97 406 82 q 472 137 457 112 q 487 193 487 163 m 357 401 q 386 389 374 401 q 398 360 398 377 q 386 331 398 343 q 357 319 374 319 l 257 319 q 228 331 240 319 q 217 360 217 343 q 228 389 217 377 q 257 401 240 401 l 357 401 m 126 527 q 114 498 126 510 q 85 486 102 486 q 56 498 68 486 q 44 527 44 510 q 70 624 44 579 q 141 694 96 668 q 238 720 185 720 l 525 720 q 554 708 542 720 q 566 679 566 696 q 554 650 566 663 q 525 638 542 638 l 238 638 q 182 623 207 638 q 141 583 156 609 q 126 527 126 557 m 329 802 q 311 796 320 796 q 289 805 298 796 q 280 827 280 814 q 293 853 280 844 l 434 951 q 452 957 443 957 q 474 948 465 957 q 484 925 484 938 q 470 900 484 909 l 329 802 z "},"Ꞌ":{"ha":196,"x_min":57,"x_max":138,"o":"m 57 790 q 69 819 57 807 q 98 831 81 831 q 127 819 115 831 q 138 790 138 807 l 138 530 q 127 501 138 513 q 98 489 115 489 q 69 501 81 489 q 57 530 57 513 l 57 790 z "},"ꞌ":{"ha":196,"x_min":57,"x_max":138,"o":"m 57 790 q 69 819 57 807 q 98 831 81 831 q 127 819 115 831 q 138 790 138 807 l 138 530 q 127 501 138 513 q 98 489 115 489 q 69 501 81 489 q 57 530 57 513 l 57 790 z "},"Š":{"ha":614,"x_min":44,"x_max":569,"o":"m 487 193 q 499 222 487 210 q 528 235 511 235 q 557 222 545 235 q 569 193 569 210 q 543 96 569 141 q 472 26 517 52 q 376 0 428 0 l 88 0 q 59 12 71 0 q 47 41 47 24 q 59 70 47 58 q 88 82 71 82 l 376 82 q 432 97 406 82 q 472 137 457 112 q 487 193 487 163 m 357 401 q 386 389 374 401 q 398 360 398 377 q 386 331 398 343 q 357 319 374 319 l 257 319 q 228 331 240 319 q 217 360 217 343 q 228 389 217 377 q 257 401 240 401 l 357 401 m 126 527 q 114 498 126 510 q 85 486 102 486 q 56 498 68 486 q 44 527 44 510 q 70 624 44 579 q 141 694 96 668 q 238 720 185 720 l 525 720 q 554 708 542 720 q 566 679 566 696 q 554 650 566 663 q 525 638 542 638 l 238 638 q 182 623 207 638 q 141 583 156 609 q 126 527 126 557 m 178 899 q 168 923 168 909 q 177 945 168 936 q 199 954 186 954 q 220 947 211 954 l 327 853 q 338 830 338 844 q 329 808 338 817 q 307 798 319 798 q 286 806 295 798 l 178 899 m 394 947 q 414 954 402 954 q 436 945 427 954 q 445 923 445 936 q 435 899 445 909 l 328 806 l 287 853 l 394 947 z "},"š":{"ha":614,"x_min":44,"x_max":569,"o":"m 487 193 q 499 222 487 210 q 528 235 511 235 q 557 222 545 235 q 569 193 569 210 q 543 96 569 141 q 472 26 517 52 q 376 0 428 0 l 88 0 q 59 12 71 0 q 47 41 47 24 q 59 70 47 58 q 88 82 71 82 l 376 82 q 432 97 406 82 q 472 137 457 112 q 487 193 487 163 m 357 401 q 386 389 374 401 q 398 360 398 377 q 386 331 398 343 q 357 319 374 319 l 257 319 q 228 331 240 319 q 217 360 217 343 q 228 389 217 377 q 257 401 240 401 l 357 401 m 126 527 q 114 498 126 510 q 85 486 102 486 q 56 498 68 486 q 44 527 44 510 q 70 624 44 579 q 141 694 96 668 q 238 720 185 720 l 525 720 q 554 708 542 720 q 566 679 566 696 q 554 650 566 663 q 525 638 542 638 l 238 638 q 182 623 207 638 q 141 583 156 609 q 126 527 126 557 m 178 899 q 168 923 168 909 q 177 945 168 936 q 199 954 186 954 q 220 947 211 954 l 327 853 q 338 830 338 844 q 329 808 338 817 q 307 798 319 798 q 286 806 295 798 l 178 899 m 394 947 q 414 954 402 954 q 436 945 427 954 q 445 923 445 936 q 435 899 445 909 l 328 806 l 287 853 l 394 947 z "},"Ş":{"ha":614,"x_min":44,"x_max":569,"o":"m 487 193 q 499 222 487 210 q 528 235 511 235 q 557 222 545 235 q 569 193 569 210 q 543 96 569 141 q 472 26 517 52 q 376 0 428 0 l 88 0 q 59 12 71 0 q 47 41 47 24 q 59 70 47 58 q 88 82 71 82 l 376 82 q 432 97 406 82 q 472 137 457 112 q 487 193 487 163 m 357 401 q 386 389 374 401 q 398 360 398 377 q 386 331 398 343 q 357 319 374 319 l 257 319 q 228 331 240 319 q 217 360 217 343 q 228 389 217 377 q 257 401 240 401 l 357 401 m 126 527 q 114 498 126 510 q 85 486 102 486 q 56 498 68 486 q 44 527 44 510 q 70 624 44 579 q 141 694 96 668 q 238 720 185 720 l 525 720 q 554 708 542 720 q 566 679 566 696 q 554 650 566 663 q 525 638 542 638 l 238 638 q 182 623 207 638 q 141 583 156 609 q 126 527 126 557 m 283 -198 q 258 -187 268 -198 q 247 -162 247 -176 q 249 -152 247 -157 l 279 -63 q 291 -45 282 -52 q 312 -38 301 -38 q 337 -49 327 -38 q 348 -74 348 -59 q 346 -84 348 -79 l 316 -173 q 304 -191 313 -184 q 283 -198 294 -198 z "},"ş":{"ha":614,"x_min":44,"x_max":569,"o":"m 487 193 q 499 222 487 210 q 528 235 511 235 q 557 222 545 235 q 569 193 569 210 q 543 96 569 141 q 472 26 517 52 q 376 0 428 0 l 88 0 q 59 12 71 0 q 47 41 47 24 q 59 70 47 58 q 88 82 71 82 l 376 82 q 432 97 406 82 q 472 137 457 112 q 487 193 487 163 m 357 401 q 386 389 374 401 q 398 360 398 377 q 386 331 398 343 q 357 319 374 319 l 257 319 q 228 331 240 319 q 217 360 217 343 q 228 389 217 377 q 257 401 240 401 l 357 401 m 126 527 q 114 498 126 510 q 85 486 102 486 q 56 498 68 486 q 44 527 44 510 q 70 624 44 579 q 141 694 96 668 q 238 720 185 720 l 525 720 q 554 708 542 720 q 566 679 566 696 q 554 650 566 663 q 525 638 542 638 l 238 638 q 182 623 207 638 q 141 583 156 609 q 126 527 126 557 m 283 -198 q 258 -187 268 -198 q 247 -162 247 -176 q 249 -152 247 -157 l 279 -63 q 291 -45 282 -52 q 312 -38 301 -38 q 337 -49 327 -38 q 348 -74 348 -59 q 346 -84 348 -79 l 316 -173 q 304 -191 313 -184 q 283 -198 294 -198 z "},"Ŝ":{"ha":614,"x_min":44,"x_max":569,"o":"m 487 193 q 499 222 487 210 q 528 235 511 235 q 557 222 545 235 q 569 193 569 210 q 543 96 569 141 q 472 26 517 52 q 376 0 428 0 l 88 0 q 59 12 71 0 q 47 41 47 24 q 59 70 47 58 q 88 82 71 82 l 376 82 q 432 97 406 82 q 472 137 457 112 q 487 193 487 163 m 357 401 q 386 389 374 401 q 398 360 398 377 q 386 331 398 343 q 357 319 374 319 l 257 319 q 228 331 240 319 q 217 360 217 343 q 228 389 217 377 q 257 401 240 401 l 357 401 m 126 527 q 114 498 126 510 q 85 486 102 486 q 56 498 68 486 q 44 527 44 510 q 70 624 44 579 q 141 694 96 668 q 238 720 185 720 l 525 720 q 554 708 542 720 q 566 679 566 696 q 554 650 566 663 q 525 638 542 638 l 238 638 q 182 623 207 638 q 141 583 156 609 q 126 527 126 557 m 286 947 q 307 954 295 954 q 329 945 319 954 q 338 923 338 936 q 327 899 338 909 l 220 806 q 199 798 211 798 q 177 808 186 798 q 168 830 168 817 q 178 853 168 844 l 286 947 m 328 947 l 435 853 q 445 830 445 844 q 436 808 445 817 q 414 798 427 798 q 394 806 402 798 l 287 899 l 328 947 z "},"ŝ":{"ha":614,"x_min":44,"x_max":569,"o":"m 487 193 q 499 222 487 210 q 528 235 511 235 q 557 222 545 235 q 569 193 569 210 q 543 96 569 141 q 472 26 517 52 q 376 0 428 0 l 88 0 q 59 12 71 0 q 47 41 47 24 q 59 70 47 58 q 88 82 71 82 l 376 82 q 432 97 406 82 q 472 137 457 112 q 487 193 487 163 m 357 401 q 386 389 374 401 q 398 360 398 377 q 386 331 398 343 q 357 319 374 319 l 257 319 q 228 331 240 319 q 217 360 217 343 q 228 389 217 377 q 257 401 240 401 l 357 401 m 126 527 q 114 498 126 510 q 85 486 102 486 q 56 498 68 486 q 44 527 44 510 q 70 624 44 579 q 141 694 96 668 q 238 720 185 720 l 525 720 q 554 708 542 720 q 566 679 566 696 q 554 650 566 663 q 525 638 542 638 l 238 638 q 182 623 207 638 q 141 583 156 609 q 126 527 126 557 m 286 947 q 307 954 295 954 q 329 945 319 954 q 338 923 338 936 q 327 899 338 909 l 220 806 q 199 798 211 798 q 177 808 186 798 q 168 830 168 817 q 178 853 168 844 l 286 947 m 328 947 l 435 853 q 445 830 445 844 q 436 808 445 817 q 414 798 427 798 q 394 806 402 798 l 287 899 l 328 947 z "},"Ș":{"ha":614,"x_min":44,"x_max":569,"o":"m 487 193 q 499 222 487 210 q 528 235 511 235 q 557 222 545 235 q 569 193 569 210 q 543 96 569 141 q 472 26 517 52 q 376 0 428 0 l 88 0 q 59 12 71 0 q 47 41 47 24 q 59 70 47 58 q 88 82 71 82 l 376 82 q 432 97 406 82 q 472 137 457 112 q 487 193 487 163 m 357 401 q 386 389 374 401 q 398 360 398 377 q 386 331 398 343 q 357 319 374 319 l 257 319 q 228 331 240 319 q 217 360 217 343 q 228 389 217 377 q 257 401 240 401 l 357 401 m 126 527 q 114 498 126 510 q 85 486 102 486 q 56 498 68 486 q 44 527 44 510 q 70 624 44 579 q 141 694 96 668 q 238 720 185 720 l 525 720 q 554 708 542 720 q 566 679 566 696 q 554 650 566 663 q 525 638 542 638 l 238 638 q 182 623 207 638 q 141 583 156 609 q 126 527 126 557 z "},"ș":{"ha":614,"x_min":44,"x_max":569,"o":"m 487 193 q 499 222 487 210 q 528 235 511 235 q 557 222 545 235 q 569 193 569 210 q 543 96 569 141 q 472 26 517 52 q 376 0 428 0 l 88 0 q 59 12 71 0 q 47 41 47 24 q 59 70 47 58 q 88 82 71 82 l 376 82 q 432 97 406 82 q 472 137 457 112 q 487 193 487 163 m 357 401 q 386 389 374 401 q 398 360 398 377 q 386 331 398 343 q 357 319 374 319 l 257 319 q 228 331 240 319 q 217 360 217 343 q 228 389 217 377 q 257 401 240 401 l 357 401 m 126 527 q 114 498 126 510 q 85 486 102 486 q 56 498 68 486 q 44 527 44 510 q 70 624 44 579 q 141 694 96 668 q 238 720 185 720 l 525 720 q 554 708 542 720 q 566 679 566 696 q 554 650 566 663 q 525 638 542 638 l 238 638 q 182 623 207 638 q 141 583 156 609 q 126 527 126 557 z "},"ß":{"ha":623,"x_min":53,"x_max":589,"o":"m 135 39 q 123 10 135 22 q 94 -3 111 -3 q 65 10 77 -3 q 53 39 53 22 l 53 677 l 135 677 l 135 39 m 274 305 q 282 310 282 305 q 279 321 282 312 q 276 330 279 322 q 274 345 274 337 q 286 374 274 362 q 315 386 298 386 l 400 386 q 495 361 451 386 q 564 292 538 335 q 589 197 589 248 q 564 102 589 146 q 495 33 538 59 q 400 8 451 8 l 203 8 q 211 13 211 8 q 208 25 211 16 q 206 34 208 27 q 203 49 203 41 q 215 78 203 66 q 244 90 227 90 l 400 90 q 456 103 431 90 q 494 141 480 117 q 507 197 507 166 q 494 253 507 228 q 456 291 480 277 q 400 305 431 305 l 274 305 m 501 720 q 530 708 518 720 q 542 680 542 697 q 530 650 542 663 q 501 638 518 638 l 94 639 q 65 651 77 639 q 53 680 53 663 q 65 709 53 697 q 94 721 77 721 l 501 720 m 466 700 q 480 712 472 707 q 499 717 489 717 q 528 704 516 717 q 540 675 540 692 q 532 652 540 663 l 432 508 q 417 495 426 500 q 398 491 408 491 q 369 503 381 491 q 358 531 358 514 q 365 555 358 545 l 466 700 z "},"ẞ":{"ha":623,"x_min":53,"x_max":589,"o":"m 135 39 q 123 10 135 22 q 94 -3 111 -3 q 65 10 77 -3 q 53 39 53 22 l 53 677 l 135 677 l 135 39 m 274 305 q 282 310 282 305 q 279 321 282 312 q 276 330 279 322 q 274 345 274 337 q 286 374 274 362 q 315 386 298 386 l 400 386 q 495 361 451 386 q 564 292 538 335 q 589 197 589 248 q 564 102 589 146 q 495 33 538 59 q 400 8 451 8 l 203 8 q 211 13 211 8 q 208 25 211 16 q 206 34 208 27 q 203 49 203 41 q 215 78 203 66 q 244 90 227 90 l 400 90 q 456 103 431 90 q 494 141 480 117 q 507 197 507 166 q 494 253 507 228 q 456 291 480 277 q 400 305 431 305 l 274 305 m 501 720 q 530 708 518 720 q 542 680 542 697 q 530 650 542 663 q 501 638 518 638 l 94 639 q 65 651 77 639 q 53 680 53 663 q 65 709 53 697 q 94 721 77 721 l 501 720 m 466 700 q 480 712 472 707 q 499 717 489 717 q 528 704 516 717 q 540 675 540 692 q 532 652 540 663 l 432 508 q 417 495 426 500 q 398 491 408 491 q 369 503 381 491 q 358 531 358 514 q 365 555 358 545 l 466 700 z "},"T":{"ha":653,"x_min":38,"x_max":615,"o":"m 368 681 l 368 41 q 356 12 368 24 q 327 0 344 0 q 298 12 310 0 q 286 41 286 24 l 286 681 l 368 681 m 79 638 q 50 650 62 638 q 38 679 38 663 q 50 708 38 696 q 79 720 62 720 l 326 720 q 355 708 343 720 q 367 679 367 696 q 355 650 367 663 q 326 638 343 638 l 79 638 m 485 638 q 456 650 468 638 q 444 679 444 663 q 456 708 444 696 q 485 720 468 720 l 574 720 q 603 708 591 720 q 615 680 615 696 q 603 650 615 663 q 574 638 591 638 l 485 638 z "},"t":{"ha":653,"x_min":38,"x_max":615,"o":"m 368 681 l 368 41 q 356 12 368 24 q 327 0 344 0 q 298 12 310 0 q 286 41 286 24 l 286 681 l 368 681 m 79 638 q 50 650 62 638 q 38 679 38 663 q 50 708 38 696 q 79 720 62 720 l 326 720 q 355 708 343 720 q 367 679 367 696 q 355 650 367 663 q 326 638 343 638 l 79 638 m 485 638 q 456 650 468 638 q 444 679 444 663 q 456 708 444 696 q 485 720 468 720 l 574 720 q 603 708 591 720 q 615 680 615 696 q 603 650 615 663 q 574 638 591 638 l 485 638 z "},"Ť":{"ha":653,"x_min":38,"x_max":615,"o":"m 368 681 l 368 41 q 356 12 368 24 q 327 0 344 0 q 298 12 310 0 q 286 41 286 24 l 286 681 l 368 681 m 79 638 q 50 650 62 638 q 38 679 38 663 q 50 708 38 696 q 79 720 62 720 l 326 720 q 355 708 343 720 q 367 679 367 696 q 355 650 367 663 q 326 638 343 638 l 79 638 m 485 638 q 456 650 468 638 q 444 679 444 663 q 456 708 444 696 q 485 720 468 720 l 574 720 q 603 708 591 720 q 615 680 615 696 q 603 650 615 663 q 574 638 591 638 l 485 638 m 199 899 q 188 923 188 909 q 197 945 188 936 q 219 954 206 954 q 240 947 231 954 l 347 853 q 358 830 358 844 q 349 808 358 817 q 327 798 340 798 q 306 806 315 798 l 199 899 m 414 947 q 434 954 422 954 q 456 945 447 954 q 466 923 466 936 q 455 899 466 909 l 348 806 l 307 853 l 414 947 z "}}}
